  0
SECTION
  2
HEADER
  9
$ANGBASE
  50
0.0
  9
$ANGDIR
  70
1
  9
$MEASUREMENT
  70
1
  0
ENDSEC
  0
SECTION
  2
TABLES
  0
TABLE
  2
LTYPE
  70
4
  0
LTYPE
  5
40F
  2
CONTINUOUS
  70
0
  3
Solid line
  72
65
  73
0
  40
0.0
  0
LTYPE
  5
410
  2
DASHDOT
 70
0
  3
Dash Dot ____ _ ____ _
 72
65
 73
4
 40
2.0
 49
1.25
 49
-0.25
 49
0.25
 49
-0.25
  0
LTYPE
  5
411
  2
DASHED
 70
0
  3
Dashed __ __ __ __ __
 72
65
 73
2
 40
0.75
 49
0.5
 49
-0.25
  0
LTYPE
  5
43B
  2
DOTTED
 70
0
  3
Dotted .  .  .  .
 72
65
 73
2
 40
0.2
 49
0.0
 49
-0.2
  0
ENDTAB
  0
TABLE
  2
STYLE
  70
4
  0
STYLE
  2
KICAD
  70
0
  40
0
  41
1
  42
1
  50
0
  71
0
  3
isocp.shx
  0
STYLE
  2
KICADB
  70
0
  40
0
  41
1
  42
1
  50
0
  71
0
  3
isocp.shx
  0
STYLE
  2
KICADI
  70
0
  40
0
  41
1
  42
1
  50
15
  71
0
  3
isocp.shx
  0
STYLE
  2
KICADBI
  70
0
  40
0
  41
1
  42
1
  50
15
  71
0
  3
isocp.shx
  0
ENDTAB
  0
TABLE
  2
LAYER
  70
1
  0
LAYER
  2
BLACK
  70
0
  62
7
  6
CONTINUOUS
  0
ENDTAB
  0
ENDSEC
  0
SECTION
  2
ENTITIES
0
ARC
8
BLACK
10
98.7299999999999898
20
58.7226999999999961
40
1.2700341538309117
50
0.00153390
51
91.34545554
0
ARC
8
BLACK
10
1.27
20
58.7299999999999969
40
1.2700000037811023
50
-270.00000000
51
-179.99557875
0
LINE
8
BLACK
6
CONTINUOUS
10
0.
20
1.27
11
0.
21
58.7299000000000007
0
LINE
8
BLACK
6
CONTINUOUS
10
98.6999999999999886
20
0.
11
1.27
21
0.
0
ARC
8
BLACK
10
1.27
20
1.27
40
1.27
50
-180.00000000
51
-90.00000000
0
LINE
8
BLACK
6
CONTINUOUS
10
1.27
20
60.
11
98.7001789999999914
21
59.9923839999999942
0
LINE
8
BLACK
6
CONTINUOUS
10
100.
20
58.7227339999999955
11
100.
21
1.262834
0
ARC
8
BLACK
10
98.7219999999999942
20
1.278
40
1.2780890373506846
50
-90.68097176
51
-0.67630985
0
LINE
8
BLACK
6
CONTINUOUS
10
1.3
20
54.6999999999999957
11
1.7
21
54.2999999999999972
0
LINE
8
BLACK
6
CONTINUOUS
10
1.7
20
54.6999999999999957
11
1.3
21
54.2999999999999972
0
LINE
8
BLACK
6
CONTINUOUS
10
1.3
20
45.1999999999999957
11
1.7
21
44.7999999999999972
0
LINE
8
BLACK
6
CONTINUOUS
10
1.7
20
45.1999999999999957
11
1.3
21
44.7999999999999972
0
LINE
8
BLACK
6
CONTINUOUS
10
1.3
20
39.6999999999999957
11
1.7
21
39.2999999999999972
0
LINE
8
BLACK
6
CONTINUOUS
10
1.7
20
39.6999999999999957
11
1.3
21
39.2999999999999972
0
LINE
8
BLACK
6
CONTINUOUS
10
1.3
20
29.1999999999999993
11
1.7
21
28.7999999999999972
0
LINE
8
BLACK
6
CONTINUOUS
10
1.7
20
29.1999999999999993
11
1.3
21
28.7999999999999972
0
LINE
8
BLACK
6
CONTINUOUS
10
1.3
20
19.1999999999999993
11
1.7
21
18.8000000000000007
0
LINE
8
BLACK
6
CONTINUOUS
10
1.7
20
19.1999999999999993
11
1.3
21
18.8000000000000007
0
LINE
8
BLACK
6
CONTINUOUS
10
1.3
20
12.6999999999999993
11
1.7
21
12.2999999999999989
0
LINE
8
BLACK
6
CONTINUOUS
10
1.7
20
12.6999999999999993
11
1.3
21
12.2999999999999989
0
LINE
8
BLACK
6
CONTINUOUS
10
1.3
20
5.2000000000000002
11
1.7
21
4.7999999999999998
0
LINE
8
BLACK
6
CONTINUOUS
10
1.7
20
5.2000000000000002
11
1.3
21
4.7999999999999998
0
LINE
8
BLACK
6
CONTINUOUS
10
4.7999999999999998
20
45.1999999999999957
11
5.2000000000000002
21
44.7999999999999972
0
LINE
8
BLACK
6
CONTINUOUS
10
5.2000000000000002
20
45.1999999999999957
11
4.7999999999999998
21
44.7999999999999972
0
LINE
8
BLACK
6
CONTINUOUS
10
5.2999999999999998
20
58.6999999999999957
11
5.7000000000000002
21
58.2999999999999972
0
LINE
8
BLACK
6
CONTINUOUS
10
5.7000000000000002
20
58.6999999999999957
11
5.2999999999999998
21
58.2999999999999972
0
LINE
8
BLACK
6
CONTINUOUS
10
6.2999999999999998
20
16.1999999999999993
11
6.6999999999999993
21
15.7999999999999989
0
LINE
8
BLACK
6
CONTINUOUS
10
6.6999999999999993
20
16.1999999999999993
11
6.2999999999999998
21
15.7999999999999989
0
LINE
8
BLACK
6
CONTINUOUS
10
7.7999999999999998
20
1.7
11
8.1999999999999993
21
1.3
0
LINE
8
BLACK
6
CONTINUOUS
10
8.1999999999999993
20
1.7
11
7.7999999999999998
21
1.3
0
LINE
8
BLACK
6
CONTINUOUS
10
8.2999999999999989
20
47.1999999999999957
11
8.6999999999999993
21
46.7999999999999972
0
LINE
8
BLACK
6
CONTINUOUS
10
8.6999999999999993
20
47.1999999999999957
11
8.2999999999999989
21
46.7999999999999972
0
LINE
8
BLACK
6
CONTINUOUS
10
10.7999999999999989
20
17.6999999999999993
11
11.1999999999999993
21
17.3000000000000007
0
LINE
8
BLACK
6
CONTINUOUS
10
11.1999999999999993
20
17.6999999999999993
11
10.7999999999999989
21
17.3000000000000007
0
LINE
8
BLACK
6
CONTINUOUS
10
11.2999999999999989
20
45.1999999999999957
11
11.6999999999999993
21
44.7999999999999972
0
LINE
8
BLACK
6
CONTINUOUS
10
11.6999999999999993
20
45.1999999999999957
11
11.2999999999999989
21
44.7999999999999972
0
LINE
8
BLACK
6
CONTINUOUS
10
12.7999999999999989
20
17.6999999999999993
11
13.1999999999999993
21
17.3000000000000007
0
LINE
8
BLACK
6
CONTINUOUS
10
13.1999999999999993
20
17.6999999999999993
11
12.7999999999999989
21
17.3000000000000007
0
LINE
8
BLACK
6
CONTINUOUS
10
12.7999999999999989
20
9.1999999999999993
11
13.1999999999999993
21
8.7999999999999989
0
LINE
8
BLACK
6
CONTINUOUS
10
13.1999999999999993
20
9.1999999999999993
11
12.7999999999999989
21
8.7999999999999989
0
LINE
8
BLACK
6
CONTINUOUS
10
13.7999999999999989
20
45.1999999999999957
11
14.1999999999999993
21
44.7999999999999972
0
LINE
8
BLACK
6
CONTINUOUS
10
14.1999999999999993
20
45.1999999999999957
11
13.7999999999999989
21
44.7999999999999972
0
LINE
8
BLACK
6
CONTINUOUS
10
14.7999999999999989
20
17.6999999999999993
11
15.1999999999999993
21
17.3000000000000007
0
LINE
8
BLACK
6
CONTINUOUS
10
15.1999999999999993
20
17.6999999999999993
11
14.7999999999999989
21
17.3000000000000007
0
LINE
8
BLACK
6
CONTINUOUS
10
16.3000000000000007
20
48.1999999999999957
11
16.6999999999999993
21
47.7999999999999972
0
LINE
8
BLACK
6
CONTINUOUS
10
16.6999999999999993
20
48.1999999999999957
11
16.3000000000000007
21
47.7999999999999972
0
LINE
8
BLACK
6
CONTINUOUS
10
16.3000000000000007
20
46.6999999999999957
11
16.6999999999999993
21
46.2999999999999972
0
LINE
8
BLACK
6
CONTINUOUS
10
16.6999999999999993
20
46.6999999999999957
11
16.3000000000000007
21
46.2999999999999972
0
LINE
8
BLACK
6
CONTINUOUS
10
16.3000000000000007
20
45.1999999999999957
11
16.6999999999999993
21
44.7999999999999972
0
LINE
8
BLACK
6
CONTINUOUS
10
16.6999999999999993
20
45.1999999999999957
11
16.3000000000000007
21
44.7999999999999972
0
LINE
8
BLACK
6
CONTINUOUS
10
16.8000000000000007
20
11.1999999999999993
11
17.1999999999999993
21
10.7999999999999989
0
LINE
8
BLACK
6
CONTINUOUS
10
17.1999999999999993
20
11.1999999999999993
11
16.8000000000000007
21
10.7999999999999989
0
LINE
8
BLACK
6
CONTINUOUS
10
17.8000000000000007
20
46.6999999999999957
11
18.1999999999999993
21
46.2999999999999972
0
LINE
8
BLACK
6
CONTINUOUS
10
18.1999999999999993
20
46.6999999999999957
11
17.8000000000000007
21
46.2999999999999972
0
LINE
8
BLACK
6
CONTINUOUS
10
19.3000000000000007
20
46.6999999999999957
11
19.6999999999999993
21
46.2999999999999972
0
LINE
8
BLACK
6
CONTINUOUS
10
19.6999999999999993
20
46.6999999999999957
11
19.3000000000000007
21
46.2999999999999972
0
LINE
8
BLACK
6
CONTINUOUS
10
19.8000000000000007
20
58.6999999999999957
11
20.1999999999999993
21
58.2999999999999972
0
LINE
8
BLACK
6
CONTINUOUS
10
20.1999999999999993
20
58.6999999999999957
11
19.8000000000000007
21
58.2999999999999972
0
LINE
8
BLACK
6
CONTINUOUS
10
19.8000000000000007
20
32.1999999999999957
11
20.1999999999999993
21
31.7999999999999972
0
LINE
8
BLACK
6
CONTINUOUS
10
20.1999999999999993
20
32.1999999999999957
11
19.8000000000000007
21
31.7999999999999972
0
LINE
8
BLACK
6
CONTINUOUS
10
19.8000000000000007
20
28.1999999999999993
11
20.1999999999999993
21
27.7999999999999972
0
LINE
8
BLACK
6
CONTINUOUS
10
20.1999999999999993
20
28.1999999999999993
11
19.8000000000000007
21
27.7999999999999972
0
LINE
8
BLACK
6
CONTINUOUS
10
20.3000000000000007
20
40.1999999999999957
11
20.6999999999999993
21
39.7999999999999972
0
LINE
8
BLACK
6
CONTINUOUS
10
20.6999999999999993
20
40.1999999999999957
11
20.3000000000000007
21
39.7999999999999972
0
LINE
8
BLACK
6
CONTINUOUS
10
20.3000000000000007
20
18.1999999999999993
11
20.6999999999999993
21
17.8000000000000007
0
LINE
8
BLACK
6
CONTINUOUS
10
20.6999999999999993
20
18.1999999999999993
11
20.3000000000000007
21
17.8000000000000007
0
LINE
8
BLACK
6
CONTINUOUS
10
20.8000000000000007
20
46.6999999999999957
11
21.1999999999999993
21
46.2999999999999972
0
LINE
8
BLACK
6
CONTINUOUS
10
21.1999999999999993
20
46.6999999999999957
11
20.8000000000000007
21
46.2999999999999972
0
LINE
8
BLACK
6
CONTINUOUS
10
21.8000000000000007
20
40.1999999999999957
11
22.1999999999999993
21
39.7999999999999972
0
LINE
8
BLACK
6
CONTINUOUS
10
22.1999999999999993
20
40.1999999999999957
11
21.8000000000000007
21
39.7999999999999972
0
LINE
8
BLACK
6
CONTINUOUS
10
22.3000000000000007
20
46.6999999999999957
11
22.6999999999999993
21
46.2999999999999972
0
LINE
8
BLACK
6
CONTINUOUS
10
22.6999999999999993
20
46.6999999999999957
11
22.3000000000000007
21
46.2999999999999972
0
LINE
8
BLACK
6
CONTINUOUS
10
22.3000000000000007
20
45.6999999999999957
11
22.6999999999999993
21
45.2999999999999972
0
LINE
8
BLACK
6
CONTINUOUS
10
22.6999999999999993
20
45.6999999999999957
11
22.3000000000000007
21
45.2999999999999972
0
LINE
8
BLACK
6
CONTINUOUS
10
22.3000000000000007
20
44.6999999999999957
11
22.6999999999999993
21
44.2999999999999972
0
LINE
8
BLACK
6
CONTINUOUS
10
22.6999999999999993
20
44.6999999999999957
11
22.3000000000000007
21
44.2999999999999972
0
LINE
8
BLACK
6
CONTINUOUS
10
22.3000000000000007
20
1.7
11
22.6999999999999993
21
1.3
0
LINE
8
BLACK
6
CONTINUOUS
10
22.6999999999999993
20
1.7
11
22.3000000000000007
21
1.3
0
LINE
8
BLACK
6
CONTINUOUS
10
22.8000000000000007
20
32.6999999999999957
11
23.1999999999999993
21
32.2999999999999972
0
LINE
8
BLACK
6
CONTINUOUS
10
23.1999999999999993
20
32.6999999999999957
11
22.8000000000000007
21
32.2999999999999972
0
LINE
8
BLACK
6
CONTINUOUS
10
22.8000000000000007
20
31.6999999999999993
11
23.1999999999999993
21
31.2999999999999972
0
LINE
8
BLACK
6
CONTINUOUS
10
23.1999999999999993
20
31.6999999999999993
11
22.8000000000000007
21
31.2999999999999972
0
LINE
8
BLACK
6
CONTINUOUS
10
22.8000000000000007
20
28.6999999999999993
11
23.1999999999999993
21
28.2999999999999972
0
LINE
8
BLACK
6
CONTINUOUS
10
23.1999999999999993
20
28.6999999999999993
11
22.8000000000000007
21
28.2999999999999972
0
LINE
8
BLACK
6
CONTINUOUS
10
22.8000000000000007
20
27.6999999999999993
11
23.1999999999999993
21
27.2999999999999972
0
LINE
8
BLACK
6
CONTINUOUS
10
23.1999999999999993
20
27.6999999999999993
11
22.8000000000000007
21
27.2999999999999972
0
LINE
8
BLACK
6
CONTINUOUS
10
22.8000000000000007
20
20.1999999999999993
11
23.1999999999999993
21
19.8000000000000007
0
LINE
8
BLACK
6
CONTINUOUS
10
23.1999999999999993
20
20.1999999999999993
11
22.8000000000000007
21
19.8000000000000007
0
LINE
8
BLACK
6
CONTINUOUS
10
23.3000000000000007
20
43.1999999999999957
11
23.6999999999999993
21
42.7999999999999972
0
LINE
8
BLACK
6
CONTINUOUS
10
23.6999999999999993
20
43.1999999999999957
11
23.3000000000000007
21
42.7999999999999972
0
LINE
8
BLACK
6
CONTINUOUS
10
23.3000000000000007
20
40.1999999999999957
11
23.6999999999999993
21
39.7999999999999972
0
LINE
8
BLACK
6
CONTINUOUS
10
23.6999999999999993
20
40.1999999999999957
11
23.3000000000000007
21
39.7999999999999972
0
LINE
8
BLACK
6
CONTINUOUS
10
23.7999999999999972
20
11.1600000000000001
11
24.1999999999999993
21
10.7599999999999998
0
LINE
8
BLACK
6
CONTINUOUS
10
24.1999999999999993
20
11.1600000000000001
11
23.7999999999999972
21
10.7599999999999998
0
LINE
8
BLACK
6
CONTINUOUS
10
24.7999999999999972
20
56.1999999999999957
11
25.1999999999999993
21
55.7999999999999972
0
LINE
8
BLACK
6
CONTINUOUS
10
25.1999999999999993
20
56.1999999999999957
11
24.7999999999999972
21
55.7999999999999972
0
LINE
8
BLACK
6
CONTINUOUS
10
26.2999999999999972
20
31.1999999999999993
11
26.6999999999999993
21
30.7999999999999972
0
LINE
8
BLACK
6
CONTINUOUS
10
26.6999999999999993
20
31.1999999999999993
11
26.2999999999999972
21
30.7999999999999972
0
LINE
8
BLACK
6
CONTINUOUS
10
26.2999999999999972
20
30.1999999999999993
11
26.6999999999999993
21
29.7999999999999972
0
LINE
8
BLACK
6
CONTINUOUS
10
26.6999999999999993
20
30.1999999999999993
11
26.2999999999999972
21
29.7999999999999972
0
LINE
8
BLACK
6
CONTINUOUS
10
26.7999999999999972
20
18.1999999999999993
11
27.1999999999999993
21
17.8000000000000007
0
LINE
8
BLACK
6
CONTINUOUS
10
27.1999999999999993
20
18.1999999999999993
11
26.7999999999999972
21
17.8000000000000007
0
LINE
8
BLACK
6
CONTINUOUS
10
26.7999999999999972
20
9.6999999999999993
11
27.1999999999999993
21
9.2999999999999989
0
LINE
8
BLACK
6
CONTINUOUS
10
27.1999999999999993
20
9.6999999999999993
11
26.7999999999999972
21
9.2999999999999989
0
LINE
8
BLACK
6
CONTINUOUS
10
28.2999999999999972
20
48.6999999999999957
11
28.6999999999999993
21
48.2999999999999972
0
LINE
8
BLACK
6
CONTINUOUS
10
28.6999999999999993
20
48.6999999999999957
11
28.2999999999999972
21
48.2999999999999972
0
LINE
8
BLACK
6
CONTINUOUS
10
28.7999999999999972
20
23.6999999999999993
11
29.1999999999999993
21
23.3000000000000007
0
LINE
8
BLACK
6
CONTINUOUS
10
29.1999999999999993
20
23.6999999999999993
11
28.7999999999999972
21
23.3000000000000007
0
LINE
8
BLACK
6
CONTINUOUS
10
30.2999999999999972
20
11.1600000000000001
11
30.6999999999999993
21
10.7599999999999998
0
LINE
8
BLACK
6
CONTINUOUS
10
30.6999999999999993
20
11.1600000000000001
11
30.2999999999999972
21
10.7599999999999998
0
LINE
8
BLACK
6
CONTINUOUS
10
30.7999999999999972
20
56.1999999999999957
11
31.1999999999999993
21
55.7999999999999972
0
LINE
8
BLACK
6
CONTINUOUS
10
31.1999999999999993
20
56.1999999999999957
11
30.7999999999999972
21
55.7999999999999972
0
LINE
8
BLACK
6
CONTINUOUS
10
30.7999999999999972
20
33.1999999999999957
11
31.1999999999999993
21
32.7999999999999972
0
LINE
8
BLACK
6
CONTINUOUS
10
31.1999999999999993
20
33.1999999999999957
11
30.7999999999999972
21
32.7999999999999972
0
LINE
8
BLACK
6
CONTINUOUS
10
30.7999999999999972
20
30.1999999999999993
11
31.1999999999999993
21
29.7999999999999972
0
LINE
8
BLACK
6
CONTINUOUS
10
31.1999999999999993
20
30.1999999999999993
11
30.7999999999999972
21
29.7999999999999972
0
LINE
8
BLACK
6
CONTINUOUS
10
31.2999999999999972
20
24.1999999999999993
11
31.6999999999999993
21
23.7999999999999972
0
LINE
8
BLACK
6
CONTINUOUS
10
31.6999999999999993
20
24.1999999999999993
11
31.2999999999999972
21
23.7999999999999972
0
LINE
8
BLACK
6
CONTINUOUS
10
31.7999999999999972
20
25.6999999999999993
11
32.1999999999999957
21
25.2999999999999972
0
LINE
8
BLACK
6
CONTINUOUS
10
32.1999999999999957
20
25.6999999999999993
11
31.7999999999999972
21
25.2999999999999972
0
LINE
8
BLACK
6
CONTINUOUS
10
32.7999999999999972
20
58.6999999999999957
11
33.1999999999999957
21
58.2999999999999972
0
LINE
8
BLACK
6
CONTINUOUS
10
33.1999999999999957
20
58.6999999999999957
11
32.7999999999999972
21
58.2999999999999972
0
LINE
8
BLACK
6
CONTINUOUS
10
32.7999999999999972
20
23.1999999999999993
11
33.1999999999999957
21
22.8000000000000007
0
LINE
8
BLACK
6
CONTINUOUS
10
33.1999999999999957
20
23.1999999999999993
11
32.7999999999999972
21
22.8000000000000007
0
LINE
8
BLACK
6
CONTINUOUS
10
33.2999999999999972
20
18.1999999999999993
11
33.6999999999999957
21
17.8000000000000007
0
LINE
8
BLACK
6
CONTINUOUS
10
33.6999999999999957
20
18.1999999999999993
11
33.2999999999999972
21
17.8000000000000007
0
LINE
8
BLACK
6
CONTINUOUS
10
33.2999999999999972
20
9.6999999999999993
11
33.6999999999999957
21
9.2999999999999989
0
LINE
8
BLACK
6
CONTINUOUS
10
33.6999999999999957
20
9.6999999999999993
11
33.2999999999999972
21
9.2999999999999989
0
LINE
8
BLACK
6
CONTINUOUS
10
34.7999999999999972
20
27.1999999999999993
11
35.1999999999999957
21
26.7999999999999972
0
LINE
8
BLACK
6
CONTINUOUS
10
35.1999999999999957
20
27.1999999999999993
11
34.7999999999999972
21
26.7999999999999972
0
LINE
8
BLACK
6
CONTINUOUS
10
34.7999999999999972
20
26.1999999999999993
11
35.1999999999999957
21
25.7999999999999972
0
LINE
8
BLACK
6
CONTINUOUS
10
35.1999999999999957
20
26.1999999999999993
11
34.7999999999999972
21
25.7999999999999972
0
LINE
8
BLACK
6
CONTINUOUS
10
35.7999999999999972
20
1.7
11
36.1999999999999957
21
1.3
0
LINE
8
BLACK
6
CONTINUOUS
10
36.1999999999999957
20
1.7
11
35.7999999999999972
21
1.3
0
LINE
8
BLACK
6
CONTINUOUS
10
36.7999999999999972
20
51.1999999999999957
11
37.1999999999999957
21
50.7999999999999972
0
LINE
8
BLACK
6
CONTINUOUS
10
37.1999999999999957
20
51.1999999999999957
11
36.7999999999999972
21
50.7999999999999972
0
LINE
8
BLACK
6
CONTINUOUS
10
36.7999999999999972
20
49.6999999999999957
11
37.1999999999999957
21
49.2999999999999972
0
LINE
8
BLACK
6
CONTINUOUS
10
37.1999999999999957
20
49.6999999999999957
11
36.7999999999999972
21
49.2999999999999972
0
LINE
8
BLACK
6
CONTINUOUS
10
37.2999999999999972
20
38.1999999999999957
11
37.6999999999999957
21
37.7999999999999972
0
LINE
8
BLACK
6
CONTINUOUS
10
37.6999999999999957
20
38.1999999999999957
11
37.2999999999999972
21
37.7999999999999972
0
LINE
8
BLACK
6
CONTINUOUS
10
37.7999999999999972
20
20.1999999999999993
11
38.1999999999999957
21
19.8000000000000007
0
LINE
8
BLACK
6
CONTINUOUS
10
38.1999999999999957
20
20.1999999999999993
11
37.7999999999999972
21
19.8000000000000007
0
LINE
8
BLACK
6
CONTINUOUS
10
38.7999999999999972
20
32.6999999999999957
11
39.1999999999999957
21
32.2999999999999972
0
LINE
8
BLACK
6
CONTINUOUS
10
39.1999999999999957
20
32.6999999999999957
11
38.7999999999999972
21
32.2999999999999972
0
LINE
8
BLACK
6
CONTINUOUS
10
39.2999999999999972
20
43.1999999999999957
11
39.6999999999999957
21
42.7999999999999972
0
LINE
8
BLACK
6
CONTINUOUS
10
39.6999999999999957
20
43.1999999999999957
11
39.2999999999999972
21
42.7999999999999972
0
LINE
8
BLACK
6
CONTINUOUS
10
39.7999999999999972
20
18.1999999999999993
11
40.1999999999999957
21
17.8000000000000007
0
LINE
8
BLACK
6
CONTINUOUS
10
40.1999999999999957
20
18.1999999999999993
11
39.7999999999999972
21
17.8000000000000007
0
LINE
8
BLACK
6
CONTINUOUS
10
39.7999999999999972
20
9.6999999999999993
11
40.1999999999999957
21
9.2999999999999989
0
LINE
8
BLACK
6
CONTINUOUS
10
40.1999999999999957
20
9.6999999999999993
11
39.7999999999999972
21
9.2999999999999989
0
LINE
8
BLACK
6
CONTINUOUS
10
40.2999999999999972
20
28.6999999999999993
11
40.6999999999999957
21
28.2999999999999972
0
LINE
8
BLACK
6
CONTINUOUS
10
40.6999999999999957
20
28.6999999999999993
11
40.2999999999999972
21
28.2999999999999972
0
LINE
8
BLACK
6
CONTINUOUS
10
42.2999999999999972
20
23.1999999999999993
11
42.6999999999999957
21
22.8000000000000007
0
LINE
8
BLACK
6
CONTINUOUS
10
42.6999999999999957
20
23.1999999999999993
11
42.2999999999999972
21
22.8000000000000007
0
LINE
8
BLACK
6
CONTINUOUS
10
42.7999999999999972
20
25.1999999999999993
11
43.1999999999999957
21
24.7999999999999972
0
LINE
8
BLACK
6
CONTINUOUS
10
43.1999999999999957
20
25.1999999999999993
11
42.7999999999999972
21
24.7999999999999972
0
LINE
8
BLACK
6
CONTINUOUS
10
43.2999999999999972
20
32.1999999999999957
11
43.6999999999999957
21
31.7999999999999972
0
LINE
8
BLACK
6
CONTINUOUS
10
43.6999999999999957
20
32.1999999999999957
11
43.2999999999999972
21
31.7999999999999972
0
LINE
8
BLACK
6
CONTINUOUS
10
43.7999999999999972
20
36.6999999999999957
11
44.1999999999999957
21
36.2999999999999972
0
LINE
8
BLACK
6
CONTINUOUS
10
44.1999999999999957
20
36.6999999999999957
11
43.7999999999999972
21
36.2999999999999972
0
LINE
8
BLACK
6
CONTINUOUS
10
43.7999999999999972
20
30.1999999999999993
11
44.1999999999999957
21
29.7999999999999972
0
LINE
8
BLACK
6
CONTINUOUS
10
44.1999999999999957
20
30.1999999999999993
11
43.7999999999999972
21
29.7999999999999972
0
LINE
8
BLACK
6
CONTINUOUS
10
44.2999999999999972
20
20.6999999999999993
11
44.6999999999999957
21
20.3000000000000007
0
LINE
8
BLACK
6
CONTINUOUS
10
44.6999999999999957
20
20.6999999999999993
11
44.2999999999999972
21
20.3000000000000007
0
LINE
8
BLACK
6
CONTINUOUS
10
46.2999999999999972
20
18.1999999999999993
11
46.6999999999999957
21
17.8000000000000007
0
LINE
8
BLACK
6
CONTINUOUS
10
46.6999999999999957
20
18.1999999999999993
11
46.2999999999999972
21
17.8000000000000007
0
LINE
8
BLACK
6
CONTINUOUS
10
46.2999999999999972
20
9.6999999999999993
11
46.6999999999999957
21
9.2999999999999989
0
LINE
8
BLACK
6
CONTINUOUS
10
46.6999999999999957
20
9.6999999999999993
11
46.2999999999999972
21
9.2999999999999989
0
LINE
8
BLACK
6
CONTINUOUS
10
46.7999999999999972
20
28.1999999999999993
11
47.1999999999999957
21
27.7999999999999972
0
LINE
8
BLACK
6
CONTINUOUS
10
47.1999999999999957
20
28.1999999999999993
11
46.7999999999999972
21
27.7999999999999972
0
LINE
8
BLACK
6
CONTINUOUS
10
46.7999999999999972
20
25.6999999999999993
11
47.1999999999999957
21
25.2999999999999972
0
LINE
8
BLACK
6
CONTINUOUS
10
47.1999999999999957
20
25.6999999999999993
11
46.7999999999999972
21
25.2999999999999972
0
LINE
8
BLACK
6
CONTINUOUS
10
47.7999999999999972
20
36.6999999999999957
11
48.1999999999999957
21
36.2999999999999972
0
LINE
8
BLACK
6
CONTINUOUS
10
48.1999999999999957
20
36.6999999999999957
11
47.7999999999999972
21
36.2999999999999972
0
LINE
8
BLACK
6
CONTINUOUS
10
47.7999999999999972
20
28.6999999999999993
11
48.1999999999999957
21
28.2999999999999972
0
LINE
8
BLACK
6
CONTINUOUS
10
48.1999999999999957
20
28.6999999999999993
11
47.7999999999999972
21
28.2999999999999972
0
LINE
8
BLACK
6
CONTINUOUS
10
47.7999999999999972
20
18.1999999999999993
11
48.1999999999999957
21
17.8000000000000007
0
LINE
8
BLACK
6
CONTINUOUS
10
48.1999999999999957
20
18.1999999999999993
11
47.7999999999999972
21
17.8000000000000007
0
LINE
8
BLACK
6
CONTINUOUS
10
49.7999999999999972
20
58.6999999999999957
11
50.1999999999999957
21
58.2999999999999972
0
LINE
8
BLACK
6
CONTINUOUS
10
50.1999999999999957
20
58.6999999999999957
11
49.7999999999999972
21
58.2999999999999972
0
LINE
8
BLACK
6
CONTINUOUS
10
50.2999999999999972
20
43.1999999999999957
11
50.6999999999999957
21
42.7999999999999972
0
LINE
8
BLACK
6
CONTINUOUS
10
50.6999999999999957
20
43.1999999999999957
11
50.2999999999999972
21
42.7999999999999972
0
LINE
8
BLACK
6
CONTINUOUS
10
50.2999999999999972
20
22.1999999999999993
11
50.6999999999999957
21
21.8000000000000007
0
LINE
8
BLACK
6
CONTINUOUS
10
50.6999999999999957
20
22.1999999999999993
11
50.2999999999999972
21
21.8000000000000007
0
LINE
8
BLACK
6
CONTINUOUS
10
50.7999999999999972
20
25.1999999999999993
11
51.1999999999999957
21
24.7999999999999972
0
LINE
8
BLACK
6
CONTINUOUS
10
51.1999999999999957
20
25.1999999999999993
11
50.7999999999999972
21
24.7999999999999972
0
LINE
8
BLACK
6
CONTINUOUS
10
50.7999999999999972
20
1.7
11
51.1999999999999957
21
1.3
0
LINE
8
BLACK
6
CONTINUOUS
10
51.1999999999999957
20
1.7
11
50.7999999999999972
21
1.3
0
LINE
8
BLACK
6
CONTINUOUS
10
51.2999999999999972
20
29.1999999999999993
11
51.6999999999999957
21
28.7999999999999972
0
LINE
8
BLACK
6
CONTINUOUS
10
51.6999999999999957
20
29.1999999999999993
11
51.2999999999999972
21
28.7999999999999972
0
LINE
8
BLACK
6
CONTINUOUS
10
51.7999999999999972
20
36.6999999999999957
11
52.1999999999999957
21
36.2999999999999972
0
LINE
8
BLACK
6
CONTINUOUS
10
52.1999999999999957
20
36.6999999999999957
11
51.7999999999999972
21
36.2999999999999972
0
LINE
8
BLACK
6
CONTINUOUS
10
52.7999999999999972
20
28.1999999999999993
11
53.1999999999999957
21
27.7999999999999972
0
LINE
8
BLACK
6
CONTINUOUS
10
53.1999999999999957
20
28.1999999999999993
11
52.7999999999999972
21
27.7999999999999972
0
LINE
8
BLACK
6
CONTINUOUS
10
52.7999999999999972
20
9.6999999999999993
11
53.1999999999999957
21
9.2999999999999989
0
LINE
8
BLACK
6
CONTINUOUS
10
53.1999999999999957
20
9.6999999999999993
11
52.7999999999999972
21
9.2999999999999989
0
LINE
8
BLACK
6
CONTINUOUS
10
53.2999999999999972
20
24.1999999999999993
11
53.6999999999999957
21
23.7999999999999972
0
LINE
8
BLACK
6
CONTINUOUS
10
53.6999999999999957
20
24.1999999999999993
11
53.2999999999999972
21
23.7999999999999972
0
LINE
8
BLACK
6
CONTINUOUS
10
53.2999999999999972
20
22.1999999999999993
11
53.6999999999999957
21
21.8000000000000007
0
LINE
8
BLACK
6
CONTINUOUS
10
53.6999999999999957
20
22.1999999999999993
11
53.2999999999999972
21
21.8000000000000007
0
LINE
8
BLACK
6
CONTINUOUS
10
53.7999999999999972
20
57.1999999999999957
11
54.1999999999999957
21
56.7999999999999972
0
LINE
8
BLACK
6
CONTINUOUS
10
54.1999999999999957
20
57.1999999999999957
11
53.7999999999999972
21
56.7999999999999972
0
LINE
8
BLACK
6
CONTINUOUS
10
53.7999999999999972
20
18.1999999999999993
11
54.1999999999999957
21
17.8000000000000007
0
LINE
8
BLACK
6
CONTINUOUS
10
54.1999999999999957
20
18.1999999999999993
11
53.7999999999999972
21
17.8000000000000007
0
LINE
8
BLACK
6
CONTINUOUS
10
54.7999999999999972
20
47.1999999999999957
11
55.1999999999999957
21
46.7999999999999972
0
LINE
8
BLACK
6
CONTINUOUS
10
55.1999999999999957
20
47.1999999999999957
11
54.7999999999999972
21
46.7999999999999972
0
LINE
8
BLACK
6
CONTINUOUS
10
54.7999999999999972
20
21.1999999999999993
11
55.1999999999999957
21
20.8000000000000007
0
LINE
8
BLACK
6
CONTINUOUS
10
55.1999999999999957
20
21.1999999999999993
11
54.7999999999999972
21
20.8000000000000007
0
LINE
8
BLACK
6
CONTINUOUS
10
55.7999999999999972
20
26.1999999999999993
11
56.1999999999999957
21
25.7999999999999972
0
LINE
8
BLACK
6
CONTINUOUS
10
56.1999999999999957
20
26.1999999999999993
11
55.7999999999999972
21
25.7999999999999972
0
LINE
8
BLACK
6
CONTINUOUS
10
55.7999999999999972
20
18.1999999999999993
11
56.1999999999999957
21
17.8000000000000007
0
LINE
8
BLACK
6
CONTINUOUS
10
56.1999999999999957
20
18.1999999999999993
11
55.7999999999999972
21
17.8000000000000007
0
LINE
8
BLACK
6
CONTINUOUS
10
56.7999999999999972
20
19.1999999999999993
11
57.1999999999999957
21
18.8000000000000007
0
LINE
8
BLACK
6
CONTINUOUS
10
57.1999999999999957
20
19.1999999999999993
11
56.7999999999999972
21
18.8000000000000007
0
LINE
8
BLACK
6
CONTINUOUS
10
58.2999999999999972
20
31.6999999999999993
11
58.6999999999999957
21
31.2999999999999972
0
LINE
8
BLACK
6
CONTINUOUS
10
58.6999999999999957
20
31.6999999999999993
11
58.2999999999999972
21
31.2999999999999972
0
LINE
8
BLACK
6
CONTINUOUS
10
58.7999999999999972
20
20.1999999999999993
11
59.1999999999999957
21
19.8000000000000007
0
LINE
8
BLACK
6
CONTINUOUS
10
59.1999999999999957
20
20.1999999999999993
11
58.7999999999999972
21
19.8000000000000007
0
LINE
8
BLACK
6
CONTINUOUS
10
59.2999999999999972
20
9.6999999999999993
11
59.6999999999999957
21
9.2999999999999989
0
LINE
8
BLACK
6
CONTINUOUS
10
59.6999999999999957
20
9.6999999999999993
11
59.2999999999999972
21
9.2999999999999989
0
LINE
8
BLACK
6
CONTINUOUS
10
59.7999999999999972
20
27.1999999999999993
11
60.1999999999999957
21
26.7999999999999972
0
LINE
8
BLACK
6
CONTINUOUS
10
60.1999999999999957
20
27.1999999999999993
11
59.7999999999999972
21
26.7999999999999972
0
LINE
8
BLACK
6
CONTINUOUS
10
60.2999999999999972
20
21.1999999999999993
11
60.6999999999999957
21
20.8000000000000007
0
LINE
8
BLACK
6
CONTINUOUS
10
60.6999999999999957
20
21.1999999999999993
11
60.2999999999999972
21
20.8000000000000007
0
LINE
8
BLACK
6
CONTINUOUS
10
60.7999999999999972
20
27.1999999999999993
11
61.1999999999999957
21
26.7999999999999972
0
LINE
8
BLACK
6
CONTINUOUS
10
61.1999999999999957
20
27.1999999999999993
11
60.7999999999999972
21
26.7999999999999972
0
LINE
8
BLACK
6
CONTINUOUS
10
61.2999999999999972
20
51.6999999999999957
11
61.6999999999999957
21
51.2999999999999972
0
LINE
8
BLACK
6
CONTINUOUS
10
61.6999999999999957
20
51.6999999999999957
11
61.2999999999999972
21
51.2999999999999972
0
LINE
8
BLACK
6
CONTINUOUS
10
61.2999999999999972
20
50.1999999999999957
11
61.6999999999999957
21
49.7999999999999972
0
LINE
8
BLACK
6
CONTINUOUS
10
61.6999999999999957
20
50.1999999999999957
11
61.2999999999999972
21
49.7999999999999972
0
LINE
8
BLACK
6
CONTINUOUS
10
61.7999999999999972
20
37.1999999999999957
11
62.1999999999999957
21
36.7999999999999972
0
LINE
8
BLACK
6
CONTINUOUS
10
62.1999999999999957
20
37.1999999999999957
11
61.7999999999999972
21
36.7999999999999972
0
LINE
8
BLACK
6
CONTINUOUS
10
61.7999999999999972
20
32.1999999999999957
11
62.1999999999999957
21
31.7999999999999972
0
LINE
8
BLACK
6
CONTINUOUS
10
62.1999999999999957
20
32.1999999999999957
11
61.7999999999999972
21
31.7999999999999972
0
LINE
8
BLACK
6
CONTINUOUS
10
61.7999999999999972
20
25.1999999999999993
11
62.1999999999999957
21
24.7999999999999972
0
LINE
8
BLACK
6
CONTINUOUS
10
62.1999999999999957
20
25.1999999999999993
11
61.7999999999999972
21
24.7999999999999972
0
LINE
8
BLACK
6
CONTINUOUS
10
61.7999999999999972
20
23.1999999999999993
11
62.1999999999999957
21
22.8000000000000007
0
LINE
8
BLACK
6
CONTINUOUS
10
62.1999999999999957
20
23.1999999999999993
11
61.7999999999999972
21
22.8000000000000007
0
LINE
8
BLACK
6
CONTINUOUS
10
63.7999999999999972
20
32.1999999999999957
11
64.2000000000000028
21
31.7999999999999972
0
LINE
8
BLACK
6
CONTINUOUS
10
64.2000000000000028
20
32.1999999999999957
11
63.7999999999999972
21
31.7999999999999972
0
LINE
8
BLACK
6
CONTINUOUS
10
63.7999999999999972
20
22.6999999999999993
11
64.2000000000000028
21
22.3000000000000007
0
LINE
8
BLACK
6
CONTINUOUS
10
64.2000000000000028
20
22.6999999999999993
11
63.7999999999999972
21
22.3000000000000007
0
LINE
8
BLACK
6
CONTINUOUS
10
63.7999999999999972
20
21.1999999999999993
11
64.2000000000000028
21
20.8000000000000007
0
LINE
8
BLACK
6
CONTINUOUS
10
64.2000000000000028
20
21.1999999999999993
11
63.7999999999999972
21
20.8000000000000007
0
LINE
8
BLACK
6
CONTINUOUS
10
65.2999999999999972
20
58.6999999999999957
11
65.7000000000000028
21
58.2999999999999972
0
LINE
8
BLACK
6
CONTINUOUS
10
65.7000000000000028
20
58.6999999999999957
11
65.2999999999999972
21
58.2999999999999972
0
LINE
8
BLACK
6
CONTINUOUS
10
65.2999999999999972
20
24.1999999999999993
11
65.7000000000000028
21
23.7999999999999972
0
LINE
8
BLACK
6
CONTINUOUS
10
65.7000000000000028
20
24.1999999999999993
11
65.2999999999999972
21
23.7999999999999972
0
LINE
8
BLACK
6
CONTINUOUS
10
65.7999999999999972
20
32.6999999999999957
11
66.2000000000000028
21
32.2999999999999972
0
LINE
8
BLACK
6
CONTINUOUS
10
66.2000000000000028
20
32.6999999999999957
11
65.7999999999999972
21
32.2999999999999972
0
LINE
8
BLACK
6
CONTINUOUS
10
65.7999999999999972
20
9.6999999999999993
11
66.2000000000000028
21
9.2999999999999989
0
LINE
8
BLACK
6
CONTINUOUS
10
66.2000000000000028
20
9.6999999999999993
11
65.7999999999999972
21
9.2999999999999989
0
LINE
8
BLACK
6
CONTINUOUS
10
66.2999999999999972
20
29.1999999999999993
11
66.7000000000000028
21
28.7999999999999972
0
LINE
8
BLACK
6
CONTINUOUS
10
66.7000000000000028
20
29.1999999999999993
11
66.2999999999999972
21
28.7999999999999972
0
LINE
8
BLACK
6
CONTINUOUS
10
66.2999999999999972
20
25.1999999999999993
11
66.7000000000000028
21
24.7999999999999972
0
LINE
8
BLACK
6
CONTINUOUS
10
66.7000000000000028
20
25.1999999999999993
11
66.2999999999999972
21
24.7999999999999972
0
LINE
8
BLACK
6
CONTINUOUS
10
66.7999999999999972
20
47.1999999999999957
11
67.2000000000000028
21
46.7999999999999972
0
LINE
8
BLACK
6
CONTINUOUS
10
67.2000000000000028
20
47.1999999999999957
11
66.7999999999999972
21
46.7999999999999972
0
LINE
8
BLACK
6
CONTINUOUS
10
66.7999999999999972
20
34.6999999999999957
11
67.2000000000000028
21
34.2999999999999972
0
LINE
8
BLACK
6
CONTINUOUS
10
67.2000000000000028
20
34.6999999999999957
11
66.7999999999999972
21
34.2999999999999972
0
LINE
8
BLACK
6
CONTINUOUS
10
66.7999999999999972
20
31.6999999999999993
11
67.2000000000000028
21
31.2999999999999972
0
LINE
8
BLACK
6
CONTINUOUS
10
67.2000000000000028
20
31.6999999999999993
11
66.7999999999999972
21
31.2999999999999972
0
LINE
8
BLACK
6
CONTINUOUS
10
67.2999999999999972
20
38.1999999999999957
11
67.7000000000000028
21
37.7999999999999972
0
LINE
8
BLACK
6
CONTINUOUS
10
67.7000000000000028
20
38.1999999999999957
11
67.2999999999999972
21
37.7999999999999972
0
LINE
8
BLACK
6
CONTINUOUS
10
67.2999999999999972
20
1.7
11
67.7000000000000028
21
1.3
0
LINE
8
BLACK
6
CONTINUOUS
10
67.7000000000000028
20
1.7
11
67.2999999999999972
21
1.3
0
LINE
8
BLACK
6
CONTINUOUS
10
67.7999999999999972
20
34.6999999999999957
11
68.2000000000000028
21
34.2999999999999972
0
LINE
8
BLACK
6
CONTINUOUS
10
68.2000000000000028
20
34.6999999999999957
11
67.7999999999999972
21
34.2999999999999972
0
LINE
8
BLACK
6
CONTINUOUS
10
68.2999999999999972
20
36.6999999999999957
11
68.7000000000000028
21
36.2999999999999972
0
LINE
8
BLACK
6
CONTINUOUS
10
68.7000000000000028
20
36.6999999999999957
11
68.2999999999999972
21
36.2999999999999972
0
LINE
8
BLACK
6
CONTINUOUS
10
68.7999999999999972
20
30.1999999999999993
11
69.2000000000000028
21
29.7999999999999972
0
LINE
8
BLACK
6
CONTINUOUS
10
69.2000000000000028
20
30.1999999999999993
11
68.7999999999999972
21
29.7999999999999972
0
LINE
8
BLACK
6
CONTINUOUS
10
68.7999999999999972
20
29.1999999999999993
11
69.2000000000000028
21
28.7999999999999972
0
LINE
8
BLACK
6
CONTINUOUS
10
69.2000000000000028
20
29.1999999999999993
11
68.7999999999999972
21
28.7999999999999972
0
LINE
8
BLACK
6
CONTINUOUS
10
68.7999999999999972
20
27.1999999999999993
11
69.2000000000000028
21
26.7999999999999972
0
LINE
8
BLACK
6
CONTINUOUS
10
69.2000000000000028
20
27.1999999999999993
11
68.7999999999999972
21
26.7999999999999972
0
LINE
8
BLACK
6
CONTINUOUS
10
70.2999999999999972
20
23.6999999999999993
11
70.7000000000000028
21
23.3000000000000007
0
LINE
8
BLACK
6
CONTINUOUS
10
70.7000000000000028
20
23.6999999999999993
11
70.2999999999999972
21
23.3000000000000007
0
LINE
8
BLACK
6
CONTINUOUS
10
71.2999999999999972
20
37.1999999999999957
11
71.7000000000000028
21
36.7999999999999972
0
LINE
8
BLACK
6
CONTINUOUS
10
71.7000000000000028
20
37.1999999999999957
11
71.2999999999999972
21
36.7999999999999972
0
LINE
8
BLACK
6
CONTINUOUS
10
72.2999999999999972
20
9.6999999999999993
11
72.7000000000000028
21
9.2999999999999989
0
LINE
8
BLACK
6
CONTINUOUS
10
72.7000000000000028
20
9.6999999999999993
11
72.2999999999999972
21
9.2999999999999989
0
LINE
8
BLACK
6
CONTINUOUS
10
72.7999999999999972
20
27.6999999999999993
11
73.2000000000000028
21
27.2999999999999972
0
LINE
8
BLACK
6
CONTINUOUS
10
73.2000000000000028
20
27.6999999999999993
11
72.7999999999999972
21
27.2999999999999972
0
LINE
8
BLACK
6
CONTINUOUS
10
72.7999999999999972
20
26.1999999999999993
11
73.2000000000000028
21
25.7999999999999972
0
LINE
8
BLACK
6
CONTINUOUS
10
73.2000000000000028
20
26.1999999999999993
11
72.7999999999999972
21
25.7999999999999972
0
LINE
8
BLACK
6
CONTINUOUS
10
72.7999999999999972
20
23.6999999999999993
11
73.2000000000000028
21
23.3000000000000007
0
LINE
8
BLACK
6
CONTINUOUS
10
73.2000000000000028
20
23.6999999999999993
11
72.7999999999999972
21
23.3000000000000007
0
LINE
8
BLACK
6
CONTINUOUS
10
73.2999999999999972
20
30.1999999999999993
11
73.7000000000000028
21
29.7999999999999972
0
LINE
8
BLACK
6
CONTINUOUS
10
73.7000000000000028
20
30.1999999999999993
11
73.2999999999999972
21
29.7999999999999972
0
LINE
8
BLACK
6
CONTINUOUS
10
73.7999999999999972
20
44.1999999999999957
11
74.2000000000000028
21
43.7999999999999972
0
LINE
8
BLACK
6
CONTINUOUS
10
74.2000000000000028
20
44.1999999999999957
11
73.7999999999999972
21
43.7999999999999972
0
LINE
8
BLACK
6
CONTINUOUS
10
73.7999999999999972
20
42.1999999999999957
11
74.2000000000000028
21
41.7999999999999972
0
LINE
8
BLACK
6
CONTINUOUS
10
74.2000000000000028
20
42.1999999999999957
11
73.7999999999999972
21
41.7999999999999972
0
LINE
8
BLACK
6
CONTINUOUS
10
73.7999999999999972
20
40.1999999999999957
11
74.2000000000000028
21
39.7999999999999972
0
LINE
8
BLACK
6
CONTINUOUS
10
74.2000000000000028
20
40.1999999999999957
11
73.7999999999999972
21
39.7999999999999972
0
LINE
8
BLACK
6
CONTINUOUS
10
73.7999999999999972
20
38.1999999999999957
11
74.2000000000000028
21
37.7999999999999972
0
LINE
8
BLACK
6
CONTINUOUS
10
74.2000000000000028
20
38.1999999999999957
11
73.7999999999999972
21
37.7999999999999972
0
LINE
8
BLACK
6
CONTINUOUS
10
73.7999999999999972
20
32.1999999999999957
11
74.2000000000000028
21
31.7999999999999972
0
LINE
8
BLACK
6
CONTINUOUS
10
74.2000000000000028
20
32.1999999999999957
11
73.7999999999999972
21
31.7999999999999972
0
LINE
8
BLACK
6
CONTINUOUS
10
75.7999999999999972
20
23.6999999999999993
11
76.2000000000000028
21
23.3000000000000007
0
LINE
8
BLACK
6
CONTINUOUS
10
76.2000000000000028
20
23.6999999999999993
11
75.7999999999999972
21
23.3000000000000007
0
LINE
8
BLACK
6
CONTINUOUS
10
75.7999999999999972
20
11.1600000000000001
11
76.2000000000000028
21
10.7599999999999998
0
LINE
8
BLACK
6
CONTINUOUS
10
76.2000000000000028
20
11.1600000000000001
11
75.7999999999999972
21
10.7599999999999998
0
LINE
8
BLACK
6
CONTINUOUS
10
76.2999999999999972
20
38.1999999999999957
11
76.7000000000000028
21
37.7999999999999972
0
LINE
8
BLACK
6
CONTINUOUS
10
76.7000000000000028
20
38.1999999999999957
11
76.2999999999999972
21
37.7999999999999972
0
LINE
8
BLACK
6
CONTINUOUS
10
76.7999999999999972
20
33.1999999999999957
11
77.2000000000000028
21
32.7999999999999972
0
LINE
8
BLACK
6
CONTINUOUS
10
77.2000000000000028
20
33.1999999999999957
11
76.7999999999999972
21
32.7999999999999972
0
LINE
8
BLACK
6
CONTINUOUS
10
76.7999999999999972
20
32.1999999999999957
11
77.2000000000000028
21
31.7999999999999972
0
LINE
8
BLACK
6
CONTINUOUS
10
77.2000000000000028
20
32.1999999999999957
11
76.7999999999999972
21
31.7999999999999972
0
LINE
8
BLACK
6
CONTINUOUS
10
76.7999999999999972
20
29.1999999999999993
11
77.2000000000000028
21
28.7999999999999972
0
LINE
8
BLACK
6
CONTINUOUS
10
77.2000000000000028
20
29.1999999999999993
11
76.7999999999999972
21
28.7999999999999972
0
LINE
8
BLACK
6
CONTINUOUS
10
76.7999999999999972
20
28.1999999999999993
11
77.2000000000000028
21
27.7999999999999972
0
LINE
8
BLACK
6
CONTINUOUS
10
77.2000000000000028
20
28.1999999999999993
11
76.7999999999999972
21
27.7999999999999972
0
LINE
8
BLACK
6
CONTINUOUS
10
78.2999999999999972
20
23.6999999999999993
11
78.7000000000000028
21
23.3000000000000007
0
LINE
8
BLACK
6
CONTINUOUS
10
78.7000000000000028
20
23.6999999999999993
11
78.2999999999999972
21
23.3000000000000007
0
LINE
8
BLACK
6
CONTINUOUS
10
78.7999999999999972
20
44.1999999999999957
11
79.2000000000000028
21
43.7999999999999972
0
LINE
8
BLACK
6
CONTINUOUS
10
79.2000000000000028
20
44.1999999999999957
11
78.7999999999999972
21
43.7999999999999972
0
LINE
8
BLACK
6
CONTINUOUS
10
78.7999999999999972
20
42.1999999999999957
11
79.2000000000000028
21
41.7999999999999972
0
LINE
8
BLACK
6
CONTINUOUS
10
79.2000000000000028
20
42.1999999999999957
11
78.7999999999999972
21
41.7999999999999972
0
LINE
8
BLACK
6
CONTINUOUS
10
78.7999999999999972
20
40.1999999999999957
11
79.2000000000000028
21
39.7999999999999972
0
LINE
8
BLACK
6
CONTINUOUS
10
79.2000000000000028
20
40.1999999999999957
11
78.7999999999999972
21
39.7999999999999972
0
LINE
8
BLACK
6
CONTINUOUS
10
78.7999999999999972
20
38.1999999999999957
11
79.2000000000000028
21
37.7999999999999972
0
LINE
8
BLACK
6
CONTINUOUS
10
79.2000000000000028
20
38.1999999999999957
11
78.7999999999999972
21
37.7999999999999972
0
LINE
8
BLACK
6
CONTINUOUS
10
78.7999999999999972
20
9.6999999999999993
11
79.2000000000000028
21
9.2999999999999989
0
LINE
8
BLACK
6
CONTINUOUS
10
79.2000000000000028
20
9.6999999999999993
11
78.7999999999999972
21
9.2999999999999989
0
LINE
8
BLACK
6
CONTINUOUS
10
79.7999999999999972
20
32.6999999999999957
11
80.2000000000000028
21
32.2999999999999972
0
LINE
8
BLACK
6
CONTINUOUS
10
80.2000000000000028
20
32.6999999999999957
11
79.7999999999999972
21
32.2999999999999972
0
LINE
8
BLACK
6
CONTINUOUS
10
79.7999999999999972
20
21.6999999999999993
11
80.2000000000000028
21
21.3000000000000007
0
LINE
8
BLACK
6
CONTINUOUS
10
80.2000000000000028
20
21.6999999999999993
11
79.7999999999999972
21
21.3000000000000007
0
LINE
8
BLACK
6
CONTINUOUS
10
79.7999999999999972
20
1.7
11
80.2000000000000028
21
1.3
0
LINE
8
BLACK
6
CONTINUOUS
10
80.2000000000000028
20
1.7
11
79.7999999999999972
21
1.3
0
LINE
8
BLACK
6
CONTINUOUS
10
80.2999999999999972
20
58.6999999999999957
11
80.7000000000000028
21
58.2999999999999972
0
LINE
8
BLACK
6
CONTINUOUS
10
80.7000000000000028
20
58.6999999999999957
11
80.2999999999999972
21
58.2999999999999972
0
LINE
8
BLACK
6
CONTINUOUS
10
80.2999999999999972
20
28.6999999999999993
11
80.7000000000000028
21
28.2999999999999972
0
LINE
8
BLACK
6
CONTINUOUS
10
80.7000000000000028
20
28.6999999999999993
11
80.2999999999999972
21
28.2999999999999972
0
LINE
8
BLACK
6
CONTINUOUS
10
82.2999999999999972
20
11.1999999999999993
11
82.7000000000000028
21
10.7999999999999989
0
LINE
8
BLACK
6
CONTINUOUS
10
82.7000000000000028
20
11.1999999999999993
11
82.2999999999999972
21
10.7999999999999989
0
LINE
8
BLACK
6
CONTINUOUS
10
88.7999999999999972
20
12.6999999999999993
11
89.2000000000000028
21
12.2999999999999989
0
LINE
8
BLACK
6
CONTINUOUS
10
89.2000000000000028
20
12.6999999999999993
11
88.7999999999999972
21
12.2999999999999989
0
LINE
8
BLACK
6
CONTINUOUS
10
88.7999999999999972
20
10.6999999999999993
11
89.2000000000000028
21
10.2999999999999989
0
LINE
8
BLACK
6
CONTINUOUS
10
89.2000000000000028
20
10.6999999999999993
11
88.7999999999999972
21
10.2999999999999989
0
LINE
8
BLACK
6
CONTINUOUS
10
88.7999999999999972
20
7.6999999999999993
11
89.2000000000000028
21
7.2999999999999998
0
LINE
8
BLACK
6
CONTINUOUS
10
89.2000000000000028
20
7.6999999999999993
11
88.7999999999999972
21
7.2999999999999998
0
LINE
8
BLACK
6
CONTINUOUS
10
89.7999999999999972
20
51.6999999999999957
11
90.2000000000000028
21
51.2999999999999972
0
LINE
8
BLACK
6
CONTINUOUS
10
90.2000000000000028
20
51.6999999999999957
11
89.7999999999999972
21
51.2999999999999972
0
LINE
8
BLACK
6
CONTINUOUS
10
89.7999999999999972
20
41.6999999999999957
11
90.2000000000000028
21
41.2999999999999972
0
LINE
8
BLACK
6
CONTINUOUS
10
90.2000000000000028
20
41.6999999999999957
11
89.7999999999999972
21
41.2999999999999972
0
LINE
8
BLACK
6
CONTINUOUS
10
91.2999999999999972
20
50.1999999999999957
11
91.7000000000000028
21
49.7999999999999972
0
LINE
8
BLACK
6
CONTINUOUS
10
91.7000000000000028
20
50.1999999999999957
11
91.2999999999999972
21
49.7999999999999972
0
LINE
8
BLACK
6
CONTINUOUS
10
91.2999999999999972
20
6.1999999999999993
11
91.7000000000000028
21
5.7999999999999998
0
LINE
8
BLACK
6
CONTINUOUS
10
91.7000000000000028
20
6.1999999999999993
11
91.2999999999999972
21
5.7999999999999998
0
LINE
8
BLACK
6
CONTINUOUS
10
92.7999999999999972
20
41.6999999999999957
11
93.2000000000000028
21
41.2999999999999972
0
LINE
8
BLACK
6
CONTINUOUS
10
93.2000000000000028
20
41.6999999999999957
11
92.7999999999999972
21
41.2999999999999972
0
LINE
8
BLACK
6
CONTINUOUS
10
92.7999999999999972
20
40.1999999999999957
11
93.2000000000000028
21
39.7999999999999972
0
LINE
8
BLACK
6
CONTINUOUS
10
93.2000000000000028
20
40.1999999999999957
11
92.7999999999999972
21
39.7999999999999972
0
LINE
8
BLACK
6
CONTINUOUS
10
92.7999999999999972
20
18.1999999999999993
11
93.2000000000000028
21
17.8000000000000007
0
LINE
8
BLACK
6
CONTINUOUS
10
93.2000000000000028
20
18.1999999999999993
11
92.7999999999999972
21
17.8000000000000007
0
LINE
8
BLACK
6
CONTINUOUS
10
93.2999999999999972
20
58.6999999999999957
11
93.7000000000000028
21
58.2999999999999972
0
LINE
8
BLACK
6
CONTINUOUS
10
93.7000000000000028
20
58.6999999999999957
11
93.2999999999999972
21
58.2999999999999972
0
LINE
8
BLACK
6
CONTINUOUS
10
94.7999999999999972
20
1.7
11
95.1999999999999886
21
1.3
0
LINE
8
BLACK
6
CONTINUOUS
10
95.1999999999999886
20
1.7
11
94.7999999999999972
21
1.3
0
LINE
8
BLACK
6
CONTINUOUS
10
96.2999999999999972
20
7.6999999999999993
11
96.6999999999999886
21
7.2999999999999998
0
LINE
8
BLACK
6
CONTINUOUS
10
96.6999999999999886
20
7.6999999999999993
11
96.2999999999999972
21
7.2999999999999998
0
LINE
8
BLACK
6
CONTINUOUS
10
96.7999999999999972
20
12.6999999999999993
11
97.1999999999999886
21
12.2999999999999989
0
LINE
8
BLACK
6
CONTINUOUS
10
97.1999999999999886
20
12.6999999999999993
11
96.7999999999999972
21
12.2999999999999989
0
LINE
8
BLACK
6
CONTINUOUS
10
98.2999999999999972
20
54.1999999999999957
11
98.6999999999999886
21
53.7999999999999972
0
LINE
8
BLACK
6
CONTINUOUS
10
98.6999999999999886
20
54.1999999999999957
11
98.2999999999999972
21
53.7999999999999972
0
LINE
8
BLACK
6
CONTINUOUS
10
98.2999999999999972
20
40.1999999999999957
11
98.6999999999999886
21
39.7999999999999972
0
LINE
8
BLACK
6
CONTINUOUS
10
98.6999999999999886
20
40.1999999999999957
11
98.2999999999999972
21
39.7999999999999972
0
LINE
8
BLACK
6
CONTINUOUS
10
98.2999999999999972
20
29.1999999999999993
11
98.6999999999999886
21
28.7999999999999972
0
LINE
8
BLACK
6
CONTINUOUS
10
98.6999999999999886
20
29.1999999999999993
11
98.2999999999999972
21
28.7999999999999972
0
LINE
8
BLACK
6
CONTINUOUS
10
98.2999999999999972
20
18.1999999999999993
11
98.6999999999999886
21
17.8000000000000007
0
LINE
8
BLACK
6
CONTINUOUS
10
98.6999999999999886
20
18.1999999999999993
11
98.2999999999999972
21
17.8000000000000007
0
CIRCLE
8
BLACK
10
26.6141199999999998
20
5.9207399999999994
40
0.5499999999999999
0
CIRCLE
8
BLACK
10
29.1541199999999989
20
5.9207399999999994
40
0.5499999999999999
0
CIRCLE
8
BLACK
10
31.6941199999999981
20
5.9207399999999994
40
0.5499999999999999
0
CIRCLE
8
BLACK
10
34.2341199999999972
20
5.9207399999999994
40
0.5499999999999999
0
CIRCLE
8
BLACK
10
35.7581199999999981
20
54.1807400000000001
40
0.5499999999999999
0
CIRCLE
8
BLACK
10
36.7741199999999964
20
5.9207399999999994
40
0.5499999999999999
0
CIRCLE
8
BLACK
10
38.2981199999999973
20
54.1807400000000001
40
0.5499999999999999
0
CIRCLE
8
BLACK
10
39.3141199999999955
20
5.9207399999999994
40
0.5499999999999999
0
CIRCLE
8
BLACK
10
40.8381199999999964
20
54.1807400000000001
40
0.5499999999999999
0
CIRCLE
8
BLACK
10
41.8541199999999947
20
5.9207399999999994
40
0.5499999999999999
0
CIRCLE
8
BLACK
10
43.3781199999999956
20
54.1807400000000001
40
0.5499999999999999
0
CIRCLE
8
BLACK
10
44.3941200000000009
20
5.9207399999999994
40
0.5499999999999999
0
CIRCLE
8
BLACK
10
45.9181199999999947
20
54.1807400000000001
40
0.5499999999999999
0
CIRCLE
8
BLACK
10
46.9341200000000001
20
5.9207399999999994
40
0.5499999999999999
0
CIRCLE
8
BLACK
10
48.458120000000001
20
54.1807400000000001
40
0.5499999999999999
0
CIRCLE
8
BLACK
10
49.4741199999999992
20
5.9207399999999994
40
0.5499999999999999
0
CIRCLE
8
BLACK
10
50.9981200000000001
20
54.1807400000000001
40
0.5499999999999999
0
CIRCLE
8
BLACK
10
53.5381199999999993
20
54.1807400000000001
40
0.5499999999999999
0
CIRCLE
8
BLACK
10
53.5381199999999993
20
5.9207399999999994
40
0.5499999999999999
0
CIRCLE
8
BLACK
10
56.0781199999999984
20
5.9207399999999994
40
0.5499999999999999
0
CIRCLE
8
BLACK
10
58.6181199999999976
20
54.1807400000000001
40
0.5499999999999999
0
CIRCLE
8
BLACK
10
58.6181199999999976
20
5.9207399999999994
40
0.5499999999999999
0
CIRCLE
8
BLACK
10
61.1581199999999967
20
54.1807400000000001
40
0.5499999999999999
0
CIRCLE
8
BLACK
10
61.1581199999999967
20
5.9207399999999994
40
0.5499999999999999
0
CIRCLE
8
BLACK
10
63.6981199999999959
20
54.1807400000000001
40
0.5499999999999999
0
CIRCLE
8
BLACK
10
63.6981199999999959
20
5.9207399999999994
40
0.5499999999999999
0
CIRCLE
8
BLACK
10
66.238119999999995
20
54.1807400000000001
40
0.5499999999999999
0
CIRCLE
8
BLACK
10
66.238119999999995
20
5.9207399999999994
40
0.5499999999999999
0
CIRCLE
8
BLACK
10
68.7781200000000013
20
54.1807400000000001
40
0.5499999999999999
0
CIRCLE
8
BLACK
10
68.7781200000000013
20
5.9207399999999994
40
0.5499999999999999
0
CIRCLE
8
BLACK
10
71.3181199999999933
20
54.1807400000000001
40
0.5499999999999999
0
CIRCLE
8
BLACK
10
71.3181199999999933
20
5.9207399999999994
40
0.5499999999999999
0
LINE
8
BLACK
6
CONTINUOUS
10
2.54
20
59.0598799999999997
11
2.54
21
55.8598799999999969
0
LINE
8
BLACK
6
CONTINUOUS
10
0.9399999999999999
20
57.4598799999999983
11
4.1399999999999997
21
57.4598799999999983
0
LINE
8
BLACK
6
CONTINUOUS
10
2.54
20
4.1399999999999997
11
2.54
21
0.9399999999999999
0
LINE
8
BLACK
6
CONTINUOUS
10
0.9399999999999999
20
2.54
11
4.1399999999999997
21
2.54
0
LINE
8
BLACK
6
CONTINUOUS
10
97.4599899999999906
20
59.0527139999999946
11
97.4599899999999906
21
55.8527139999999989
0
LINE
8
BLACK
6
CONTINUOUS
10
95.8599899999999963
20
57.4527140000000003
11
99.0599899999999991
21
57.4527140000000003
0
LINE
8
BLACK
6
CONTINUOUS
10
97.4599899999999906
20
4.1429939999999998
11
97.4599899999999906
21
0.942994
0
LINE
8
BLACK
6
CONTINUOUS
10
95.8599899999999963
20
2.5429939999999998
11
99.0599899999999991
21
2.5429939999999998
0
LINE
8
BLACK
6
CONTINUOUS
10
2.5827679999999997
20
-3.1399269999999997
11
2.5827679999999997
21
-1.1399269999999999
0
LINE
8
BLACK
6
CONTINUOUS
10
2.5827679999999997
20
-1.1399269999999999
11
3.0589580000000001
21
-1.1399269999999999
0
LINE
8
BLACK
6
CONTINUOUS
10
3.0589580000000001
20
-1.1399269999999999
11
3.3446729999999998
21
-1.2351649999999998
0
LINE
8
BLACK
6
CONTINUOUS
10
3.3446729999999998
20
-1.2351649999999998
11
3.5351489999999997
21
-1.4256409999999999
0
LINE
8
BLACK
6
CONTINUOUS
10
3.5351489999999997
20
-1.4256409999999999
11
3.6303869999999998
21
-1.616117
0
LINE
8
BLACK
6
CONTINUOUS
10
3.6303869999999998
20
-1.616117
11
3.725625
21
-1.997069
0
LINE
8
BLACK
6
CONTINUOUS
10
3.725625
20
-1.997069
11
3.725625
21
-2.2827839999999999
0
LINE
8
BLACK
6
CONTINUOUS
10
3.725625
20
-2.2827839999999999
11
3.6303869999999998
21
-2.6637359999999997
0
LINE
8
BLACK
6
CONTINUOUS
10
3.6303869999999998
20
-2.6637359999999997
11
3.5351489999999997
21
-2.854212
0
LINE
8
BLACK
6
CONTINUOUS
10
3.5351489999999997
20
-2.854212
11
3.3446729999999998
21
-3.044689
0
LINE
8
BLACK
6
CONTINUOUS
10
3.3446729999999998
20
-3.044689
11
3.0589580000000001
21
-3.1399269999999997
0
LINE
8
BLACK
6
CONTINUOUS
10
3.0589580000000001
20
-3.1399269999999997
11
2.5827679999999997
21
-3.1399269999999997
0
LINE
8
BLACK
6
CONTINUOUS
10
4.5827679999999997
20
-3.1399269999999997
11
4.5827679999999997
21
-1.8065929999999999
0
LINE
8
BLACK
6
CONTINUOUS
10
4.5827679999999997
20
-2.1875459999999998
11
4.6780059999999999
21
-1.997069
0
LINE
8
BLACK
6
CONTINUOUS
10
4.6780059999999999
20
-1.997069
11
4.773244
21
-1.9018309999999998
0
LINE
8
BLACK
6
CONTINUOUS
10
4.773244
20
-1.9018309999999998
11
4.9637199999999995
21
-1.8065929999999999
0
LINE
8
BLACK
6
CONTINUOUS
10
4.9637199999999995
20
-1.8065929999999999
11
5.1541969999999999
21
-1.8065929999999999
0
LINE
8
BLACK
6
CONTINUOUS
10
5.8208630000000001
20
-3.1399269999999997
11
5.8208630000000001
21
-1.8065929999999999
0
LINE
8
BLACK
6
CONTINUOUS
10
5.8208630000000001
20
-1.1399269999999999
11
5.725625
21
-1.2351649999999998
0
LINE
8
BLACK
6
CONTINUOUS
10
5.725625
20
-1.2351649999999998
11
5.8208630000000001
21
-1.330403
0
LINE
8
BLACK
6
CONTINUOUS
10
5.8208630000000001
20
-1.330403
11
5.9161009999999994
21
-1.2351649999999998
0
LINE
8
BLACK
6
CONTINUOUS
10
5.9161009999999994
20
-1.2351649999999998
11
5.8208630000000001
21
-1.1399269999999999
0
LINE
8
BLACK
6
CONTINUOUS
10
5.8208630000000001
20
-1.1399269999999999
11
5.8208630000000001
21
-1.330403
0
LINE
8
BLACK
6
CONTINUOUS
10
7.0589579999999996
20
-3.1399269999999997
11
6.8684819999999993
21
-3.044689
0
LINE
8
BLACK
6
CONTINUOUS
10
6.8684819999999993
20
-3.044689
11
6.773244
21
-2.854212
0
LINE
8
BLACK
6
CONTINUOUS
10
6.773244
20
-2.854212
11
6.773244
21
-1.1399269999999999
0
LINE
8
BLACK
6
CONTINUOUS
10
8.1065769999999997
20
-3.1399269999999997
11
7.9161009999999994
21
-3.044689
0
LINE
8
BLACK
6
CONTINUOUS
10
7.9161009999999994
20
-3.044689
11
7.8208629999999992
21
-2.854212
0
LINE
8
BLACK
6
CONTINUOUS
10
7.8208629999999992
20
-2.854212
11
7.8208629999999992
21
-1.1399269999999999
0
LINE
8
BLACK
6
CONTINUOUS
10
10.3922919999999994
20
-3.1399269999999997
11
10.3922919999999994
21
-1.1399269999999999
0
LINE
8
BLACK
6
CONTINUOUS
10
10.3922919999999994
20
-1.1399269999999999
11
11.0589589999999998
21
-2.5684979999999999
0
LINE
8
BLACK
6
CONTINUOUS
10
11.0589589999999998
20
-2.5684979999999999
11
11.7256249999999991
21
-1.1399269999999999
0
LINE
8
BLACK
6
CONTINUOUS
10
11.7256249999999991
20
-1.1399269999999999
11
11.7256249999999991
21
-3.1399269999999997
0
LINE
8
BLACK
6
CONTINUOUS
10
13.5351489999999988
20
-3.1399269999999997
11
13.5351489999999988
21
-2.0923080000000001
0
LINE
8
BLACK
6
CONTINUOUS
10
13.5351489999999988
20
-2.0923080000000001
11
13.4399109999999986
21
-1.9018309999999998
0
LINE
8
BLACK
6
CONTINUOUS
10
13.4399109999999986
20
-1.9018309999999998
11
13.2494350000000001
21
-1.8065929999999999
0
LINE
8
BLACK
6
CONTINUOUS
10
13.2494350000000001
20
-1.8065929999999999
11
12.8684820000000002
21
-1.8065929999999999
0
LINE
8
BLACK
6
CONTINUOUS
10
12.8684820000000002
20
-1.8065929999999999
11
12.6780059999999999
21
-1.9018309999999998
0
LINE
8
BLACK
6
CONTINUOUS
10
13.5351489999999988
20
-3.044689
11
13.3446730000000002
21
-3.1399269999999997
0
LINE
8
BLACK
6
CONTINUOUS
10
13.3446730000000002
20
-3.1399269999999997
11
12.8684820000000002
21
-3.1399269999999997
0
LINE
8
BLACK
6
CONTINUOUS
10
12.8684820000000002
20
-3.1399269999999997
11
12.6780059999999999
21
-3.044689
0
LINE
8
BLACK
6
CONTINUOUS
10
12.6780059999999999
20
-3.044689
11
12.5827679999999997
21
-2.854212
0
LINE
8
BLACK
6
CONTINUOUS
10
12.5827679999999997
20
-2.854212
11
12.5827679999999997
21
-2.6637359999999997
0
LINE
8
BLACK
6
CONTINUOUS
10
12.5827679999999997
20
-2.6637359999999997
11
12.6780059999999999
21
-2.4732599999999998
0
LINE
8
BLACK
6
CONTINUOUS
10
12.6780059999999999
20
-2.4732599999999998
11
12.8684820000000002
21
-2.3780220000000001
0
LINE
8
BLACK
6
CONTINUOUS
10
12.8684820000000002
20
-2.3780220000000001
11
13.3446730000000002
21
-2.3780220000000001
0
LINE
8
BLACK
6
CONTINUOUS
10
13.3446730000000002
20
-2.3780220000000001
11
13.5351489999999988
21
-2.2827839999999999
0
LINE
8
BLACK
6
CONTINUOUS
10
14.4875299999999996
20
-1.8065929999999999
11
14.4875299999999996
21
-3.8065929999999999
0
LINE
8
BLACK
6
CONTINUOUS
10
14.4875299999999996
20
-1.9018309999999998
11
14.6780059999999999
21
-1.8065929999999999
0
LINE
8
BLACK
6
CONTINUOUS
10
14.6780059999999999
20
-1.8065929999999999
11
15.0589589999999998
21
-1.8065929999999999
0
LINE
8
BLACK
6
CONTINUOUS
10
15.0589589999999998
20
-1.8065929999999999
11
15.2494350000000001
21
-1.9018309999999998
0
LINE
8
BLACK
6
CONTINUOUS
10
15.2494350000000001
20
-1.9018309999999998
11
15.3446729999999985
21
-1.997069
0
LINE
8
BLACK
6
CONTINUOUS
10
15.3446729999999985
20
-1.997069
11
15.4399109999999986
21
-2.1875459999999998
0
LINE
8
BLACK
6
CONTINUOUS
10
15.4399109999999986
20
-2.1875459999999998
11
15.4399109999999986
21
-2.7589739999999998
0
LINE
8
BLACK
6
CONTINUOUS
10
15.4399109999999986
20
-2.7589739999999998
11
15.3446729999999985
21
-2.9494499999999997
0
LINE
8
BLACK
6
CONTINUOUS
10
15.3446729999999985
20
-2.9494499999999997
11
15.2494350000000001
21
-3.044689
0
LINE
8
BLACK
6
CONTINUOUS
10
15.2494350000000001
20
-3.044689
11
15.0589589999999998
21
-3.1399269999999997
0
LINE
8
BLACK
6
CONTINUOUS
10
15.0589589999999998
20
-3.1399269999999997
11
14.6780059999999999
21
-3.1399269999999997
0
LINE
8
BLACK
6
CONTINUOUS
10
14.6780059999999999
20
-3.1399269999999997
11
14.4875299999999996
21
-3.044689
0
LINE
8
BLACK
6
CONTINUOUS
10
16.2970539999999993
20
-2.9494499999999997
11
16.3922919999999976
21
-3.044689
0
LINE
8
BLACK
6
CONTINUOUS
10
16.3922919999999976
20
-3.044689
11
16.2970539999999993
21
-3.1399269999999997
0
LINE
8
BLACK
6
CONTINUOUS
10
16.2970539999999993
20
-3.1399269999999997
11
16.2018160000000009
21
-3.044689
0
LINE
8
BLACK
6
CONTINUOUS
10
16.2018160000000009
20
-3.044689
11
16.2970539999999993
21
-2.9494499999999997
0
LINE
8
BLACK
6
CONTINUOUS
10
16.2970539999999993
20
-2.9494499999999997
11
16.2970539999999993
21
-3.1399269999999997
0
LINE
8
BLACK
6
CONTINUOUS
10
16.2970539999999993
20
-1.9018309999999998
11
16.3922919999999976
21
-1.997069
0
LINE
8
BLACK
6
CONTINUOUS
10
16.3922919999999976
20
-1.997069
11
16.2970539999999993
21
-2.0923080000000001
0
LINE
8
BLACK
6
CONTINUOUS
10
16.2970539999999993
20
-2.0923080000000001
11
16.2018160000000009
21
-1.997069
0
LINE
8
BLACK
6
CONTINUOUS
10
16.2018160000000009
20
-1.997069
11
16.2970539999999993
21
-1.9018309999999998
0
LINE
8
BLACK
6
CONTINUOUS
10
16.2970539999999993
20
-1.9018309999999998
11
16.2970539999999993
21
-2.0923080000000001
0
LINE
8
BLACK
6
CONTINUOUS
10
-0.425
20
-6.2250889999999997
11
-0.025
21
-6.625089
0
LINE
8
BLACK
6
CONTINUOUS
10
-0.025
20
-6.2250889999999997
11
-0.425
21
-6.625089
0
LINE
8
BLACK
6
CONTINUOUS
10
2.9637199999999999
20
-5.3399269999999994
11
3.1541969999999999
21
-5.3399269999999994
0
LINE
8
BLACK
6
CONTINUOUS
10
3.1541969999999999
20
-5.3399269999999994
11
3.3446729999999998
21
-5.4351649999999996
0
LINE
8
BLACK
6
CONTINUOUS
10
3.3446729999999998
20
-5.4351649999999996
11
3.4399109999999999
21
-5.5304029999999997
0
LINE
8
BLACK
6
CONTINUOUS
10
3.4399109999999999
20
-5.5304029999999997
11
3.5351489999999997
21
-5.720879
0
LINE
8
BLACK
6
CONTINUOUS
10
3.5351489999999997
20
-5.720879
11
3.6303869999999998
21
-6.1018309999999998
0
LINE
8
BLACK
6
CONTINUOUS
10
3.6303869999999998
20
-6.1018309999999998
11
3.6303869999999998
21
-6.5780219999999998
0
LINE
8
BLACK
6
CONTINUOUS
10
3.6303869999999998
20
-6.5780219999999998
11
3.5351489999999997
21
-6.9589739999999995
0
LINE
8
BLACK
6
CONTINUOUS
10
3.5351489999999997
20
-6.9589739999999995
11
3.4399109999999999
21
-7.1494499999999999
0
LINE
8
BLACK
6
CONTINUOUS
10
3.4399109999999999
20
-7.1494499999999999
11
3.3446729999999998
21
-7.2446889999999993
0
LINE
8
BLACK
6
CONTINUOUS
10
3.3446729999999998
20
-7.2446889999999993
11
3.1541969999999999
21
-7.3399269999999994
0
LINE
8
BLACK
6
CONTINUOUS
10
3.1541969999999999
20
-7.3399269999999994
11
2.9637199999999999
21
-7.3399269999999994
0
LINE
8
BLACK
6
CONTINUOUS
10
2.9637199999999999
20
-7.3399269999999994
11
2.773244
21
-7.2446889999999993
0
LINE
8
BLACK
6
CONTINUOUS
10
2.773244
20
-7.2446889999999993
11
2.6780059999999999
21
-7.1494499999999999
0
LINE
8
BLACK
6
CONTINUOUS
10
2.6780059999999999
20
-7.1494499999999999
11
2.5827679999999997
21
-6.9589739999999995
0
LINE
8
BLACK
6
CONTINUOUS
10
2.5827679999999997
20
-6.9589739999999995
11
2.48753
21
-6.5780219999999998
0
LINE
8
BLACK
6
CONTINUOUS
10
2.48753
20
-6.5780219999999998
11
2.48753
21
-6.1018309999999998
0
LINE
8
BLACK
6
CONTINUOUS
10
2.48753
20
-6.1018309999999998
11
2.5827679999999997
21
-5.720879
0
LINE
8
BLACK
6
CONTINUOUS
10
2.5827679999999997
20
-5.720879
11
2.6780059999999999
21
-5.5304029999999997
0
LINE
8
BLACK
6
CONTINUOUS
10
2.6780059999999999
20
-5.5304029999999997
11
2.773244
21
-5.4351649999999996
0
LINE
8
BLACK
6
CONTINUOUS
10
2.773244
20
-5.4351649999999996
11
2.9637199999999999
21
-5.3399269999999994
0
LINE
8
BLACK
6
CONTINUOUS
10
4.4875299999999996
20
-7.1494499999999999
11
4.5827679999999997
21
-7.2446889999999993
0
LINE
8
BLACK
6
CONTINUOUS
10
4.5827679999999997
20
-7.2446889999999993
11
4.4875299999999996
21
-7.3399269999999994
0
LINE
8
BLACK
6
CONTINUOUS
10
4.4875299999999996
20
-7.3399269999999994
11
4.3922919999999994
21
-7.2446889999999993
0
LINE
8
BLACK
6
CONTINUOUS
10
4.3922919999999994
20
-7.2446889999999993
11
4.4875299999999996
21
-7.1494499999999999
0
LINE
8
BLACK
6
CONTINUOUS
10
4.4875299999999996
20
-7.1494499999999999
11
4.4875299999999996
21
-7.3399269999999994
0
LINE
8
BLACK
6
CONTINUOUS
10
6.2970540000000002
20
-6.0065929999999996
11
6.2970540000000002
21
-7.3399269999999994
0
LINE
8
BLACK
6
CONTINUOUS
10
5.8208630000000001
20
-5.2446890000000002
11
5.3446729999999993
21
-6.67326
0
LINE
8
BLACK
6
CONTINUOUS
10
5.3446729999999993
20
-6.67326
11
6.5827679999999997
21
-6.67326
0
LINE
8
BLACK
6
CONTINUOUS
10
7.725625
20
-5.3399269999999994
11
7.9161019999999995
21
-5.3399269999999994
0
LINE
8
BLACK
6
CONTINUOUS
10
7.9161019999999995
20
-5.3399269999999994
11
8.106577999999999
21
-5.4351649999999996
0
LINE
8
BLACK
6
CONTINUOUS
10
8.106577999999999
20
-5.4351649999999996
11
8.2018159999999991
21
-5.5304029999999997
0
LINE
8
BLACK
6
CONTINUOUS
10
8.2018159999999991
20
-5.5304029999999997
11
8.2970539999999993
21
-5.720879
0
LINE
8
BLACK
6
CONTINUOUS
10
8.2970539999999993
20
-5.720879
11
8.3922919999999994
21
-6.1018309999999998
0
LINE
8
BLACK
6
CONTINUOUS
10
8.3922919999999994
20
-6.1018309999999998
11
8.3922919999999994
21
-6.5780219999999998
0
LINE
8
BLACK
6
CONTINUOUS
10
8.3922919999999994
20
-6.5780219999999998
11
8.2970539999999993
21
-6.9589739999999995
0
LINE
8
BLACK
6
CONTINUOUS
10
8.2970539999999993
20
-6.9589739999999995
11
8.2018159999999991
21
-7.1494499999999999
0
LINE
8
BLACK
6
CONTINUOUS
10
8.2018159999999991
20
-7.1494499999999999
11
8.106577999999999
21
-7.2446889999999993
0
LINE
8
BLACK
6
CONTINUOUS
10
8.106577999999999
20
-7.2446889999999993
11
7.9161019999999995
21
-7.3399269999999994
0
LINE
8
BLACK
6
CONTINUOUS
10
7.9161019999999995
20
-7.3399269999999994
11
7.725625
21
-7.3399269999999994
0
LINE
8
BLACK
6
CONTINUOUS
10
7.725625
20
-7.3399269999999994
11
7.5351489999999997
21
-7.2446889999999993
0
LINE
8
BLACK
6
CONTINUOUS
10
7.5351489999999997
20
-7.2446889999999993
11
7.4399109999999995
21
-7.1494499999999999
0
LINE
8
BLACK
6
CONTINUOUS
10
7.4399109999999995
20
-7.1494499999999999
11
7.3446729999999993
21
-6.9589739999999995
0
LINE
8
BLACK
6
CONTINUOUS
10
7.3446729999999993
20
-6.9589739999999995
11
7.2494350000000001
21
-6.5780219999999998
0
LINE
8
BLACK
6
CONTINUOUS
10
7.2494350000000001
20
-6.5780219999999998
11
7.2494350000000001
21
-6.1018309999999998
0
LINE
8
BLACK
6
CONTINUOUS
10
7.2494350000000001
20
-6.1018309999999998
11
7.3446729999999993
21
-5.720879
0
LINE
8
BLACK
6
CONTINUOUS
10
7.3446729999999993
20
-5.720879
11
7.4399109999999995
21
-5.5304029999999997
0
LINE
8
BLACK
6
CONTINUOUS
10
7.4399109999999995
20
-5.5304029999999997
11
7.5351489999999997
21
-5.4351649999999996
0
LINE
8
BLACK
6
CONTINUOUS
10
7.5351489999999997
20
-5.4351649999999996
11
7.725625
21
-5.3399269999999994
0
LINE
8
BLACK
6
CONTINUOUS
10
9.6303869999999989
20
-5.3399269999999994
11
9.8208640000000003
21
-5.3399269999999994
0
LINE
8
BLACK
6
CONTINUOUS
10
9.8208640000000003
20
-5.3399269999999994
11
10.0113399999999988
21
-5.4351649999999996
0
LINE
8
BLACK
6
CONTINUOUS
10
10.0113399999999988
20
-5.4351649999999996
11
10.106577999999999
21
-5.5304029999999997
0
LINE
8
BLACK
6
CONTINUOUS
10
10.106577999999999
20
-5.5304029999999997
11
10.2018159999999991
21
-5.720879
0
LINE
8
BLACK
6
CONTINUOUS
10
10.2018159999999991
20
-5.720879
11
10.2970539999999993
21
-6.1018309999999998
0
LINE
8
BLACK
6
CONTINUOUS
10
10.2970539999999993
20
-6.1018309999999998
11
10.2970539999999993
21
-6.5780219999999998
0
LINE
8
BLACK
6
CONTINUOUS
10
10.2970539999999993
20
-6.5780219999999998
11
10.2018159999999991
21
-6.9589739999999995
0
LINE
8
BLACK
6
CONTINUOUS
10
10.2018159999999991
20
-6.9589739999999995
11
10.106577999999999
21
-7.1494499999999999
0
LINE
8
BLACK
6
CONTINUOUS
10
10.106577999999999
20
-7.1494499999999999
11
10.0113399999999988
21
-7.2446889999999993
0
LINE
8
BLACK
6
CONTINUOUS
10
10.0113399999999988
20
-7.2446889999999993
11
9.8208640000000003
21
-7.3399269999999994
0
LINE
8
BLACK
6
CONTINUOUS
10
9.8208640000000003
20
-7.3399269999999994
11
9.6303869999999989
21
-7.3399269999999994
0
LINE
8
BLACK
6
CONTINUOUS
10
9.6303869999999989
20
-7.3399269999999994
11
9.4399110000000004
21
-7.2446889999999993
0
LINE
8
BLACK
6
CONTINUOUS
10
9.4399110000000004
20
-7.2446889999999993
11
9.3446730000000002
21
-7.1494499999999999
0
LINE
8
BLACK
6
CONTINUOUS
10
9.3446730000000002
20
-7.1494499999999999
11
9.2494350000000001
21
-6.9589739999999995
0
LINE
8
BLACK
6
CONTINUOUS
10
9.2494350000000001
20
-6.9589739999999995
11
9.1541969999999999
21
-6.5780219999999998
0
LINE
8
BLACK
6
CONTINUOUS
10
9.1541969999999999
20
-6.5780219999999998
11
9.1541969999999999
21
-6.1018309999999998
0
LINE
8
BLACK
6
CONTINUOUS
10
9.1541969999999999
20
-6.1018309999999998
11
9.2494350000000001
21
-5.720879
0
LINE
8
BLACK
6
CONTINUOUS
10
9.2494350000000001
20
-5.720879
11
9.3446730000000002
21
-5.5304029999999997
0
LINE
8
BLACK
6
CONTINUOUS
10
9.3446730000000002
20
-5.5304029999999997
11
9.4399110000000004
21
-5.4351649999999996
0
LINE
8
BLACK
6
CONTINUOUS
10
9.4399110000000004
20
-5.4351649999999996
11
9.6303869999999989
21
-5.3399269999999994
0
LINE
8
BLACK
6
CONTINUOUS
10
11.1541969999999999
20
-7.3399269999999994
11
11.1541969999999999
21
-6.0065929999999996
0
LINE
8
BLACK
6
CONTINUOUS
10
11.1541969999999999
20
-6.1970689999999999
11
11.2494350000000001
21
-6.1018309999999998
0
LINE
8
BLACK
6
CONTINUOUS
10
11.2494350000000001
20
-6.1018309999999998
11
11.4399109999999986
21
-6.0065929999999996
0
LINE
8
BLACK
6
CONTINUOUS
10
11.4399109999999986
20
-6.0065929999999996
11
11.7256260000000001
21
-6.0065929999999996
0
LINE
8
BLACK
6
CONTINUOUS
10
11.7256260000000001
20
-6.0065929999999996
11
11.9161019999999986
21
-6.1018309999999998
0
LINE
8
BLACK
6
CONTINUOUS
10
11.9161019999999986
20
-6.1018309999999998
11
12.0113399999999988
21
-6.2923079999999993
0
LINE
8
BLACK
6
CONTINUOUS
10
12.0113399999999988
20
-6.2923079999999993
11
12.0113399999999988
21
-7.3399269999999994
0
LINE
8
BLACK
6
CONTINUOUS
10
12.0113399999999988
20
-6.2923079999999993
11
12.106577999999999
21
-6.1018309999999998
0
LINE
8
BLACK
6
CONTINUOUS
10
12.106577999999999
20
-6.1018309999999998
11
12.2970539999999993
21
-6.0065929999999996
0
LINE
8
BLACK
6
CONTINUOUS
10
12.2970539999999993
20
-6.0065929999999996
11
12.5827679999999997
21
-6.0065929999999996
0
LINE
8
BLACK
6
CONTINUOUS
10
12.5827679999999997
20
-6.0065929999999996
11
12.7732449999999993
21
-6.1018309999999998
0
LINE
8
BLACK
6
CONTINUOUS
10
12.7732449999999993
20
-6.1018309999999998
11
12.8684829999999994
21
-6.2923079999999993
0
LINE
8
BLACK
6
CONTINUOUS
10
12.8684829999999994
20
-6.2923079999999993
11
12.8684829999999994
21
-7.3399269999999994
0
LINE
8
BLACK
6
CONTINUOUS
10
13.8208640000000003
20
-7.3399269999999994
11
13.8208640000000003
21
-6.0065929999999996
0
LINE
8
BLACK
6
CONTINUOUS
10
13.8208640000000003
20
-6.1970689999999999
11
13.9161019999999986
21
-6.1018309999999998
0
LINE
8
BLACK
6
CONTINUOUS
10
13.9161019999999986
20
-6.1018309999999998
11
14.106577999999999
21
-6.0065929999999996
0
LINE
8
BLACK
6
CONTINUOUS
10
14.106577999999999
20
-6.0065929999999996
11
14.3922929999999987
21
-6.0065929999999996
0
LINE
8
BLACK
6
CONTINUOUS
10
14.3922929999999987
20
-6.0065929999999996
11
14.582768999999999
21
-6.1018309999999998
0
LINE
8
BLACK
6
CONTINUOUS
10
14.582768999999999
20
-6.1018309999999998
11
14.6780069999999991
21
-6.2923079999999993
0
LINE
8
BLACK
6
CONTINUOUS
10
14.6780069999999991
20
-6.2923079999999993
11
14.6780069999999991
21
-7.3399269999999994
0
LINE
8
BLACK
6
CONTINUOUS
10
14.6780069999999991
20
-6.2923079999999993
11
14.7732449999999993
21
-6.1018309999999998
0
LINE
8
BLACK
6
CONTINUOUS
10
14.7732449999999993
20
-6.1018309999999998
11
14.9637209999999996
21
-6.0065929999999996
0
LINE
8
BLACK
6
CONTINUOUS
10
14.9637209999999996
20
-6.0065929999999996
11
15.2494350000000001
21
-6.0065929999999996
0
LINE
8
BLACK
6
CONTINUOUS
10
15.2494350000000001
20
-6.0065929999999996
11
15.4399119999999996
21
-6.1018309999999998
0
LINE
8
BLACK
6
CONTINUOUS
10
15.4399119999999996
20
-6.1018309999999998
11
15.5351499999999998
21
-6.2923079999999993
0
LINE
8
BLACK
6
CONTINUOUS
10
15.5351499999999998
20
-6.2923079999999993
11
15.5351499999999998
21
-7.3399269999999994
0
LINE
8
BLACK
6
CONTINUOUS
10
19.4399119999999996
20
-5.2446890000000002
11
17.7256269999999994
21
-7.8161169999999993
0
LINE
8
BLACK
6
CONTINUOUS
10
22.011340999999998
20
-5.3399269999999994
11
22.2018179999999994
21
-5.3399269999999994
0
LINE
8
BLACK
6
CONTINUOUS
10
22.2018179999999994
20
-5.3399269999999994
11
22.3922939999999997
21
-5.4351649999999996
0
LINE
8
BLACK
6
CONTINUOUS
10
22.3922939999999997
20
-5.4351649999999996
11
22.4875319999999981
21
-5.5304029999999997
0
LINE
8
BLACK
6
CONTINUOUS
10
22.4875319999999981
20
-5.5304029999999997
11
22.58277
21
-5.720879
0
LINE
8
BLACK
6
CONTINUOUS
10
22.58277
20
-5.720879
11
22.6780079999999984
21
-6.1018309999999998
0
LINE
8
BLACK
6
CONTINUOUS
10
22.6780079999999984
20
-6.1018309999999998
11
22.6780079999999984
21
-6.5780219999999998
0
LINE
8
BLACK
6
CONTINUOUS
10
22.6780079999999984
20
-6.5780219999999998
11
22.58277
21
-6.9589739999999995
0
LINE
8
BLACK
6
CONTINUOUS
10
22.58277
20
-6.9589739999999995
11
22.4875319999999981
21
-7.1494499999999999
0
LINE
8
BLACK
6
CONTINUOUS
10
22.4875319999999981
20
-7.1494499999999999
11
22.3922939999999997
21
-7.2446889999999993
0
LINE
8
BLACK
6
CONTINUOUS
10
22.3922939999999997
20
-7.2446889999999993
11
22.2018179999999994
21
-7.3399269999999994
0
LINE
8
BLACK
6
CONTINUOUS
10
22.2018179999999994
20
-7.3399269999999994
11
22.011340999999998
21
-7.3399269999999994
0
LINE
8
BLACK
6
CONTINUOUS
10
22.011340999999998
20
-7.3399269999999994
11
21.8208649999999977
21
-7.2446889999999993
0
LINE
8
BLACK
6
CONTINUOUS
10
21.8208649999999977
20
-7.2446889999999993
11
21.7256269999999994
21
-7.1494499999999999
0
LINE
8
BLACK
6
CONTINUOUS
10
21.7256269999999994
20
-7.1494499999999999
11
21.6303889999999974
21
-6.9589739999999995
0
LINE
8
BLACK
6
CONTINUOUS
10
21.6303889999999974
20
-6.9589739999999995
11
21.535150999999999
21
-6.5780219999999998
0
LINE
8
BLACK
6
CONTINUOUS
10
21.535150999999999
20
-6.5780219999999998
11
21.535150999999999
21
-6.1018309999999998
0
LINE
8
BLACK
6
CONTINUOUS
10
21.535150999999999
20
-6.1018309999999998
11
21.6303889999999974
21
-5.720879
0
LINE
8
BLACK
6
CONTINUOUS
10
21.6303889999999974
20
-5.720879
11
21.7256269999999994
21
-5.5304029999999997
0
LINE
8
BLACK
6
CONTINUOUS
10
21.7256269999999994
20
-5.5304029999999997
11
21.8208649999999977
21
-5.4351649999999996
0
LINE
8
BLACK
6
CONTINUOUS
10
21.8208649999999977
20
-5.4351649999999996
11
22.011340999999998
21
-5.3399269999999994
0
LINE
8
BLACK
6
CONTINUOUS
10
23.535150999999999
20
-7.1494499999999999
11
23.6303889999999974
21
-7.2446889999999993
0
LINE
8
BLACK
6
CONTINUOUS
10
23.6303889999999974
20
-7.2446889999999993
11
23.535150999999999
21
-7.3399269999999994
0
LINE
8
BLACK
6
CONTINUOUS
10
23.535150999999999
20
-7.3399269999999994
11
23.4399130000000007
21
-7.2446889999999993
0
LINE
8
BLACK
6
CONTINUOUS
10
23.4399130000000007
20
-7.2446889999999993
11
23.535150999999999
21
-7.1494499999999999
0
LINE
8
BLACK
6
CONTINUOUS
10
23.535150999999999
20
-7.1494499999999999
11
23.535150999999999
21
-7.3399269999999994
0
LINE
8
BLACK
6
CONTINUOUS
10
24.8684839999999987
20
-5.3399269999999994
11
25.058961
21
-5.3399269999999994
0
LINE
8
BLACK
6
CONTINUOUS
10
25.058961
20
-5.3399269999999994
11
25.2494370000000004
21
-5.4351649999999996
0
LINE
8
BLACK
6
CONTINUOUS
10
25.2494370000000004
20
-5.4351649999999996
11
25.3446749999999987
21
-5.5304029999999997
0
LINE
8
BLACK
6
CONTINUOUS
10
25.3446749999999987
20
-5.5304029999999997
11
25.4399129999999971
21
-5.720879
0
LINE
8
BLACK
6
CONTINUOUS
10
25.4399129999999971
20
-5.720879
11
25.535150999999999
21
-6.1018309999999998
0
LINE
8
BLACK
6
CONTINUOUS
10
25.535150999999999
20
-6.1018309999999998
11
25.535150999999999
21
-6.5780219999999998
0
LINE
8
BLACK
6
CONTINUOUS
10
25.535150999999999
20
-6.5780219999999998
11
25.4399129999999971
21
-6.9589739999999995
0
LINE
8
BLACK
6
CONTINUOUS
10
25.4399129999999971
20
-6.9589739999999995
11
25.3446749999999987
21
-7.1494499999999999
0
LINE
8
BLACK
6
CONTINUOUS
10
25.3446749999999987
20
-7.1494499999999999
11
25.2494370000000004
21
-7.2446889999999993
0
LINE
8
BLACK
6
CONTINUOUS
10
25.2494370000000004
20
-7.2446889999999993
11
25.058961
21
-7.3399269999999994
0
LINE
8
BLACK
6
CONTINUOUS
10
25.058961
20
-7.3399269999999994
11
24.8684839999999987
21
-7.3399269999999994
0
LINE
8
BLACK
6
CONTINUOUS
10
24.8684839999999987
20
-7.3399269999999994
11
24.6780079999999984
21
-7.2446889999999993
0
LINE
8
BLACK
6
CONTINUOUS
10
24.6780079999999984
20
-7.2446889999999993
11
24.58277
21
-7.1494499999999999
0
LINE
8
BLACK
6
CONTINUOUS
10
24.58277
20
-7.1494499999999999
11
24.4875319999999981
21
-6.9589739999999995
0
LINE
8
BLACK
6
CONTINUOUS
10
24.4875319999999981
20
-6.9589739999999995
11
24.3922939999999997
21
-6.5780219999999998
0
LINE
8
BLACK
6
CONTINUOUS
10
24.3922939999999997
20
-6.5780219999999998
11
24.3922939999999997
21
-6.1018309999999998
0
LINE
8
BLACK
6
CONTINUOUS
10
24.3922939999999997
20
-6.1018309999999998
11
24.4875319999999981
21
-5.720879
0
LINE
8
BLACK
6
CONTINUOUS
10
24.4875319999999981
20
-5.720879
11
24.58277
21
-5.5304029999999997
0
LINE
8
BLACK
6
CONTINUOUS
10
24.58277
20
-5.5304029999999997
11
24.6780079999999984
21
-5.4351649999999996
0
LINE
8
BLACK
6
CONTINUOUS
10
24.6780079999999984
20
-5.4351649999999996
11
24.8684839999999987
21
-5.3399269999999994
0
LINE
8
BLACK
6
CONTINUOUS
10
27.4399129999999971
20
-7.3399269999999994
11
26.2970559999999978
21
-7.3399269999999994
0
LINE
8
BLACK
6
CONTINUOUS
10
26.8684839999999987
20
-7.3399269999999994
11
26.8684839999999987
21
-5.3399269999999994
0
LINE
8
BLACK
6
CONTINUOUS
10
26.8684839999999987
20
-5.3399269999999994
11
26.6780079999999984
21
-5.6256409999999999
0
LINE
8
BLACK
6
CONTINUOUS
10
26.6780079999999984
20
-5.6256409999999999
11
26.4875319999999981
21
-5.8161169999999993
0
LINE
8
BLACK
6
CONTINUOUS
10
26.4875319999999981
20
-5.8161169999999993
11
26.2970559999999978
21
-5.9113549999999995
0
LINE
8
BLACK
6
CONTINUOUS
10
29.2494370000000004
20
-5.3399269999999994
11
28.2970559999999978
21
-5.3399269999999994
0
LINE
8
BLACK
6
CONTINUOUS
10
28.2970559999999978
20
-5.3399269999999994
11
28.2018179999999994
21
-6.2923079999999993
0
LINE
8
BLACK
6
CONTINUOUS
10
28.2018179999999994
20
-6.2923079999999993
11
28.2970559999999978
21
-6.1970689999999999
0
LINE
8
BLACK
6
CONTINUOUS
10
28.2970559999999978
20
-6.1970689999999999
11
28.4875319999999981
21
-6.1018309999999998
0
LINE
8
BLACK
6
CONTINUOUS
10
28.4875319999999981
20
-6.1018309999999998
11
28.9637229999999981
21
-6.1018309999999998
0
LINE
8
BLACK
6
CONTINUOUS
10
28.9637229999999981
20
-6.1018309999999998
11
29.1541989999999984
21
-6.1970689999999999
0
LINE
8
BLACK
6
CONTINUOUS
10
29.1541989999999984
20
-6.1970689999999999
11
29.2494370000000004
21
-6.2923079999999993
0
LINE
8
BLACK
6
CONTINUOUS
10
29.2494370000000004
20
-6.2923079999999993
11
29.3446749999999987
21
-6.4827839999999997
0
LINE
8
BLACK
6
CONTINUOUS
10
29.3446749999999987
20
-6.4827839999999997
11
29.3446749999999987
21
-6.9589739999999995
0
LINE
8
BLACK
6
CONTINUOUS
10
29.3446749999999987
20
-6.9589739999999995
11
29.2494370000000004
21
-7.1494499999999999
0
LINE
8
BLACK
6
CONTINUOUS
10
29.2494370000000004
20
-7.1494499999999999
11
29.1541989999999984
21
-7.2446889999999993
0
LINE
8
BLACK
6
CONTINUOUS
10
29.1541989999999984
20
-7.2446889999999993
11
28.9637229999999981
21
-7.3399269999999994
0
LINE
8
BLACK
6
CONTINUOUS
10
28.9637229999999981
20
-7.3399269999999994
11
28.4875319999999981
21
-7.3399269999999994
0
LINE
8
BLACK
6
CONTINUOUS
10
28.4875319999999981
20
-7.3399269999999994
11
28.2970559999999978
21
-7.2446889999999993
0
LINE
8
BLACK
6
CONTINUOUS
10
28.2970559999999978
20
-7.2446889999999993
11
28.2018179999999994
21
-7.1494499999999999
0
LINE
8
BLACK
6
CONTINUOUS
10
30.0113419999999991
20
-5.3399269999999994
11
31.3446749999999987
21
-5.3399269999999994
0
LINE
8
BLACK
6
CONTINUOUS
10
31.3446749999999987
20
-5.3399269999999994
11
30.4875319999999981
21
-7.3399269999999994
0
LINE
8
BLACK
6
CONTINUOUS
10
32.0113419999999991
20
-5.3399269999999994
11
32.0113419999999991
21
-5.720879
0
LINE
8
BLACK
6
CONTINUOUS
10
32.7732469999999978
20
-5.3399269999999994
11
32.7732469999999978
21
-5.720879
0
LINE
8
BLACK
6
CONTINUOUS
10
35.7256289999999979
20
-8.1018309999999989
11
35.6303899999999985
21
-8.0065930000000005
0
LINE
8
BLACK
6
CONTINUOUS
10
35.6303899999999985
20
-8.0065930000000005
11
35.4399140000000017
21
-7.720879
0
LINE
8
BLACK
6
CONTINUOUS
10
35.4399140000000017
20
-7.720879
11
35.3446759999999998
21
-7.5304029999999997
0
LINE
8
BLACK
6
CONTINUOUS
10
35.3446759999999998
20
-7.5304029999999997
11
35.2494379999999978
21
-7.2446889999999993
0
LINE
8
BLACK
6
CONTINUOUS
10
35.2494379999999978
20
-7.2446889999999993
11
35.1541999999999959
21
-6.7684980000000001
0
LINE
8
BLACK
6
CONTINUOUS
10
35.1541999999999959
20
-6.7684980000000001
11
35.1541999999999959
21
-6.3875459999999995
0
LINE
8
BLACK
6
CONTINUOUS
10
35.1541999999999959
20
-6.3875459999999995
11
35.2494379999999978
21
-5.9113549999999995
0
LINE
8
BLACK
6
CONTINUOUS
10
35.2494379999999978
20
-5.9113549999999995
11
35.3446759999999998
21
-5.6256409999999999
0
LINE
8
BLACK
6
CONTINUOUS
10
35.3446759999999998
20
-5.6256409999999999
11
35.4399140000000017
21
-5.4351649999999996
0
LINE
8
BLACK
6
CONTINUOUS
10
35.4399140000000017
20
-5.4351649999999996
11
35.6303899999999985
21
-5.1494499999999999
0
LINE
8
BLACK
6
CONTINUOUS
10
35.6303899999999985
20
-5.1494499999999999
11
35.7256289999999979
21
-5.0542119999999997
0
LINE
8
BLACK
6
CONTINUOUS
10
37.5351519999999965
20
-7.3399269999999994
11
36.3922949999999972
21
-7.3399269999999994
0
LINE
8
BLACK
6
CONTINUOUS
10
36.9637230000000017
20
-7.3399269999999994
11
36.9637230000000017
21
-5.3399269999999994
0
LINE
8
BLACK
6
CONTINUOUS
10
36.9637230000000017
20
-5.3399269999999994
11
36.7732469999999978
21
-5.6256409999999999
0
LINE
8
BLACK
6
CONTINUOUS
10
36.7732469999999978
20
-5.6256409999999999
11
36.582771000000001
21
-5.8161169999999993
0
LINE
8
BLACK
6
CONTINUOUS
10
36.582771000000001
20
-5.8161169999999993
11
36.3922949999999972
21
-5.9113549999999995
0
LINE
8
BLACK
6
CONTINUOUS
10
38.6780089999999959
20
-6.1970689999999999
11
38.4875329999999991
21
-6.1018309999999998
0
LINE
8
BLACK
6
CONTINUOUS
10
38.4875329999999991
20
-6.1018309999999998
11
38.3922949999999972
21
-6.0065929999999996
0
LINE
8
BLACK
6
CONTINUOUS
10
38.3922949999999972
20
-6.0065929999999996
11
38.2970569999999952
21
-5.8161169999999993
0
LINE
8
BLACK
6
CONTINUOUS
10
38.2970569999999952
20
-5.8161169999999993
11
38.2970569999999952
21
-5.720879
0
LINE
8
BLACK
6
CONTINUOUS
10
38.2970569999999952
20
-5.720879
11
38.3922949999999972
21
-5.5304029999999997
0
LINE
8
BLACK
6
CONTINUOUS
10
38.3922949999999972
20
-5.5304029999999997
11
38.4875329999999991
21
-5.4351649999999996
0
LINE
8
BLACK
6
CONTINUOUS
10
38.4875329999999991
20
-5.4351649999999996
11
38.6780089999999959
21
-5.3399269999999994
0
LINE
8
BLACK
6
CONTINUOUS
10
38.6780089999999959
20
-5.3399269999999994
11
39.0589620000000011
21
-5.3399269999999994
0
LINE
8
BLACK
6
CONTINUOUS
10
39.0589620000000011
20
-5.3399269999999994
11
39.2494379999999978
21
-5.4351649999999996
0
LINE
8
BLACK
6
CONTINUOUS
10
39.2494379999999978
20
-5.4351649999999996
11
39.3446759999999998
21
-5.5304029999999997
0
LINE
8
BLACK
6
CONTINUOUS
10
39.3446759999999998
20
-5.5304029999999997
11
39.4399140000000017
21
-5.720879
0
LINE
8
BLACK
6
CONTINUOUS
10
39.4399140000000017
20
-5.720879
11
39.4399140000000017
21
-5.8161169999999993
0
LINE
8
BLACK
6
CONTINUOUS
10
39.4399140000000017
20
-5.8161169999999993
11
39.3446759999999998
21
-6.0065929999999996
0
LINE
8
BLACK
6
CONTINUOUS
10
39.3446759999999998
20
-6.0065929999999996
11
39.2494379999999978
21
-6.1018309999999998
0
LINE
8
BLACK
6
CONTINUOUS
10
39.2494379999999978
20
-6.1018309999999998
11
39.0589620000000011
21
-6.1970689999999999
0
LINE
8
BLACK
6
CONTINUOUS
10
39.0589620000000011
20
-6.1970689999999999
11
38.6780089999999959
21
-6.1970689999999999
0
LINE
8
BLACK
6
CONTINUOUS
10
38.6780089999999959
20
-6.1970689999999999
11
38.4875329999999991
21
-6.2923079999999993
0
LINE
8
BLACK
6
CONTINUOUS
10
38.4875329999999991
20
-6.2923079999999993
11
38.3922949999999972
21
-6.3875459999999995
0
LINE
8
BLACK
6
CONTINUOUS
10
38.3922949999999972
20
-6.3875459999999995
11
38.2970569999999952
21
-6.5780219999999998
0
LINE
8
BLACK
6
CONTINUOUS
10
38.2970569999999952
20
-6.5780219999999998
11
38.2970569999999952
21
-6.9589739999999995
0
LINE
8
BLACK
6
CONTINUOUS
10
38.2970569999999952
20
-6.9589739999999995
11
38.3922949999999972
21
-7.1494499999999999
0
LINE
8
BLACK
6
CONTINUOUS
10
38.3922949999999972
20
-7.1494499999999999
11
38.4875329999999991
21
-7.2446889999999993
0
LINE
8
BLACK
6
CONTINUOUS
10
38.4875329999999991
20
-7.2446889999999993
11
38.6780089999999959
21
-7.3399269999999994
0
LINE
8
BLACK
6
CONTINUOUS
10
38.6780089999999959
20
-7.3399269999999994
11
39.0589620000000011
21
-7.3399269999999994
0
LINE
8
BLACK
6
CONTINUOUS
10
39.0589620000000011
20
-7.3399269999999994
11
39.2494379999999978
21
-7.2446889999999993
0
LINE
8
BLACK
6
CONTINUOUS
10
39.2494379999999978
20
-7.2446889999999993
11
39.3446759999999998
21
-7.1494499999999999
0
LINE
8
BLACK
6
CONTINUOUS
10
39.3446759999999998
20
-7.1494499999999999
11
39.4399140000000017
21
-6.9589739999999995
0
LINE
8
BLACK
6
CONTINUOUS
10
39.4399140000000017
20
-6.9589739999999995
11
39.4399140000000017
21
-6.5780219999999998
0
LINE
8
BLACK
6
CONTINUOUS
10
39.4399140000000017
20
-6.5780219999999998
11
39.3446759999999998
21
-6.3875459999999995
0
LINE
8
BLACK
6
CONTINUOUS
10
39.3446759999999998
20
-6.3875459999999995
11
39.2494379999999978
21
-6.2923079999999993
0
LINE
8
BLACK
6
CONTINUOUS
10
39.2494379999999978
20
-6.2923079999999993
11
39.0589620000000011
21
-6.1970689999999999
0
LINE
8
BLACK
6
CONTINUOUS
10
40.1065809999999985
20
-5.3399269999999994
11
41.3446759999999998
21
-5.3399269999999994
0
LINE
8
BLACK
6
CONTINUOUS
10
41.3446759999999998
20
-5.3399269999999994
11
40.6780089999999959
21
-6.1018309999999998
0
LINE
8
BLACK
6
CONTINUOUS
10
40.6780089999999959
20
-6.1018309999999998
11
40.9637239999999991
21
-6.1018309999999998
0
LINE
8
BLACK
6
CONTINUOUS
10
40.9637239999999991
20
-6.1018309999999998
11
41.1541999999999959
21
-6.1970689999999999
0
LINE
8
BLACK
6
CONTINUOUS
10
41.1541999999999959
20
-6.1970689999999999
11
41.2494379999999978
21
-6.2923079999999993
0
LINE
8
BLACK
6
CONTINUOUS
10
41.2494379999999978
20
-6.2923079999999993
11
41.3446759999999998
21
-6.4827839999999997
0
LINE
8
BLACK
6
CONTINUOUS
10
41.3446759999999998
20
-6.4827839999999997
11
41.3446759999999998
21
-6.9589739999999995
0
LINE
8
BLACK
6
CONTINUOUS
10
41.3446759999999998
20
-6.9589739999999995
11
41.2494379999999978
21
-7.1494499999999999
0
LINE
8
BLACK
6
CONTINUOUS
10
41.2494379999999978
20
-7.1494499999999999
11
41.1541999999999959
21
-7.2446889999999993
0
LINE
8
BLACK
6
CONTINUOUS
10
41.1541999999999959
20
-7.2446889999999993
11
40.9637239999999991
21
-7.3399269999999994
0
LINE
8
BLACK
6
CONTINUOUS
10
40.9637239999999991
20
-7.3399269999999994
11
40.3922949999999972
21
-7.3399269999999994
0
LINE
8
BLACK
6
CONTINUOUS
10
40.3922949999999972
20
-7.3399269999999994
11
40.2018190000000004
21
-7.2446889999999993
0
LINE
8
BLACK
6
CONTINUOUS
10
40.2018190000000004
20
-7.2446889999999993
11
40.1065809999999985
21
-7.1494499999999999
0
LINE
8
BLACK
6
CONTINUOUS
10
43.7256289999999979
20
-7.3399269999999994
11
43.7256289999999979
21
-5.3399269999999994
0
LINE
8
BLACK
6
CONTINUOUS
10
44.5827719999999985
20
-7.3399269999999994
11
44.5827719999999985
21
-6.2923079999999993
0
LINE
8
BLACK
6
CONTINUOUS
10
44.5827719999999985
20
-6.2923079999999993
11
44.4875339999999966
21
-6.1018309999999998
0
LINE
8
BLACK
6
CONTINUOUS
10
44.4875339999999966
20
-6.1018309999999998
11
44.2970579999999998
21
-6.0065929999999996
0
LINE
8
BLACK
6
CONTINUOUS
10
44.2970579999999998
20
-6.0065929999999996
11
44.0113429999999966
21
-6.0065929999999996
0
LINE
8
BLACK
6
CONTINUOUS
10
44.0113429999999966
20
-6.0065929999999996
11
43.8208669999999998
21
-6.1018309999999998
0
LINE
8
BLACK
6
CONTINUOUS
10
43.8208669999999998
20
-6.1018309999999998
11
43.7256289999999979
21
-6.1970689999999999
0
LINE
8
BLACK
6
CONTINUOUS
10
45.8208669999999998
20
-7.3399269999999994
11
45.6303909999999959
21
-7.2446889999999993
0
LINE
8
BLACK
6
CONTINUOUS
10
45.6303909999999959
20
-7.2446889999999993
11
45.5351530000000011
21
-7.1494499999999999
0
LINE
8
BLACK
6
CONTINUOUS
10
45.5351530000000011
20
-7.1494499999999999
11
45.4399149999999992
21
-6.9589739999999995
0
LINE
8
BLACK
6
CONTINUOUS
10
45.4399149999999992
20
-6.9589739999999995
11
45.4399149999999992
21
-6.3875459999999995
0
LINE
8
BLACK
6
CONTINUOUS
10
45.4399149999999992
20
-6.3875459999999995
11
45.5351530000000011
21
-6.1970689999999999
0
LINE
8
BLACK
6
CONTINUOUS
10
45.5351530000000011
20
-6.1970689999999999
11
45.6303909999999959
21
-6.1018309999999998
0
LINE
8
BLACK
6
CONTINUOUS
10
45.6303909999999959
20
-6.1018309999999998
11
45.8208669999999998
21
-6.0065929999999996
0
LINE
8
BLACK
6
CONTINUOUS
10
45.8208669999999998
20
-6.0065929999999996
11
46.106581999999996
21
-6.0065929999999996
0
LINE
8
BLACK
6
CONTINUOUS
10
46.106581999999996
20
-6.0065929999999996
11
46.2970579999999998
21
-6.1018309999999998
0
LINE
8
BLACK
6
CONTINUOUS
10
46.2970579999999998
20
-6.1018309999999998
11
46.3922959999999946
21
-6.1970689999999999
0
LINE
8
BLACK
6
CONTINUOUS
10
46.3922959999999946
20
-6.1970689999999999
11
46.4875339999999966
21
-6.3875459999999995
0
LINE
8
BLACK
6
CONTINUOUS
10
46.4875339999999966
20
-6.3875459999999995
11
46.4875339999999966
21
-6.9589739999999995
0
LINE
8
BLACK
6
CONTINUOUS
10
46.4875339999999966
20
-6.9589739999999995
11
46.3922959999999946
21
-7.1494499999999999
0
LINE
8
BLACK
6
CONTINUOUS
10
46.3922959999999946
20
-7.1494499999999999
11
46.2970579999999998
21
-7.2446889999999993
0
LINE
8
BLACK
6
CONTINUOUS
10
46.2970579999999998
20
-7.2446889999999993
11
46.106581999999996
21
-7.3399269999999994
0
LINE
8
BLACK
6
CONTINUOUS
10
46.106581999999996
20
-7.3399269999999994
11
45.8208669999999998
21
-7.3399269999999994
0
LINE
8
BLACK
6
CONTINUOUS
10
47.6303909999999959
20
-7.3399269999999994
11
47.4399149999999992
21
-7.2446889999999993
0
LINE
8
BLACK
6
CONTINUOUS
10
47.4399149999999992
20
-7.2446889999999993
11
47.3446769999999972
21
-7.0542119999999997
0
LINE
8
BLACK
6
CONTINUOUS
10
47.3446769999999972
20
-7.0542119999999997
11
47.3446769999999972
21
-5.3399269999999994
0
LINE
8
BLACK
6
CONTINUOUS
10
49.1542010000000005
20
-7.2446889999999993
11
48.9637249999999966
21
-7.3399269999999994
0
LINE
8
BLACK
6
CONTINUOUS
10
48.9637249999999966
20
-7.3399269999999994
11
48.5827719999999985
21
-7.3399269999999994
0
LINE
8
BLACK
6
CONTINUOUS
10
48.5827719999999985
20
-7.3399269999999994
11
48.3922959999999946
21
-7.2446889999999993
0
LINE
8
BLACK
6
CONTINUOUS
10
48.3922959999999946
20
-7.2446889999999993
11
48.2970579999999998
21
-7.0542119999999997
0
LINE
8
BLACK
6
CONTINUOUS
10
48.2970579999999998
20
-7.0542119999999997
11
48.2970579999999998
21
-6.2923079999999993
0
LINE
8
BLACK
6
CONTINUOUS
10
48.2970579999999998
20
-6.2923079999999993
11
48.3922959999999946
21
-6.1018309999999998
0
LINE
8
BLACK
6
CONTINUOUS
10
48.3922959999999946
20
-6.1018309999999998
11
48.5827719999999985
21
-6.0065929999999996
0
LINE
8
BLACK
6
CONTINUOUS
10
48.5827719999999985
20
-6.0065929999999996
11
48.9637249999999966
21
-6.0065929999999996
0
LINE
8
BLACK
6
CONTINUOUS
10
48.9637249999999966
20
-6.0065929999999996
11
49.1542010000000005
21
-6.1018309999999998
0
LINE
8
BLACK
6
CONTINUOUS
10
49.1542010000000005
20
-6.1018309999999998
11
49.2494389999999953
21
-6.2923079999999993
0
LINE
8
BLACK
6
CONTINUOUS
10
49.2494389999999953
20
-6.2923079999999993
11
49.2494389999999953
21
-6.4827839999999997
0
LINE
8
BLACK
6
CONTINUOUS
10
49.2494389999999953
20
-6.4827839999999997
11
48.2970579999999998
21
-6.67326
0
LINE
8
BLACK
6
CONTINUOUS
10
50.0113440000000011
20
-7.2446889999999993
11
50.2018199999999979
21
-7.3399269999999994
0
LINE
8
BLACK
6
CONTINUOUS
10
50.2018199999999979
20
-7.3399269999999994
11
50.5827719999999985
21
-7.3399269999999994
0
LINE
8
BLACK
6
CONTINUOUS
10
50.5827719999999985
20
-7.3399269999999994
11
50.7732489999999999
21
-7.2446889999999993
0
LINE
8
BLACK
6
CONTINUOUS
10
50.7732489999999999
20
-7.2446889999999993
11
50.8684869999999947
21
-7.0542119999999997
0
LINE
8
BLACK
6
CONTINUOUS
10
50.8684869999999947
20
-7.0542119999999997
11
50.8684869999999947
21
-6.9589739999999995
0
LINE
8
BLACK
6
CONTINUOUS
10
50.8684869999999947
20
-6.9589739999999995
11
50.7732489999999999
21
-6.7684980000000001
0
LINE
8
BLACK
6
CONTINUOUS
10
50.7732489999999999
20
-6.7684980000000001
11
50.5827719999999985
21
-6.67326
0
LINE
8
BLACK
6
CONTINUOUS
10
50.5827719999999985
20
-6.67326
11
50.2970579999999998
21
-6.67326
0
LINE
8
BLACK
6
CONTINUOUS
10
50.2970579999999998
20
-6.67326
11
50.106581999999996
21
-6.5780219999999998
0
LINE
8
BLACK
6
CONTINUOUS
10
50.106581999999996
20
-6.5780219999999998
11
50.0113440000000011
21
-6.3875459999999995
0
LINE
8
BLACK
6
CONTINUOUS
10
50.0113440000000011
20
-6.3875459999999995
11
50.0113440000000011
21
-6.2923079999999993
0
LINE
8
BLACK
6
CONTINUOUS
10
50.0113440000000011
20
-6.2923079999999993
11
50.106581999999996
21
-6.1018309999999998
0
LINE
8
BLACK
6
CONTINUOUS
10
50.106581999999996
20
-6.1018309999999998
11
50.2970579999999998
21
-6.0065929999999996
0
LINE
8
BLACK
6
CONTINUOUS
10
50.2970579999999998
20
-6.0065929999999996
11
50.5827719999999985
21
-6.0065929999999996
0
LINE
8
BLACK
6
CONTINUOUS
10
50.5827719999999985
20
-6.0065929999999996
11
50.7732489999999999
21
-6.1018309999999998
0
LINE
8
BLACK
6
CONTINUOUS
10
51.5351539999999986
20
-8.1018309999999989
11
51.6303920000000005
21
-8.0065930000000005
0
LINE
8
BLACK
6
CONTINUOUS
10
51.6303920000000005
20
-8.0065930000000005
11
51.8208679999999973
21
-7.720879
0
LINE
8
BLACK
6
CONTINUOUS
10
51.8208679999999973
20
-7.720879
11
51.9161059999999992
21
-7.5304029999999997
0
LINE
8
BLACK
6
CONTINUOUS
10
51.9161059999999992
20
-7.5304029999999997
11
52.0113440000000011
21
-7.2446889999999993
0
LINE
8
BLACK
6
CONTINUOUS
10
52.0113440000000011
20
-7.2446889999999993
11
52.106581999999996
21
-6.7684980000000001
0
LINE
8
BLACK
6
CONTINUOUS
10
52.106581999999996
20
-6.7684980000000001
11
52.106581999999996
21
-6.3875459999999995
0
LINE
8
BLACK
6
CONTINUOUS
10
52.106581999999996
20
-6.3875459999999995
11
52.0113440000000011
21
-5.9113549999999995
0
LINE
8
BLACK
6
CONTINUOUS
10
52.0113440000000011
20
-5.9113549999999995
11
51.9161059999999992
21
-5.6256409999999999
0
LINE
8
BLACK
6
CONTINUOUS
10
51.9161059999999992
20
-5.6256409999999999
11
51.8208679999999973
21
-5.4351649999999996
0
LINE
8
BLACK
6
CONTINUOUS
10
51.8208679999999973
20
-5.4351649999999996
11
51.6303920000000005
21
-5.1494499999999999
0
LINE
8
BLACK
6
CONTINUOUS
10
51.6303920000000005
20
-5.1494499999999999
11
51.5351539999999986
21
-5.0542119999999997
0
CIRCLE
8
BLACK
10
-0.575
20
-9.0650890000000004
40
0.5499999999999999
0
LINE
8
BLACK
6
CONTINUOUS
10
3.6303869999999998
20
-9.979927
11
2.48753
21
-9.979927
0
LINE
8
BLACK
6
CONTINUOUS
10
3.0589580000000001
20
-9.979927
11
3.0589580000000001
21
-7.979927
0
LINE
8
BLACK
6
CONTINUOUS
10
3.0589580000000001
20
-7.979927
11
2.8684819999999998
21
-8.2656410000000005
0
LINE
8
BLACK
6
CONTINUOUS
10
2.8684819999999998
20
-8.2656410000000005
11
2.6780059999999999
21
-8.456116999999999
0
LINE
8
BLACK
6
CONTINUOUS
10
2.6780059999999999
20
-8.456116999999999
11
2.48753
21
-8.5513549999999992
0
LINE
8
BLACK
6
CONTINUOUS
10
4.4875299999999996
20
-9.7894500000000004
11
4.5827679999999997
21
-9.8846889999999998
0
LINE
8
BLACK
6
CONTINUOUS
10
4.5827679999999997
20
-9.8846889999999998
11
4.4875299999999996
21
-9.979927
0
LINE
8
BLACK
6
CONTINUOUS
10
4.4875299999999996
20
-9.979927
11
4.3922919999999994
21
-9.8846889999999998
0
LINE
8
BLACK
6
CONTINUOUS
10
4.3922919999999994
20
-9.8846889999999998
11
4.4875299999999996
21
-9.7894500000000004
0
LINE
8
BLACK
6
CONTINUOUS
10
4.4875299999999996
20
-9.7894500000000004
11
4.4875299999999996
21
-9.979927
0
LINE
8
BLACK
6
CONTINUOUS
10
6.4875299999999996
20
-9.979927
11
5.3446729999999993
21
-9.979927
0
LINE
8
BLACK
6
CONTINUOUS
10
5.9161009999999994
20
-9.979927
11
5.9161009999999994
21
-7.979927
0
LINE
8
BLACK
6
CONTINUOUS
10
5.9161009999999994
20
-7.979927
11
5.725625
21
-8.2656410000000005
0
LINE
8
BLACK
6
CONTINUOUS
10
5.725625
20
-8.2656410000000005
11
5.5351489999999997
21
-8.456116999999999
0
LINE
8
BLACK
6
CONTINUOUS
10
5.5351489999999997
20
-8.456116999999999
11
5.3446729999999993
21
-8.5513549999999992
0
LINE
8
BLACK
6
CONTINUOUS
10
7.725625
20
-7.979927
11
7.9161019999999995
21
-7.979927
0
LINE
8
BLACK
6
CONTINUOUS
10
7.9161019999999995
20
-7.979927
11
8.106577999999999
21
-8.0751650000000001
0
LINE
8
BLACK
6
CONTINUOUS
10
8.106577999999999
20
-8.0751650000000001
11
8.2018159999999991
21
-8.1704030000000003
0
LINE
8
BLACK
6
CONTINUOUS
10
8.2018159999999991
20
-8.1704030000000003
11
8.2970539999999993
21
-8.3608789999999988
0
LINE
8
BLACK
6
CONTINUOUS
10
8.2970539999999993
20
-8.3608789999999988
11
8.3922919999999994
21
-8.7418309999999995
0
LINE
8
BLACK
6
CONTINUOUS
10
8.3922919999999994
20
-8.7418309999999995
11
8.3922919999999994
21
-9.2180219999999995
0
LINE
8
BLACK
6
CONTINUOUS
10
8.3922919999999994
20
-9.2180219999999995
11
8.2970539999999993
21
-9.5989740000000001
0
LINE
8
BLACK
6
CONTINUOUS
10
8.2970539999999993
20
-9.5989740000000001
11
8.2018159999999991
21
-9.7894500000000004
0
LINE
8
BLACK
6
CONTINUOUS
10
8.2018159999999991
20
-9.7894500000000004
11
8.106577999999999
21
-9.8846889999999998
0
LINE
8
BLACK
6
CONTINUOUS
10
8.106577999999999
20
-9.8846889999999998
11
7.9161019999999995
21
-9.979927
0
LINE
8
BLACK
6
CONTINUOUS
10
7.9161019999999995
20
-9.979927
11
7.725625
21
-9.979927
0
LINE
8
BLACK
6
CONTINUOUS
10
7.725625
20
-9.979927
11
7.5351489999999997
21
-9.8846889999999998
0
LINE
8
BLACK
6
CONTINUOUS
10
7.5351489999999997
20
-9.8846889999999998
11
7.4399109999999995
21
-9.7894500000000004
0
LINE
8
BLACK
6
CONTINUOUS
10
7.4399109999999995
20
-9.7894500000000004
11
7.3446729999999993
21
-9.5989740000000001
0
LINE
8
BLACK
6
CONTINUOUS
10
7.3446729999999993
20
-9.5989740000000001
11
7.2494350000000001
21
-9.2180219999999995
0
LINE
8
BLACK
6
CONTINUOUS
10
7.2494350000000001
20
-9.2180219999999995
11
7.2494350000000001
21
-8.7418309999999995
0
LINE
8
BLACK
6
CONTINUOUS
10
7.2494350000000001
20
-8.7418309999999995
11
7.3446729999999993
21
-8.3608789999999988
0
LINE
8
BLACK
6
CONTINUOUS
10
7.3446729999999993
20
-8.3608789999999988
11
7.4399109999999995
21
-8.1704030000000003
0
LINE
8
BLACK
6
CONTINUOUS
10
7.4399109999999995
20
-8.1704030000000003
11
7.5351489999999997
21
-8.0751650000000001
0
LINE
8
BLACK
6
CONTINUOUS
10
7.5351489999999997
20
-8.0751650000000001
11
7.725625
21
-7.979927
0
LINE
8
BLACK
6
CONTINUOUS
10
9.6303869999999989
20
-7.979927
11
9.8208640000000003
21
-7.979927
0
LINE
8
BLACK
6
CONTINUOUS
10
9.8208640000000003
20
-7.979927
11
10.0113399999999988
21
-8.0751650000000001
0
LINE
8
BLACK
6
CONTINUOUS
10
10.0113399999999988
20
-8.0751650000000001
11
10.106577999999999
21
-8.1704030000000003
0
LINE
8
BLACK
6
CONTINUOUS
10
10.106577999999999
20
-8.1704030000000003
11
10.2018159999999991
21
-8.3608789999999988
0
LINE
8
BLACK
6
CONTINUOUS
10
10.2018159999999991
20
-8.3608789999999988
11
10.2970539999999993
21
-8.7418309999999995
0
LINE
8
BLACK
6
CONTINUOUS
10
10.2970539999999993
20
-8.7418309999999995
11
10.2970539999999993
21
-9.2180219999999995
0
LINE
8
BLACK
6
CONTINUOUS
10
10.2970539999999993
20
-9.2180219999999995
11
10.2018159999999991
21
-9.5989740000000001
0
LINE
8
BLACK
6
CONTINUOUS
10
10.2018159999999991
20
-9.5989740000000001
11
10.106577999999999
21
-9.7894500000000004
0
LINE
8
BLACK
6
CONTINUOUS
10
10.106577999999999
20
-9.7894500000000004
11
10.0113399999999988
21
-9.8846889999999998
0
LINE
8
BLACK
6
CONTINUOUS
10
10.0113399999999988
20
-9.8846889999999998
11
9.8208640000000003
21
-9.979927
0
LINE
8
BLACK
6
CONTINUOUS
10
9.8208640000000003
20
-9.979927
11
9.6303869999999989
21
-9.979927
0
LINE
8
BLACK
6
CONTINUOUS
10
9.6303869999999989
20
-9.979927
11
9.4399110000000004
21
-9.8846889999999998
0
LINE
8
BLACK
6
CONTINUOUS
10
9.4399110000000004
20
-9.8846889999999998
11
9.3446730000000002
21
-9.7894500000000004
0
LINE
8
BLACK
6
CONTINUOUS
10
9.3446730000000002
20
-9.7894500000000004
11
9.2494350000000001
21
-9.5989740000000001
0
LINE
8
BLACK
6
CONTINUOUS
10
9.2494350000000001
20
-9.5989740000000001
11
9.1541969999999999
21
-9.2180219999999995
0
LINE
8
BLACK
6
CONTINUOUS
10
9.1541969999999999
20
-9.2180219999999995
11
9.1541969999999999
21
-8.7418309999999995
0
LINE
8
BLACK
6
CONTINUOUS
10
9.1541969999999999
20
-8.7418309999999995
11
9.2494350000000001
21
-8.3608789999999988
0
LINE
8
BLACK
6
CONTINUOUS
10
9.2494350000000001
20
-8.3608789999999988
11
9.3446730000000002
21
-8.1704030000000003
0
LINE
8
BLACK
6
CONTINUOUS
10
9.3446730000000002
20
-8.1704030000000003
11
9.4399110000000004
21
-8.0751650000000001
0
LINE
8
BLACK
6
CONTINUOUS
10
9.4399110000000004
20
-8.0751650000000001
11
9.6303869999999989
21
-7.979927
0
LINE
8
BLACK
6
CONTINUOUS
10
11.1541969999999999
20
-9.979927
11
11.1541969999999999
21
-8.6465929999999993
0
LINE
8
BLACK
6
CONTINUOUS
10
11.1541969999999999
20
-8.8370689999999996
11
11.2494350000000001
21
-8.7418309999999995
0
LINE
8
BLACK
6
CONTINUOUS
10
11.2494350000000001
20
-8.7418309999999995
11
11.4399109999999986
21
-8.6465929999999993
0
LINE
8
BLACK
6
CONTINUOUS
10
11.4399109999999986
20
-8.6465929999999993
11
11.7256260000000001
21
-8.6465929999999993
0
LINE
8
BLACK
6
CONTINUOUS
10
11.7256260000000001
20
-8.6465929999999993
11
11.9161019999999986
21
-8.7418309999999995
0
LINE
8
BLACK
6
CONTINUOUS
10
11.9161019999999986
20
-8.7418309999999995
11
12.0113399999999988
21
-8.932307999999999
0
LINE
8
BLACK
6
CONTINUOUS
10
12.0113399999999988
20
-8.932307999999999
11
12.0113399999999988
21
-9.979927
0
LINE
8
BLACK
6
CONTINUOUS
10
12.0113399999999988
20
-8.932307999999999
11
12.106577999999999
21
-8.7418309999999995
0
LINE
8
BLACK
6
CONTINUOUS
10
12.106577999999999
20
-8.7418309999999995
11
12.2970539999999993
21
-8.6465929999999993
0
LINE
8
BLACK
6
CONTINUOUS
10
12.2970539999999993
20
-8.6465929999999993
11
12.5827679999999997
21
-8.6465929999999993
0
LINE
8
BLACK
6
CONTINUOUS
10
12.5827679999999997
20
-8.6465929999999993
11
12.7732449999999993
21
-8.7418309999999995
0
LINE
8
BLACK
6
CONTINUOUS
10
12.7732449999999993
20
-8.7418309999999995
11
12.8684829999999994
21
-8.932307999999999
0
LINE
8
BLACK
6
CONTINUOUS
10
12.8684829999999994
20
-8.932307999999999
11
12.8684829999999994
21
-9.979927
0
LINE
8
BLACK
6
CONTINUOUS
10
13.8208640000000003
20
-9.979927
11
13.8208640000000003
21
-8.6465929999999993
0
LINE
8
BLACK
6
CONTINUOUS
10
13.8208640000000003
20
-8.8370689999999996
11
13.9161019999999986
21
-8.7418309999999995
0
LINE
8
BLACK
6
CONTINUOUS
10
13.9161019999999986
20
-8.7418309999999995
11
14.106577999999999
21
-8.6465929999999993
0
LINE
8
BLACK
6
CONTINUOUS
10
14.106577999999999
20
-8.6465929999999993
11
14.3922929999999987
21
-8.6465929999999993
0
LINE
8
BLACK
6
CONTINUOUS
10
14.3922929999999987
20
-8.6465929999999993
11
14.582768999999999
21
-8.7418309999999995
0
LINE
8
BLACK
6
CONTINUOUS
10
14.582768999999999
20
-8.7418309999999995
11
14.6780069999999991
21
-8.932307999999999
0
LINE
8
BLACK
6
CONTINUOUS
10
14.6780069999999991
20
-8.932307999999999
11
14.6780069999999991
21
-9.979927
0
LINE
8
BLACK
6
CONTINUOUS
10
14.6780069999999991
20
-8.932307999999999
11
14.7732449999999993
21
-8.7418309999999995
0
LINE
8
BLACK
6
CONTINUOUS
10
14.7732449999999993
20
-8.7418309999999995
11
14.9637209999999996
21
-8.6465929999999993
0
LINE
8
BLACK
6
CONTINUOUS
10
14.9637209999999996
20
-8.6465929999999993
11
15.2494350000000001
21
-8.6465929999999993
0
LINE
8
BLACK
6
CONTINUOUS
10
15.2494350000000001
20
-8.6465929999999993
11
15.4399119999999996
21
-8.7418309999999995
0
LINE
8
BLACK
6
CONTINUOUS
10
15.4399119999999996
20
-8.7418309999999995
11
15.5351499999999998
21
-8.932307999999999
0
LINE
8
BLACK
6
CONTINUOUS
10
15.5351499999999998
20
-8.932307999999999
11
15.5351499999999998
21
-9.979927
0
LINE
8
BLACK
6
CONTINUOUS
10
19.4399119999999996
20
-7.8846889999999998
11
17.7256269999999994
21
-10.456116999999999
0
LINE
8
BLACK
6
CONTINUOUS
10
22.011340999999998
20
-7.979927
11
22.2018179999999994
21
-7.979927
0
LINE
8
BLACK
6
CONTINUOUS
10
22.2018179999999994
20
-7.979927
11
22.3922939999999997
21
-8.0751650000000001
0
LINE
8
BLACK
6
CONTINUOUS
10
22.3922939999999997
20
-8.0751650000000001
11
22.4875319999999981
21
-8.1704030000000003
0
LINE
8
BLACK
6
CONTINUOUS
10
22.4875319999999981
20
-8.1704030000000003
11
22.58277
21
-8.3608789999999988
0
LINE
8
BLACK
6
CONTINUOUS
10
22.58277
20
-8.3608789999999988
11
22.6780079999999984
21
-8.7418309999999995
0
LINE
8
BLACK
6
CONTINUOUS
10
22.6780079999999984
20
-8.7418309999999995
11
22.6780079999999984
21
-9.2180219999999995
0
LINE
8
BLACK
6
CONTINUOUS
10
22.6780079999999984
20
-9.2180219999999995
11
22.58277
21
-9.5989740000000001
0
LINE
8
BLACK
6
CONTINUOUS
10
22.58277
20
-9.5989740000000001
11
22.4875319999999981
21
-9.7894500000000004
0
LINE
8
BLACK
6
CONTINUOUS
10
22.4875319999999981
20
-9.7894500000000004
11
22.3922939999999997
21
-9.8846889999999998
0
LINE
8
BLACK
6
CONTINUOUS
10
22.3922939999999997
20
-9.8846889999999998
11
22.2018179999999994
21
-9.979927
0
LINE
8
BLACK
6
CONTINUOUS
10
22.2018179999999994
20
-9.979927
11
22.011340999999998
21
-9.979927
0
LINE
8
BLACK
6
CONTINUOUS
10
22.011340999999998
20
-9.979927
11
21.8208649999999977
21
-9.8846889999999998
0
LINE
8
BLACK
6
CONTINUOUS
10
21.8208649999999977
20
-9.8846889999999998
11
21.7256269999999994
21
-9.7894500000000004
0
LINE
8
BLACK
6
CONTINUOUS
10
21.7256269999999994
20
-9.7894500000000004
11
21.6303889999999974
21
-9.5989740000000001
0
LINE
8
BLACK
6
CONTINUOUS
10
21.6303889999999974
20
-9.5989740000000001
11
21.535150999999999
21
-9.2180219999999995
0
LINE
8
BLACK
6
CONTINUOUS
10
21.535150999999999
20
-9.2180219999999995
11
21.535150999999999
21
-8.7418309999999995
0
LINE
8
BLACK
6
CONTINUOUS
10
21.535150999999999
20
-8.7418309999999995
11
21.6303889999999974
21
-8.3608789999999988
0
LINE
8
BLACK
6
CONTINUOUS
10
21.6303889999999974
20
-8.3608789999999988
11
21.7256269999999994
21
-8.1704030000000003
0
LINE
8
BLACK
6
CONTINUOUS
10
21.7256269999999994
20
-8.1704030000000003
11
21.8208649999999977
21
-8.0751650000000001
0
LINE
8
BLACK
6
CONTINUOUS
10
21.8208649999999977
20
-8.0751650000000001
11
22.011340999999998
21
-7.979927
0
LINE
8
BLACK
6
CONTINUOUS
10
23.535150999999999
20
-9.7894500000000004
11
23.6303889999999974
21
-9.8846889999999998
0
LINE
8
BLACK
6
CONTINUOUS
10
23.6303889999999974
20
-9.8846889999999998
11
23.535150999999999
21
-9.979927
0
LINE
8
BLACK
6
CONTINUOUS
10
23.535150999999999
20
-9.979927
11
23.4399130000000007
21
-9.8846889999999998
0
LINE
8
BLACK
6
CONTINUOUS
10
23.4399130000000007
20
-9.8846889999999998
11
23.535150999999999
21
-9.7894500000000004
0
LINE
8
BLACK
6
CONTINUOUS
10
23.535150999999999
20
-9.7894500000000004
11
23.535150999999999
21
-9.979927
0
LINE
8
BLACK
6
CONTINUOUS
10
24.8684839999999987
20
-7.979927
11
25.058961
21
-7.979927
0
LINE
8
BLACK
6
CONTINUOUS
10
25.058961
20
-7.979927
11
25.2494370000000004
21
-8.0751650000000001
0
LINE
8
BLACK
6
CONTINUOUS
10
25.2494370000000004
20
-8.0751650000000001
11
25.3446749999999987
21
-8.1704030000000003
0
LINE
8
BLACK
6
CONTINUOUS
10
25.3446749999999987
20
-8.1704030000000003
11
25.4399129999999971
21
-8.3608789999999988
0
LINE
8
BLACK
6
CONTINUOUS
10
25.4399129999999971
20
-8.3608789999999988
11
25.535150999999999
21
-8.7418309999999995
0
LINE
8
BLACK
6
CONTINUOUS
10
25.535150999999999
20
-8.7418309999999995
11
25.535150999999999
21
-9.2180219999999995
0
LINE
8
BLACK
6
CONTINUOUS
10
25.535150999999999
20
-9.2180219999999995
11
25.4399129999999971
21
-9.5989740000000001
0
LINE
8
BLACK
6
CONTINUOUS
10
25.4399129999999971
20
-9.5989740000000001
11
25.3446749999999987
21
-9.7894500000000004
0
LINE
8
BLACK
6
CONTINUOUS
10
25.3446749999999987
20
-9.7894500000000004
11
25.2494370000000004
21
-9.8846889999999998
0
LINE
8
BLACK
6
CONTINUOUS
10
25.2494370000000004
20
-9.8846889999999998
11
25.058961
21
-9.979927
0
LINE
8
BLACK
6
CONTINUOUS
10
25.058961
20
-9.979927
11
24.8684839999999987
21
-9.979927
0
LINE
8
BLACK
6
CONTINUOUS
10
24.8684839999999987
20
-9.979927
11
24.6780079999999984
21
-9.8846889999999998
0
LINE
8
BLACK
6
CONTINUOUS
10
24.6780079999999984
20
-9.8846889999999998
11
24.58277
21
-9.7894500000000004
0
LINE
8
BLACK
6
CONTINUOUS
10
24.58277
20
-9.7894500000000004
11
24.4875319999999981
21
-9.5989740000000001
0
LINE
8
BLACK
6
CONTINUOUS
10
24.4875319999999981
20
-9.5989740000000001
11
24.3922939999999997
21
-9.2180219999999995
0
LINE
8
BLACK
6
CONTINUOUS
10
24.3922939999999997
20
-9.2180219999999995
11
24.3922939999999997
21
-8.7418309999999995
0
LINE
8
BLACK
6
CONTINUOUS
10
24.3922939999999997
20
-8.7418309999999995
11
24.4875319999999981
21
-8.3608789999999988
0
LINE
8
BLACK
6
CONTINUOUS
10
24.4875319999999981
20
-8.3608789999999988
11
24.58277
21
-8.1704030000000003
0
LINE
8
BLACK
6
CONTINUOUS
10
24.58277
20
-8.1704030000000003
11
24.6780079999999984
21
-8.0751650000000001
0
LINE
8
BLACK
6
CONTINUOUS
10
24.6780079999999984
20
-8.0751650000000001
11
24.8684839999999987
21
-7.979927
0
LINE
8
BLACK
6
CONTINUOUS
10
27.2494370000000004
20
-8.6465929999999993
11
27.2494370000000004
21
-9.979927
0
LINE
8
BLACK
6
CONTINUOUS
10
26.7732460000000003
20
-7.8846889999999998
11
26.2970559999999978
21
-9.3132599999999996
0
LINE
8
BLACK
6
CONTINUOUS
10
26.2970559999999978
20
-9.3132599999999996
11
27.535150999999999
21
-9.3132599999999996
0
LINE
8
BLACK
6
CONTINUOUS
10
28.1065799999999975
20
-7.979927
11
29.3446749999999987
21
-7.979927
0
LINE
8
BLACK
6
CONTINUOUS
10
29.3446749999999987
20
-7.979927
11
28.6780079999999984
21
-8.7418309999999995
0
LINE
8
BLACK
6
CONTINUOUS
10
28.6780079999999984
20
-8.7418309999999995
11
28.9637229999999981
21
-8.7418309999999995
0
LINE
8
BLACK
6
CONTINUOUS
10
28.9637229999999981
20
-8.7418309999999995
11
29.1541989999999984
21
-8.8370689999999996
0
LINE
8
BLACK
6
CONTINUOUS
10
29.1541989999999984
20
-8.8370689999999996
11
29.2494370000000004
21
-8.932307999999999
0
LINE
8
BLACK
6
CONTINUOUS
10
29.2494370000000004
20
-8.932307999999999
11
29.3446749999999987
21
-9.1227839999999993
0
LINE
8
BLACK
6
CONTINUOUS
10
29.3446749999999987
20
-9.1227839999999993
11
29.3446749999999987
21
-9.5989740000000001
0
LINE
8
BLACK
6
CONTINUOUS
10
29.3446749999999987
20
-9.5989740000000001
11
29.2494370000000004
21
-9.7894500000000004
0
LINE
8
BLACK
6
CONTINUOUS
10
29.2494370000000004
20
-9.7894500000000004
11
29.1541989999999984
21
-9.8846889999999998
0
LINE
8
BLACK
6
CONTINUOUS
10
29.1541989999999984
20
-9.8846889999999998
11
28.9637229999999981
21
-9.979927
0
LINE
8
BLACK
6
CONTINUOUS
10
28.9637229999999981
20
-9.979927
11
28.3922939999999997
21
-9.979927
0
LINE
8
BLACK
6
CONTINUOUS
10
28.3922939999999997
20
-9.979927
11
28.2018179999999994
21
-9.8846889999999998
0
LINE
8
BLACK
6
CONTINUOUS
10
28.2018179999999994
20
-9.8846889999999998
11
28.1065799999999975
21
-9.7894500000000004
0
LINE
8
BLACK
6
CONTINUOUS
10
30.0113419999999991
20
-7.979927
11
31.2494370000000004
21
-7.979927
0
LINE
8
BLACK
6
CONTINUOUS
10
31.2494370000000004
20
-7.979927
11
30.58277
21
-8.7418309999999995
0
LINE
8
BLACK
6
CONTINUOUS
10
30.58277
20
-8.7418309999999995
11
30.8684849999999997
21
-8.7418309999999995
0
LINE
8
BLACK
6
CONTINUOUS
10
30.8684849999999997
20
-8.7418309999999995
11
31.058961
21
-8.8370689999999996
0
LINE
8
BLACK
6
CONTINUOUS
10
31.058961
20
-8.8370689999999996
11
31.1541989999999984
21
-8.932307999999999
0
LINE
8
BLACK
6
CONTINUOUS
10
31.1541989999999984
20
-8.932307999999999
11
31.2494370000000004
21
-9.1227839999999993
0
LINE
8
BLACK
6
CONTINUOUS
10
31.2494370000000004
20
-9.1227839999999993
11
31.2494370000000004
21
-9.5989740000000001
0
LINE
8
BLACK
6
CONTINUOUS
10
31.2494370000000004
20
-9.5989740000000001
11
31.1541989999999984
21
-9.7894500000000004
0
LINE
8
BLACK
6
CONTINUOUS
10
31.1541989999999984
20
-9.7894500000000004
11
31.058961
21
-9.8846889999999998
0
LINE
8
BLACK
6
CONTINUOUS
10
31.058961
20
-9.8846889999999998
11
30.8684849999999997
21
-9.979927
0
LINE
8
BLACK
6
CONTINUOUS
10
30.8684849999999997
20
-9.979927
11
30.2970559999999978
21
-9.979927
0
LINE
8
BLACK
6
CONTINUOUS
10
30.2970559999999978
20
-9.979927
11
30.1065799999999975
21
-9.8846889999999998
0
LINE
8
BLACK
6
CONTINUOUS
10
30.1065799999999975
20
-9.8846889999999998
11
30.0113419999999991
21
-9.7894500000000004
0
LINE
8
BLACK
6
CONTINUOUS
10
32.0113419999999991
20
-7.979927
11
32.0113419999999991
21
-8.3608789999999988
0
LINE
8
BLACK
6
CONTINUOUS
10
32.7732469999999978
20
-7.979927
11
32.7732469999999978
21
-8.3608789999999988
0
LINE
8
BLACK
6
CONTINUOUS
10
35.7256289999999979
20
-10.7418309999999995
11
35.6303899999999985
21
-10.6465929999999993
0
LINE
8
BLACK
6
CONTINUOUS
10
35.6303899999999985
20
-10.6465929999999993
11
35.4399140000000017
21
-10.3608789999999988
0
LINE
8
BLACK
6
CONTINUOUS
10
35.4399140000000017
20
-10.3608789999999988
11
35.3446759999999998
21
-10.1704030000000003
0
LINE
8
BLACK
6
CONTINUOUS
10
35.3446759999999998
20
-10.1704030000000003
11
35.2494379999999978
21
-9.8846889999999998
0
LINE
8
BLACK
6
CONTINUOUS
10
35.2494379999999978
20
-9.8846889999999998
11
35.1541999999999959
21
-9.4084979999999998
0
LINE
8
BLACK
6
CONTINUOUS
10
35.1541999999999959
20
-9.4084979999999998
11
35.1541999999999959
21
-9.0275459999999992
0
LINE
8
BLACK
6
CONTINUOUS
10
35.1541999999999959
20
-9.0275459999999992
11
35.2494379999999978
21
-8.5513549999999992
0
LINE
8
BLACK
6
CONTINUOUS
10
35.2494379999999978
20
-8.5513549999999992
11
35.3446759999999998
21
-8.2656410000000005
0
LINE
8
BLACK
6
CONTINUOUS
10
35.3446759999999998
20
-8.2656410000000005
11
35.4399140000000017
21
-8.0751650000000001
0
LINE
8
BLACK
6
CONTINUOUS
10
35.4399140000000017
20
-8.0751650000000001
11
35.6303899999999985
21
-7.7894499999999995
0
LINE
8
BLACK
6
CONTINUOUS
10
35.6303899999999985
20
-7.7894499999999995
11
35.7256289999999979
21
-7.6942119999999994
0
LINE
8
BLACK
6
CONTINUOUS
10
36.2970569999999952
20
-7.979927
11
37.5351519999999965
21
-7.979927
0
LINE
8
BLACK
6
CONTINUOUS
10
37.5351519999999965
20
-7.979927
11
36.8684849999999997
21
-8.7418309999999995
0
LINE
8
BLACK
6
CONTINUOUS
10
36.8684849999999997
20
-8.7418309999999995
11
37.1541999999999959
21
-8.7418309999999995
0
LINE
8
BLACK
6
CONTINUOUS
10
37.1541999999999959
20
-8.7418309999999995
11
37.3446759999999998
21
-8.8370689999999996
0
LINE
8
BLACK
6
CONTINUOUS
10
37.3446759999999998
20
-8.8370689999999996
11
37.4399140000000017
21
-8.932307999999999
0
LINE
8
BLACK
6
CONTINUOUS
10
37.4399140000000017
20
-8.932307999999999
11
37.5351519999999965
21
-9.1227839999999993
0
LINE
8
BLACK
6
CONTINUOUS
10
37.5351519999999965
20
-9.1227839999999993
11
37.5351519999999965
21
-9.5989740000000001
0
LINE
8
BLACK
6
CONTINUOUS
10
37.5351519999999965
20
-9.5989740000000001
11
37.4399140000000017
21
-9.7894500000000004
0
LINE
8
BLACK
6
CONTINUOUS
10
37.4399140000000017
20
-9.7894500000000004
11
37.3446759999999998
21
-9.8846889999999998
0
LINE
8
BLACK
6
CONTINUOUS
10
37.3446759999999998
20
-9.8846889999999998
11
37.1541999999999959
21
-9.979927
0
LINE
8
BLACK
6
CONTINUOUS
10
37.1541999999999959
20
-9.979927
11
36.582771000000001
21
-9.979927
0
LINE
8
BLACK
6
CONTINUOUS
10
36.582771000000001
20
-9.979927
11
36.3922949999999972
21
-9.8846889999999998
0
LINE
8
BLACK
6
CONTINUOUS
10
36.3922949999999972
20
-9.8846889999999998
11
36.2970569999999952
21
-9.7894500000000004
0
LINE
8
BLACK
6
CONTINUOUS
10
38.2970569999999952
20
-8.1704030000000003
11
38.3922949999999972
21
-8.0751650000000001
0
LINE
8
BLACK
6
CONTINUOUS
10
38.3922949999999972
20
-8.0751650000000001
11
38.582771000000001
21
-7.979927
0
LINE
8
BLACK
6
CONTINUOUS
10
38.582771000000001
20
-7.979927
11
39.0589620000000011
21
-7.979927
0
LINE
8
BLACK
6
CONTINUOUS
10
39.0589620000000011
20
-7.979927
11
39.2494379999999978
21
-8.0751650000000001
0
LINE
8
BLACK
6
CONTINUOUS
10
39.2494379999999978
20
-8.0751650000000001
11
39.3446759999999998
21
-8.1704030000000003
0
LINE
8
BLACK
6
CONTINUOUS
10
39.3446759999999998
20
-8.1704030000000003
11
39.4399140000000017
21
-8.3608789999999988
0
LINE
8
BLACK
6
CONTINUOUS
10
39.4399140000000017
20
-8.3608789999999988
11
39.4399140000000017
21
-8.5513549999999992
0
LINE
8
BLACK
6
CONTINUOUS
10
39.4399140000000017
20
-8.5513549999999992
11
39.3446759999999998
21
-8.8370689999999996
0
LINE
8
BLACK
6
CONTINUOUS
10
39.3446759999999998
20
-8.8370689999999996
11
38.2018190000000004
21
-9.979927
0
LINE
8
BLACK
6
CONTINUOUS
10
38.2018190000000004
20
-9.979927
11
39.4399140000000017
21
-9.979927
0
LINE
8
BLACK
6
CONTINUOUS
10
41.8208669999999998
20
-9.979927
11
41.8208669999999998
21
-7.979927
0
LINE
8
BLACK
6
CONTINUOUS
10
42.6780100000000004
20
-9.979927
11
42.6780100000000004
21
-8.932307999999999
0
LINE
8
BLACK
6
CONTINUOUS
10
42.6780100000000004
20
-8.932307999999999
11
42.5827719999999985
21
-8.7418309999999995
0
LINE
8
BLACK
6
CONTINUOUS
10
42.5827719999999985
20
-8.7418309999999995
11
42.3922959999999946
21
-8.6465929999999993
0
LINE
8
BLACK
6
CONTINUOUS
10
42.3922959999999946
20
-8.6465929999999993
11
42.1065809999999985
21
-8.6465929999999993
0
LINE
8
BLACK
6
CONTINUOUS
10
42.1065809999999985
20
-8.6465929999999993
11
41.9161049999999946
21
-8.7418309999999995
0
LINE
8
BLACK
6
CONTINUOUS
10
41.9161049999999946
20
-8.7418309999999995
11
41.8208669999999998
21
-8.8370689999999996
0
LINE
8
BLACK
6
CONTINUOUS
10
43.9161049999999946
20
-9.979927
11
43.7256289999999979
21
-9.8846889999999998
0
LINE
8
BLACK
6
CONTINUOUS
10
43.7256289999999979
20
-9.8846889999999998
11
43.6303909999999959
21
-9.7894500000000004
0
LINE
8
BLACK
6
CONTINUOUS
10
43.6303909999999959
20
-9.7894500000000004
11
43.5351530000000011
21
-9.5989740000000001
0
LINE
8
BLACK
6
CONTINUOUS
10
43.5351530000000011
20
-9.5989740000000001
11
43.5351530000000011
21
-9.0275459999999992
0
LINE
8
BLACK
6
CONTINUOUS
10
43.5351530000000011
20
-9.0275459999999992
11
43.6303909999999959
21
-8.8370689999999996
0
LINE
8
BLACK
6
CONTINUOUS
10
43.6303909999999959
20
-8.8370689999999996
11
43.7256289999999979
21
-8.7418309999999995
0
LINE
8
BLACK
6
CONTINUOUS
10
43.7256289999999979
20
-8.7418309999999995
11
43.9161049999999946
21
-8.6465929999999993
0
LINE
8
BLACK
6
CONTINUOUS
10
43.9161049999999946
20
-8.6465929999999993
11
44.2018199999999979
21
-8.6465929999999993
0
LINE
8
BLACK
6
CONTINUOUS
10
44.2018199999999979
20
-8.6465929999999993
11
44.3922959999999946
21
-8.7418309999999995
0
LINE
8
BLACK
6
CONTINUOUS
10
44.3922959999999946
20
-8.7418309999999995
11
44.4875339999999966
21
-8.8370689999999996
0
LINE
8
BLACK
6
CONTINUOUS
10
44.4875339999999966
20
-8.8370689999999996
11
44.5827719999999985
21
-9.0275459999999992
0
LINE
8
BLACK
6
CONTINUOUS
10
44.5827719999999985
20
-9.0275459999999992
11
44.5827719999999985
21
-9.5989740000000001
0
LINE
8
BLACK
6
CONTINUOUS
10
44.5827719999999985
20
-9.5989740000000001
11
44.4875339999999966
21
-9.7894500000000004
0
LINE
8
BLACK
6
CONTINUOUS
10
44.4875339999999966
20
-9.7894500000000004
11
44.3922959999999946
21
-9.8846889999999998
0
LINE
8
BLACK
6
CONTINUOUS
10
44.3922959999999946
20
-9.8846889999999998
11
44.2018199999999979
21
-9.979927
0
LINE
8
BLACK
6
CONTINUOUS
10
44.2018199999999979
20
-9.979927
11
43.9161049999999946
21
-9.979927
0
LINE
8
BLACK
6
CONTINUOUS
10
45.7256289999999979
20
-9.979927
11
45.5351530000000011
21
-9.8846889999999998
0
LINE
8
BLACK
6
CONTINUOUS
10
45.5351530000000011
20
-9.8846889999999998
11
45.4399149999999992
21
-9.6942120000000003
0
LINE
8
BLACK
6
CONTINUOUS
10
45.4399149999999992
20
-9.6942120000000003
11
45.4399149999999992
21
-7.979927
0
LINE
8
BLACK
6
CONTINUOUS
10
47.2494389999999953
20
-9.8846889999999998
11
47.0589629999999985
21
-9.979927
0
LINE
8
BLACK
6
CONTINUOUS
10
47.0589629999999985
20
-9.979927
11
46.6780100000000004
21
-9.979927
0
LINE
8
BLACK
6
CONTINUOUS
10
46.6780100000000004
20
-9.979927
11
46.4875339999999966
21
-9.8846889999999998
0
LINE
8
BLACK
6
CONTINUOUS
10
46.4875339999999966
20
-9.8846889999999998
11
46.3922959999999946
21
-9.6942120000000003
0
LINE
8
BLACK
6
CONTINUOUS
10
46.3922959999999946
20
-9.6942120000000003
11
46.3922959999999946
21
-8.932307999999999
0
LINE
8
BLACK
6
CONTINUOUS
10
46.3922959999999946
20
-8.932307999999999
11
46.4875339999999966
21
-8.7418309999999995
0
LINE
8
BLACK
6
CONTINUOUS
10
46.4875339999999966
20
-8.7418309999999995
11
46.6780100000000004
21
-8.6465929999999993
0
LINE
8
BLACK
6
CONTINUOUS
10
46.6780100000000004
20
-8.6465929999999993
11
47.0589629999999985
21
-8.6465929999999993
0
LINE
8
BLACK
6
CONTINUOUS
10
47.0589629999999985
20
-8.6465929999999993
11
47.2494389999999953
21
-8.7418309999999995
0
LINE
8
BLACK
6
CONTINUOUS
10
47.2494389999999953
20
-8.7418309999999995
11
47.3446769999999972
21
-8.932307999999999
0
LINE
8
BLACK
6
CONTINUOUS
10
47.3446769999999972
20
-8.932307999999999
11
47.3446769999999972
21
-9.1227839999999993
0
LINE
8
BLACK
6
CONTINUOUS
10
47.3446769999999972
20
-9.1227839999999993
11
46.3922959999999946
21
-9.3132599999999996
0
LINE
8
BLACK
6
CONTINUOUS
10
48.106581999999996
20
-9.8846889999999998
11
48.2970579999999998
21
-9.979927
0
LINE
8
BLACK
6
CONTINUOUS
10
48.2970579999999998
20
-9.979927
11
48.6780100000000004
21
-9.979927
0
LINE
8
BLACK
6
CONTINUOUS
10
48.6780100000000004
20
-9.979927
11
48.8684869999999947
21
-9.8846889999999998
0
LINE
8
BLACK
6
CONTINUOUS
10
48.8684869999999947
20
-9.8846889999999998
11
48.9637249999999966
21
-9.6942120000000003
0
LINE
8
BLACK
6
CONTINUOUS
10
48.9637249999999966
20
-9.6942120000000003
11
48.9637249999999966
21
-9.5989740000000001
0
LINE
8
BLACK
6
CONTINUOUS
10
48.9637249999999966
20
-9.5989740000000001
11
48.8684869999999947
21
-9.4084979999999998
0
LINE
8
BLACK
6
CONTINUOUS
10
48.8684869999999947
20
-9.4084979999999998
11
48.6780100000000004
21
-9.3132599999999996
0
LINE
8
BLACK
6
CONTINUOUS
10
48.6780100000000004
20
-9.3132599999999996
11
48.3922959999999946
21
-9.3132599999999996
0
LINE
8
BLACK
6
CONTINUOUS
10
48.3922959999999946
20
-9.3132599999999996
11
48.2018199999999979
21
-9.2180219999999995
0
LINE
8
BLACK
6
CONTINUOUS
10
48.2018199999999979
20
-9.2180219999999995
11
48.106581999999996
21
-9.0275459999999992
0
LINE
8
BLACK
6
CONTINUOUS
10
48.106581999999996
20
-9.0275459999999992
11
48.106581999999996
21
-8.932307999999999
0
LINE
8
BLACK
6
CONTINUOUS
10
48.106581999999996
20
-8.932307999999999
11
48.2018199999999979
21
-8.7418309999999995
0
LINE
8
BLACK
6
CONTINUOUS
10
48.2018199999999979
20
-8.7418309999999995
11
48.3922959999999946
21
-8.6465929999999993
0
LINE
8
BLACK
6
CONTINUOUS
10
48.3922959999999946
20
-8.6465929999999993
11
48.6780100000000004
21
-8.6465929999999993
0
LINE
8
BLACK
6
CONTINUOUS
10
48.6780100000000004
20
-8.6465929999999993
11
48.8684869999999947
21
-8.7418309999999995
0
LINE
8
BLACK
6
CONTINUOUS
10
49.6303920000000005
20
-10.7418309999999995
11
49.7256299999999953
21
-10.6465929999999993
0
LINE
8
BLACK
6
CONTINUOUS
10
49.7256299999999953
20
-10.6465929999999993
11
49.9161059999999992
21
-10.3608789999999988
0
LINE
8
BLACK
6
CONTINUOUS
10
49.9161059999999992
20
-10.3608789999999988
11
50.0113440000000011
21
-10.1704030000000003
0
LINE
8
BLACK
6
CONTINUOUS
10
50.0113440000000011
20
-10.1704030000000003
11
50.106581999999996
21
-9.8846889999999998
0
LINE
8
BLACK
6
CONTINUOUS
10
50.106581999999996
20
-9.8846889999999998
11
50.2018199999999979
21
-9.4084979999999998
0
LINE
8
BLACK
6
CONTINUOUS
10
50.2018199999999979
20
-9.4084979999999998
11
50.2018199999999979
21
-9.0275459999999992
0
LINE
8
BLACK
6
CONTINUOUS
10
50.2018199999999979
20
-9.0275459999999992
11
50.106581999999996
21
-8.5513549999999992
0
LINE
8
BLACK
6
CONTINUOUS
10
50.106581999999996
20
-8.5513549999999992
11
50.0113440000000011
21
-8.2656410000000005
0
LINE
8
BLACK
6
CONTINUOUS
10
50.0113440000000011
20
-8.2656410000000005
11
49.9161059999999992
21
-8.0751650000000001
0
LINE
8
BLACK
6
CONTINUOUS
10
49.9161059999999992
20
-8.0751650000000001
11
49.7256299999999953
21
-7.7894499999999995
0
LINE
8
BLACK
6
CONTINUOUS
10
49.7256299999999953
20
-7.7894499999999995
11
49.6303920000000005
21
-7.6942119999999994
0
LINE
8
BLACK
6
CONTINUOUS
10
-1.0249999999999999
20
-10.7050889999999992
11
-1.0249999999999999
21
-12.7050889999999992
0
LINE
8
BLACK
6
CONTINUOUS
10
-2.0249999999999999
20
-11.7050889999999992
11
-0.025
21
-11.7050889999999992
0
LINE
8
BLACK
6
CONTINUOUS
10
2.3922919999999999
20
-10.6199269999999988
11
3.6303869999999998
21
-10.6199269999999988
0
LINE
8
BLACK
6
CONTINUOUS
10
3.6303869999999998
20
-10.6199269999999988
11
2.9637199999999999
21
-11.381831
0
LINE
8
BLACK
6
CONTINUOUS
10
2.9637199999999999
20
-11.381831
11
3.2494350000000001
21
-11.381831
0
LINE
8
BLACK
6
CONTINUOUS
10
3.2494350000000001
20
-11.381831
11
3.4399109999999999
21
-11.4770690000000002
0
LINE
8
BLACK
6
CONTINUOUS
10
3.4399109999999999
20
-11.4770690000000002
11
3.5351489999999997
21
-11.5723079999999996
0
LINE
8
BLACK
6
CONTINUOUS
10
3.5351489999999997
20
-11.5723079999999996
11
3.6303869999999998
21
-11.7627839999999999
0
LINE
8
BLACK
6
CONTINUOUS
10
3.6303869999999998
20
-11.7627839999999999
11
3.6303869999999998
21
-12.2389739999999989
0
LINE
8
BLACK
6
CONTINUOUS
10
3.6303869999999998
20
-12.2389739999999989
11
3.5351489999999997
21
-12.4294499999999992
0
LINE
8
BLACK
6
CONTINUOUS
10
3.5351489999999997
20
-12.4294499999999992
11
3.4399109999999999
21
-12.5246889999999986
0
LINE
8
BLACK
6
CONTINUOUS
10
3.4399109999999999
20
-12.5246889999999986
11
3.2494350000000001
21
-12.6199269999999988
0
LINE
8
BLACK
6
CONTINUOUS
10
3.2494350000000001
20
-12.6199269999999988
11
2.6780059999999999
21
-12.6199269999999988
0
LINE
8
BLACK
6
CONTINUOUS
10
2.6780059999999999
20
-12.6199269999999988
11
2.48753
21
-12.5246889999999986
0
LINE
8
BLACK
6
CONTINUOUS
10
2.48753
20
-12.5246889999999986
11
2.3922919999999999
21
-12.4294499999999992
0
LINE
8
BLACK
6
CONTINUOUS
10
4.4875299999999996
20
-12.4294499999999992
11
4.5827679999999997
21
-12.5246889999999986
0
LINE
8
BLACK
6
CONTINUOUS
10
4.5827679999999997
20
-12.5246889999999986
11
4.4875299999999996
21
-12.6199269999999988
0
LINE
8
BLACK
6
CONTINUOUS
10
4.4875299999999996
20
-12.6199269999999988
11
4.3922919999999994
21
-12.5246889999999986
0
LINE
8
BLACK
6
CONTINUOUS
10
4.3922919999999994
20
-12.5246889999999986
11
4.4875299999999996
21
-12.4294499999999992
0
LINE
8
BLACK
6
CONTINUOUS
10
4.4875299999999996
20
-12.4294499999999992
11
4.4875299999999996
21
-12.6199269999999988
0
LINE
8
BLACK
6
CONTINUOUS
10
5.3446729999999993
20
-10.8104029999999991
11
5.4399109999999995
21
-10.7151649999999989
0
LINE
8
BLACK
6
CONTINUOUS
10
5.4399109999999995
20
-10.7151649999999989
11
5.6303869999999998
21
-10.6199269999999988
0
LINE
8
BLACK
6
CONTINUOUS
10
5.6303869999999998
20
-10.6199269999999988
11
6.1065779999999998
21
-10.6199269999999988
0
LINE
8
BLACK
6
CONTINUOUS
10
6.1065779999999998
20
-10.6199269999999988
11
6.2970540000000002
21
-10.7151649999999989
0
LINE
8
BLACK
6
CONTINUOUS
10
6.2970540000000002
20
-10.7151649999999989
11
6.3922919999999994
21
-10.8104029999999991
0
LINE
8
BLACK
6
CONTINUOUS
10
6.3922919999999994
20
-10.8104029999999991
11
6.4875299999999996
21
-11.0008789999999994
0
LINE
8
BLACK
6
CONTINUOUS
10
6.4875299999999996
20
-11.0008789999999994
11
6.4875299999999996
21
-11.1913549999999997
0
LINE
8
BLACK
6
CONTINUOUS
10
6.4875299999999996
20
-11.1913549999999997
11
6.3922919999999994
21
-11.4770690000000002
0
LINE
8
BLACK
6
CONTINUOUS
10
6.3922919999999994
20
-11.4770690000000002
11
5.2494350000000001
21
-12.6199269999999988
0
LINE
8
BLACK
6
CONTINUOUS
10
5.2494350000000001
20
-12.6199269999999988
11
6.4875299999999996
21
-12.6199269999999988
0
LINE
8
BLACK
6
CONTINUOUS
10
7.725625
20
-10.6199269999999988
11
7.9161019999999995
21
-10.6199269999999988
0
LINE
8
BLACK
6
CONTINUOUS
10
7.9161019999999995
20
-10.6199269999999988
11
8.106577999999999
21
-10.7151649999999989
0
LINE
8
BLACK
6
CONTINUOUS
10
8.106577999999999
20
-10.7151649999999989
11
8.2018159999999991
21
-10.8104029999999991
0
LINE
8
BLACK
6
CONTINUOUS
10
8.2018159999999991
20
-10.8104029999999991
11
8.2970539999999993
21
-11.0008789999999994
0
LINE
8
BLACK
6
CONTINUOUS
10
8.2970539999999993
20
-11.0008789999999994
11
8.3922919999999994
21
-11.381831
0
LINE
8
BLACK
6
CONTINUOUS
10
8.3922919999999994
20
-11.381831
11
8.3922919999999994
21
-11.8580220000000001
0
LINE
8
BLACK
6
CONTINUOUS
10
8.3922919999999994
20
-11.8580220000000001
11
8.2970539999999993
21
-12.2389739999999989
0
LINE
8
BLACK
6
CONTINUOUS
10
8.2970539999999993
20
-12.2389739999999989
11
8.2018159999999991
21
-12.4294499999999992
0
LINE
8
BLACK
6
CONTINUOUS
10
8.2018159999999991
20
-12.4294499999999992
11
8.106577999999999
21
-12.5246889999999986
0
LINE
8
BLACK
6
CONTINUOUS
10
8.106577999999999
20
-12.5246889999999986
11
7.9161019999999995
21
-12.6199269999999988
0
LINE
8
BLACK
6
CONTINUOUS
10
7.9161019999999995
20
-12.6199269999999988
11
7.725625
21
-12.6199269999999988
0
LINE
8
BLACK
6
CONTINUOUS
10
7.725625
20
-12.6199269999999988
11
7.5351489999999997
21
-12.5246889999999986
0
LINE
8
BLACK
6
CONTINUOUS
10
7.5351489999999997
20
-12.5246889999999986
11
7.4399109999999995
21
-12.4294499999999992
0
LINE
8
BLACK
6
CONTINUOUS
10
7.4399109999999995
20
-12.4294499999999992
11
7.3446729999999993
21
-12.2389739999999989
0
LINE
8
BLACK
6
CONTINUOUS
10
7.3446729999999993
20
-12.2389739999999989
11
7.2494350000000001
21
-11.8580220000000001
0
LINE
8
BLACK
6
CONTINUOUS
10
7.2494350000000001
20
-11.8580220000000001
11
7.2494350000000001
21
-11.381831
0
LINE
8
BLACK
6
CONTINUOUS
10
7.2494350000000001
20
-11.381831
11
7.3446729999999993
21
-11.0008789999999994
0
LINE
8
BLACK
6
CONTINUOUS
10
7.3446729999999993
20
-11.0008789999999994
11
7.4399109999999995
21
-10.8104029999999991
0
LINE
8
BLACK
6
CONTINUOUS
10
7.4399109999999995
20
-10.8104029999999991
11
7.5351489999999997
21
-10.7151649999999989
0
LINE
8
BLACK
6
CONTINUOUS
10
7.5351489999999997
20
-10.7151649999999989
11
7.725625
21
-10.6199269999999988
0
LINE
8
BLACK
6
CONTINUOUS
10
9.6303869999999989
20
-10.6199269999999988
11
9.8208640000000003
21
-10.6199269999999988
0
LINE
8
BLACK
6
CONTINUOUS
10
9.8208640000000003
20
-10.6199269999999988
11
10.0113399999999988
21
-10.7151649999999989
0
LINE
8
BLACK
6
CONTINUOUS
10
10.0113399999999988
20
-10.7151649999999989
11
10.106577999999999
21
-10.8104029999999991
0
LINE
8
BLACK
6
CONTINUOUS
10
10.106577999999999
20
-10.8104029999999991
11
10.2018159999999991
21
-11.0008789999999994
0
LINE
8
BLACK
6
CONTINUOUS
10
10.2018159999999991
20
-11.0008789999999994
11
10.2970539999999993
21
-11.381831
0
LINE
8
BLACK
6
CONTINUOUS
10
10.2970539999999993
20
-11.381831
11
10.2970539999999993
21
-11.8580220000000001
0
LINE
8
BLACK
6
CONTINUOUS
10
10.2970539999999993
20
-11.8580220000000001
11
10.2018159999999991
21
-12.2389739999999989
0
LINE
8
BLACK
6
CONTINUOUS
10
10.2018159999999991
20
-12.2389739999999989
11
10.106577999999999
21
-12.4294499999999992
0
LINE
8
BLACK
6
CONTINUOUS
10
10.106577999999999
20
-12.4294499999999992
11
10.0113399999999988
21
-12.5246889999999986
0
LINE
8
BLACK
6
CONTINUOUS
10
10.0113399999999988
20
-12.5246889999999986
11
9.8208640000000003
21
-12.6199269999999988
0
LINE
8
BLACK
6
CONTINUOUS
10
9.8208640000000003
20
-12.6199269999999988
11
9.6303869999999989
21
-12.6199269999999988
0
LINE
8
BLACK
6
CONTINUOUS
10
9.6303869999999989
20
-12.6199269999999988
11
9.4399110000000004
21
-12.5246889999999986
0
LINE
8
BLACK
6
CONTINUOUS
10
9.4399110000000004
20
-12.5246889999999986
11
9.3446730000000002
21
-12.4294499999999992
0
LINE
8
BLACK
6
CONTINUOUS
10
9.3446730000000002
20
-12.4294499999999992
11
9.2494350000000001
21
-12.2389739999999989
0
LINE
8
BLACK
6
CONTINUOUS
10
9.2494350000000001
20
-12.2389739999999989
11
9.1541969999999999
21
-11.8580220000000001
0
LINE
8
BLACK
6
CONTINUOUS
10
9.1541969999999999
20
-11.8580220000000001
11
9.1541969999999999
21
-11.381831
0
LINE
8
BLACK
6
CONTINUOUS
10
9.1541969999999999
20
-11.381831
11
9.2494350000000001
21
-11.0008789999999994
0
LINE
8
BLACK
6
CONTINUOUS
10
9.2494350000000001
20
-11.0008789999999994
11
9.3446730000000002
21
-10.8104029999999991
0
LINE
8
BLACK
6
CONTINUOUS
10
9.3446730000000002
20
-10.8104029999999991
11
9.4399110000000004
21
-10.7151649999999989
0
LINE
8
BLACK
6
CONTINUOUS
10
9.4399110000000004
20
-10.7151649999999989
11
9.6303869999999989
21
-10.6199269999999988
0
LINE
8
BLACK
6
CONTINUOUS
10
11.1541969999999999
20
-12.6199269999999988
11
11.1541969999999999
21
-11.2865929999999999
0
LINE
8
BLACK
6
CONTINUOUS
10
11.1541969999999999
20
-11.4770690000000002
11
11.2494350000000001
21
-11.381831
0
LINE
8
BLACK
6
CONTINUOUS
10
11.2494350000000001
20
-11.381831
11
11.4399109999999986
21
-11.2865929999999999
0
LINE
8
BLACK
6
CONTINUOUS
10
11.4399109999999986
20
-11.2865929999999999
11
11.7256260000000001
21
-11.2865929999999999
0
LINE
8
BLACK
6
CONTINUOUS
10
11.7256260000000001
20
-11.2865929999999999
11
11.9161019999999986
21
-11.381831
0
LINE
8
BLACK
6
CONTINUOUS
10
11.9161019999999986
20
-11.381831
11
12.0113399999999988
21
-11.5723079999999996
0
LINE
8
BLACK
6
CONTINUOUS
10
12.0113399999999988
20
-11.5723079999999996
11
12.0113399999999988
21
-12.6199269999999988
0
LINE
8
BLACK
6
CONTINUOUS
10
12.0113399999999988
20
-11.5723079999999996
11
12.106577999999999
21
-11.381831
0
LINE
8
BLACK
6
CONTINUOUS
10
12.106577999999999
20
-11.381831
11
12.2970539999999993
21
-11.2865929999999999
0
LINE
8
BLACK
6
CONTINUOUS
10
12.2970539999999993
20
-11.2865929999999999
11
12.5827679999999997
21
-11.2865929999999999
0
LINE
8
BLACK
6
CONTINUOUS
10
12.5827679999999997
20
-11.2865929999999999
11
12.7732449999999993
21
-11.381831
0
LINE
8
BLACK
6
CONTINUOUS
10
12.7732449999999993
20
-11.381831
11
12.8684829999999994
21
-11.5723079999999996
0
LINE
8
BLACK
6
CONTINUOUS
10
12.8684829999999994
20
-11.5723079999999996
11
12.8684829999999994
21
-12.6199269999999988
0
LINE
8
BLACK
6
CONTINUOUS
10
13.8208640000000003
20
-12.6199269999999988
11
13.8208640000000003
21
-11.2865929999999999
0
LINE
8
BLACK
6
CONTINUOUS
10
13.8208640000000003
20
-11.4770690000000002
11
13.9161019999999986
21
-11.381831
0
LINE
8
BLACK
6
CONTINUOUS
10
13.9161019999999986
20
-11.381831
11
14.106577999999999
21
-11.2865929999999999
0
LINE
8
BLACK
6
CONTINUOUS
10
14.106577999999999
20
-11.2865929999999999
11
14.3922929999999987
21
-11.2865929999999999
0
LINE
8
BLACK
6
CONTINUOUS
10
14.3922929999999987
20
-11.2865929999999999
11
14.582768999999999
21
-11.381831
0
LINE
8
BLACK
6
CONTINUOUS
10
14.582768999999999
20
-11.381831
11
14.6780069999999991
21
-11.5723079999999996
0
LINE
8
BLACK
6
CONTINUOUS
10
14.6780069999999991
20
-11.5723079999999996
11
14.6780069999999991
21
-12.6199269999999988
0
LINE
8
BLACK
6
CONTINUOUS
10
14.6780069999999991
20
-11.5723079999999996
11
14.7732449999999993
21
-11.381831
0
LINE
8
BLACK
6
CONTINUOUS
10
14.7732449999999993
20
-11.381831
11
14.9637209999999996
21
-11.2865929999999999
0
LINE
8
BLACK
6
CONTINUOUS
10
14.9637209999999996
20
-11.2865929999999999
11
15.2494350000000001
21
-11.2865929999999999
0
LINE
8
BLACK
6
CONTINUOUS
10
15.2494350000000001
20
-11.2865929999999999
11
15.4399119999999996
21
-11.381831
0
LINE
8
BLACK
6
CONTINUOUS
10
15.4399119999999996
20
-11.381831
11
15.5351499999999998
21
-11.5723079999999996
0
LINE
8
BLACK
6
CONTINUOUS
10
15.5351499999999998
20
-11.5723079999999996
11
15.5351499999999998
21
-12.6199269999999988
0
LINE
8
BLACK
6
CONTINUOUS
10
19.4399119999999996
20
-10.5246890000000004
11
17.7256269999999994
21
-13.0961169999999996
0
LINE
8
BLACK
6
CONTINUOUS
10
22.011340999999998
20
-10.6199269999999988
11
22.2018179999999994
21
-10.6199269999999988
0
LINE
8
BLACK
6
CONTINUOUS
10
22.2018179999999994
20
-10.6199269999999988
11
22.3922939999999997
21
-10.7151649999999989
0
LINE
8
BLACK
6
CONTINUOUS
10
22.3922939999999997
20
-10.7151649999999989
11
22.4875319999999981
21
-10.8104029999999991
0
LINE
8
BLACK
6
CONTINUOUS
10
22.4875319999999981
20
-10.8104029999999991
11
22.58277
21
-11.0008789999999994
0
LINE
8
BLACK
6
CONTINUOUS
10
22.58277
20
-11.0008789999999994
11
22.6780079999999984
21
-11.381831
0
LINE
8
BLACK
6
CONTINUOUS
10
22.6780079999999984
20
-11.381831
11
22.6780079999999984
21
-11.8580220000000001
0
LINE
8
BLACK
6
CONTINUOUS
10
22.6780079999999984
20
-11.8580220000000001
11
22.58277
21
-12.2389739999999989
0
LINE
8
BLACK
6
CONTINUOUS
10
22.58277
20
-12.2389739999999989
11
22.4875319999999981
21
-12.4294499999999992
0
LINE
8
BLACK
6
CONTINUOUS
10
22.4875319999999981
20
-12.4294499999999992
11
22.3922939999999997
21
-12.5246889999999986
0
LINE
8
BLACK
6
CONTINUOUS
10
22.3922939999999997
20
-12.5246889999999986
11
22.2018179999999994
21
-12.6199269999999988
0
LINE
8
BLACK
6
CONTINUOUS
10
22.2018179999999994
20
-12.6199269999999988
11
22.011340999999998
21
-12.6199269999999988
0
LINE
8
BLACK
6
CONTINUOUS
10
22.011340999999998
20
-12.6199269999999988
11
21.8208649999999977
21
-12.5246889999999986
0
LINE
8
BLACK
6
CONTINUOUS
10
21.8208649999999977
20
-12.5246889999999986
11
21.7256269999999994
21
-12.4294499999999992
0
LINE
8
BLACK
6
CONTINUOUS
10
21.7256269999999994
20
-12.4294499999999992
11
21.6303889999999974
21
-12.2389739999999989
0
LINE
8
BLACK
6
CONTINUOUS
10
21.6303889999999974
20
-12.2389739999999989
11
21.535150999999999
21
-11.8580220000000001
0
LINE
8
BLACK
6
CONTINUOUS
10
21.535150999999999
20
-11.8580220000000001
11
21.535150999999999
21
-11.381831
0
LINE
8
BLACK
6
CONTINUOUS
10
21.535150999999999
20
-11.381831
11
21.6303889999999974
21
-11.0008789999999994
0
LINE
8
BLACK
6
CONTINUOUS
10
21.6303889999999974
20
-11.0008789999999994
11
21.7256269999999994
21
-10.8104029999999991
0
LINE
8
BLACK
6
CONTINUOUS
10
21.7256269999999994
20
-10.8104029999999991
11
21.8208649999999977
21
-10.7151649999999989
0
LINE
8
BLACK
6
CONTINUOUS
10
21.8208649999999977
20
-10.7151649999999989
11
22.011340999999998
21
-10.6199269999999988
0
LINE
8
BLACK
6
CONTINUOUS
10
23.535150999999999
20
-12.4294499999999992
11
23.6303889999999974
21
-12.5246889999999986
0
LINE
8
BLACK
6
CONTINUOUS
10
23.6303889999999974
20
-12.5246889999999986
11
23.535150999999999
21
-12.6199269999999988
0
LINE
8
BLACK
6
CONTINUOUS
10
23.535150999999999
20
-12.6199269999999988
11
23.4399130000000007
21
-12.5246889999999986
0
LINE
8
BLACK
6
CONTINUOUS
10
23.4399130000000007
20
-12.5246889999999986
11
23.535150999999999
21
-12.4294499999999992
0
LINE
8
BLACK
6
CONTINUOUS
10
23.535150999999999
20
-12.4294499999999992
11
23.535150999999999
21
-12.6199269999999988
0
LINE
8
BLACK
6
CONTINUOUS
10
25.535150999999999
20
-12.6199269999999988
11
24.3922939999999997
21
-12.6199269999999988
0
LINE
8
BLACK
6
CONTINUOUS
10
24.9637220000000006
20
-12.6199269999999988
11
24.9637220000000006
21
-10.6199269999999988
0
LINE
8
BLACK
6
CONTINUOUS
10
24.9637220000000006
20
-10.6199269999999988
11
24.7732460000000003
21
-10.9056409999999993
0
LINE
8
BLACK
6
CONTINUOUS
10
24.7732460000000003
20
-10.9056409999999993
11
24.58277
21
-11.0961169999999996
0
LINE
8
BLACK
6
CONTINUOUS
10
24.58277
20
-11.0961169999999996
11
24.3922939999999997
21
-11.1913549999999997
0
LINE
8
BLACK
6
CONTINUOUS
10
26.2970559999999978
20
-10.8104029999999991
11
26.3922939999999997
21
-10.7151649999999989
0
LINE
8
BLACK
6
CONTINUOUS
10
26.3922939999999997
20
-10.7151649999999989
11
26.58277
21
-10.6199269999999988
0
LINE
8
BLACK
6
CONTINUOUS
10
26.58277
20
-10.6199269999999988
11
27.058961
21
-10.6199269999999988
0
LINE
8
BLACK
6
CONTINUOUS
10
27.058961
20
-10.6199269999999988
11
27.2494370000000004
21
-10.7151649999999989
0
LINE
8
BLACK
6
CONTINUOUS
10
27.2494370000000004
20
-10.7151649999999989
11
27.3446749999999987
21
-10.8104029999999991
0
LINE
8
BLACK
6
CONTINUOUS
10
27.3446749999999987
20
-10.8104029999999991
11
27.4399129999999971
21
-11.0008789999999994
0
LINE
8
BLACK
6
CONTINUOUS
10
27.4399129999999971
20
-11.0008789999999994
11
27.4399129999999971
21
-11.1913549999999997
0
LINE
8
BLACK
6
CONTINUOUS
10
27.4399129999999971
20
-11.1913549999999997
11
27.3446749999999987
21
-11.4770690000000002
0
LINE
8
BLACK
6
CONTINUOUS
10
27.3446749999999987
20
-11.4770690000000002
11
26.2018179999999994
21
-12.6199269999999988
0
LINE
8
BLACK
6
CONTINUOUS
10
26.2018179999999994
20
-12.6199269999999988
11
27.4399129999999971
21
-12.6199269999999988
0
LINE
8
BLACK
6
CONTINUOUS
10
29.1541989999999984
20
-10.6199269999999988
11
28.7732460000000003
21
-10.6199269999999988
0
LINE
8
BLACK
6
CONTINUOUS
10
28.7732460000000003
20
-10.6199269999999988
11
28.58277
21
-10.7151649999999989
0
LINE
8
BLACK
6
CONTINUOUS
10
28.58277
20
-10.7151649999999989
11
28.4875319999999981
21
-10.8104029999999991
0
LINE
8
BLACK
6
CONTINUOUS
10
28.4875319999999981
20
-10.8104029999999991
11
28.2970559999999978
21
-11.0961169999999996
0
LINE
8
BLACK
6
CONTINUOUS
10
28.2970559999999978
20
-11.0961169999999996
11
28.2018179999999994
21
-11.4770690000000002
0
LINE
8
BLACK
6
CONTINUOUS
10
28.2018179999999994
20
-11.4770690000000002
11
28.2018179999999994
21
-12.2389739999999989
0
LINE
8
BLACK
6
CONTINUOUS
10
28.2018179999999994
20
-12.2389739999999989
11
28.2970559999999978
21
-12.4294499999999992
0
LINE
8
BLACK
6
CONTINUOUS
10
28.2970559999999978
20
-12.4294499999999992
11
28.3922939999999997
21
-12.5246889999999986
0
LINE
8
BLACK
6
CONTINUOUS
10
28.3922939999999997
20
-12.5246889999999986
11
28.58277
21
-12.6199269999999988
0
LINE
8
BLACK
6
CONTINUOUS
10
28.58277
20
-12.6199269999999988
11
28.9637229999999981
21
-12.6199269999999988
0
LINE
8
BLACK
6
CONTINUOUS
10
28.9637229999999981
20
-12.6199269999999988
11
29.1541989999999984
21
-12.5246889999999986
0
LINE
8
BLACK
6
CONTINUOUS
10
29.1541989999999984
20
-12.5246889999999986
11
29.2494370000000004
21
-12.4294499999999992
0
LINE
8
BLACK
6
CONTINUOUS
10
29.2494370000000004
20
-12.4294499999999992
11
29.3446749999999987
21
-12.2389739999999989
0
LINE
8
BLACK
6
CONTINUOUS
10
29.3446749999999987
20
-12.2389739999999989
11
29.3446749999999987
21
-11.7627839999999999
0
LINE
8
BLACK
6
CONTINUOUS
10
29.3446749999999987
20
-11.7627839999999999
11
29.2494370000000004
21
-11.5723079999999996
0
LINE
8
BLACK
6
CONTINUOUS
10
29.2494370000000004
20
-11.5723079999999996
11
29.1541989999999984
21
-11.4770690000000002
0
LINE
8
BLACK
6
CONTINUOUS
10
29.1541989999999984
20
-11.4770690000000002
11
28.9637229999999981
21
-11.381831
0
LINE
8
BLACK
6
CONTINUOUS
10
28.9637229999999981
20
-11.381831
11
28.58277
21
-11.381831
0
LINE
8
BLACK
6
CONTINUOUS
10
28.58277
20
-11.381831
11
28.3922939999999997
21
-11.4770690000000002
0
LINE
8
BLACK
6
CONTINUOUS
10
28.3922939999999997
20
-11.4770690000000002
11
28.2970559999999978
21
-11.5723079999999996
0
LINE
8
BLACK
6
CONTINUOUS
10
28.2970559999999978
20
-11.5723079999999996
11
28.2018179999999994
21
-11.7627839999999999
0
LINE
8
BLACK
6
CONTINUOUS
10
30.58277
20
-10.6199269999999988
11
30.7732469999999978
21
-10.6199269999999988
0
LINE
8
BLACK
6
CONTINUOUS
10
30.7732469999999978
20
-10.6199269999999988
11
30.9637229999999981
21
-10.7151649999999989
0
LINE
8
BLACK
6
CONTINUOUS
10
30.9637229999999981
20
-10.7151649999999989
11
31.058961
21
-10.8104029999999991
0
LINE
8
BLACK
6
CONTINUOUS
10
31.058961
20
-10.8104029999999991
11
31.1541989999999984
21
-11.0008789999999994
0
LINE
8
BLACK
6
CONTINUOUS
10
31.1541989999999984
20
-11.0008789999999994
11
31.2494370000000004
21
-11.381831
0
LINE
8
BLACK
6
CONTINUOUS
10
31.2494370000000004
20
-11.381831
11
31.2494370000000004
21
-11.8580220000000001
0
LINE
8
BLACK
6
CONTINUOUS
10
31.2494370000000004
20
-11.8580220000000001
11
31.1541989999999984
21
-12.2389739999999989
0
LINE
8
BLACK
6
CONTINUOUS
10
31.1541989999999984
20
-12.2389739999999989
11
31.058961
21
-12.4294499999999992
0
LINE
8
BLACK
6
CONTINUOUS
10
31.058961
20
-12.4294499999999992
11
30.9637229999999981
21
-12.5246889999999986
0
LINE
8
BLACK
6
CONTINUOUS
10
30.9637229999999981
20
-12.5246889999999986
11
30.7732469999999978
21
-12.6199269999999988
0
LINE
8
BLACK
6
CONTINUOUS
10
30.7732469999999978
20
-12.6199269999999988
11
30.58277
21
-12.6199269999999988
0
LINE
8
BLACK
6
CONTINUOUS
10
30.58277
20
-12.6199269999999988
11
30.3922939999999997
21
-12.5246889999999986
0
LINE
8
BLACK
6
CONTINUOUS
10
30.3922939999999997
20
-12.5246889999999986
11
30.2970559999999978
21
-12.4294499999999992
0
LINE
8
BLACK
6
CONTINUOUS
10
30.2970559999999978
20
-12.4294499999999992
11
30.2018179999999994
21
-12.2389739999999989
0
LINE
8
BLACK
6
CONTINUOUS
10
30.2018179999999994
20
-12.2389739999999989
11
30.1065799999999975
21
-11.8580220000000001
0
LINE
8
BLACK
6
CONTINUOUS
10
30.1065799999999975
20
-11.8580220000000001
11
30.1065799999999975
21
-11.381831
0
LINE
8
BLACK
6
CONTINUOUS
10
30.1065799999999975
20
-11.381831
11
30.2018179999999994
21
-11.0008789999999994
0
LINE
8
BLACK
6
CONTINUOUS
10
30.2018179999999994
20
-11.0008789999999994
11
30.2970559999999978
21
-10.8104029999999991
0
LINE
8
BLACK
6
CONTINUOUS
10
30.2970559999999978
20
-10.8104029999999991
11
30.3922939999999997
21
-10.7151649999999989
0
LINE
8
BLACK
6
CONTINUOUS
10
30.3922939999999997
20
-10.7151649999999989
11
30.58277
21
-10.6199269999999988
0
LINE
8
BLACK
6
CONTINUOUS
10
32.0113419999999991
20
-10.6199269999999988
11
32.0113419999999991
21
-11.0008789999999994
0
LINE
8
BLACK
6
CONTINUOUS
10
32.7732469999999978
20
-10.6199269999999988
11
32.7732469999999978
21
-11.0008789999999994
0
LINE
8
BLACK
6
CONTINUOUS
10
35.7256289999999979
20
-13.381831
11
35.6303899999999985
21
-13.2865929999999999
0
LINE
8
BLACK
6
CONTINUOUS
10
35.6303899999999985
20
-13.2865929999999999
11
35.4399140000000017
21
-13.0008789999999994
0
LINE
8
BLACK
6
CONTINUOUS
10
35.4399140000000017
20
-13.0008789999999994
11
35.3446759999999998
21
-12.8104029999999991
0
LINE
8
BLACK
6
CONTINUOUS
10
35.3446759999999998
20
-12.8104029999999991
11
35.2494379999999978
21
-12.5246889999999986
0
LINE
8
BLACK
6
CONTINUOUS
10
35.2494379999999978
20
-12.5246889999999986
11
35.1541999999999959
21
-12.0484979999999986
0
LINE
8
BLACK
6
CONTINUOUS
10
35.1541999999999959
20
-12.0484979999999986
11
35.1541999999999959
21
-11.6675459999999998
0
LINE
8
BLACK
6
CONTINUOUS
10
35.1541999999999959
20
-11.6675459999999998
11
35.2494379999999978
21
-11.1913549999999997
0
LINE
8
BLACK
6
CONTINUOUS
10
35.2494379999999978
20
-11.1913549999999997
11
35.3446759999999998
21
-10.9056409999999993
0
LINE
8
BLACK
6
CONTINUOUS
10
35.3446759999999998
20
-10.9056409999999993
11
35.4399140000000017
21
-10.7151649999999989
0
LINE
8
BLACK
6
CONTINUOUS
10
35.4399140000000017
20
-10.7151649999999989
11
35.6303899999999985
21
-10.4294499999999992
0
LINE
8
BLACK
6
CONTINUOUS
10
35.6303899999999985
20
-10.4294499999999992
11
35.7256289999999979
21
-10.3342119999999991
0
LINE
8
BLACK
6
CONTINUOUS
10
37.3446759999999998
20
-11.2865929999999999
11
37.3446759999999998
21
-12.6199269999999988
0
LINE
8
BLACK
6
CONTINUOUS
10
36.8684849999999997
20
-10.5246890000000004
11
36.3922949999999972
21
-11.9532600000000002
0
LINE
8
BLACK
6
CONTINUOUS
10
36.3922949999999972
20
-11.9532600000000002
11
37.6303899999999985
21
-11.9532600000000002
0
LINE
8
BLACK
6
CONTINUOUS
10
39.9161050000000017
20
-12.6199269999999988
11
39.9161050000000017
21
-10.6199269999999988
0
LINE
8
BLACK
6
CONTINUOUS
10
40.7732479999999953
20
-12.6199269999999988
11
40.7732479999999953
21
-11.5723079999999996
0
LINE
8
BLACK
6
CONTINUOUS
10
40.7732479999999953
20
-11.5723079999999996
11
40.6780100000000004
21
-11.381831
0
LINE
8
BLACK
6
CONTINUOUS
10
40.6780100000000004
20
-11.381831
11
40.4875339999999966
21
-11.2865929999999999
0
LINE
8
BLACK
6
CONTINUOUS
10
40.4875339999999966
20
-11.2865929999999999
11
40.2018190000000004
21
-11.2865929999999999
0
LINE
8
BLACK
6
CONTINUOUS
10
40.2018190000000004
20
-11.2865929999999999
11
40.0113429999999966
21
-11.381831
0
LINE
8
BLACK
6
CONTINUOUS
10
40.0113429999999966
20
-11.381831
11
39.9161050000000017
21
-11.4770690000000002
0
LINE
8
BLACK
6
CONTINUOUS
10
42.0113429999999966
20
-12.6199269999999988
11
41.8208669999999998
21
-12.5246889999999986
0
LINE
8
BLACK
6
CONTINUOUS
10
41.8208669999999998
20
-12.5246889999999986
11
41.7256289999999979
21
-12.4294499999999992
0
LINE
8
BLACK
6
CONTINUOUS
10
41.7256289999999979
20
-12.4294499999999992
11
41.6303909999999959
21
-12.2389739999999989
0
LINE
8
BLACK
6
CONTINUOUS
10
41.6303909999999959
20
-12.2389739999999989
11
41.6303909999999959
21
-11.6675459999999998
0
LINE
8
BLACK
6
CONTINUOUS
10
41.6303909999999959
20
-11.6675459999999998
11
41.7256289999999979
21
-11.4770690000000002
0
LINE
8
BLACK
6
CONTINUOUS
10
41.7256289999999979
20
-11.4770690000000002
11
41.8208669999999998
21
-11.381831
0
LINE
8
BLACK
6
CONTINUOUS
10
41.8208669999999998
20
-11.381831
11
42.0113429999999966
21
-11.2865929999999999
0
LINE
8
BLACK
6
CONTINUOUS
10
42.0113429999999966
20
-11.2865929999999999
11
42.2970579999999998
21
-11.2865929999999999
0
LINE
8
BLACK
6
CONTINUOUS
10
42.2970579999999998
20
-11.2865929999999999
11
42.4875339999999966
21
-11.381831
0
LINE
8
BLACK
6
CONTINUOUS
10
42.4875339999999966
20
-11.381831
11
42.5827719999999985
21
-11.4770690000000002
0
LINE
8
BLACK
6
CONTINUOUS
10
42.5827719999999985
20
-11.4770690000000002
11
42.6780100000000004
21
-11.6675459999999998
0
LINE
8
BLACK
6
CONTINUOUS
10
42.6780100000000004
20
-11.6675459999999998
11
42.6780100000000004
21
-12.2389739999999989
0
LINE
8
BLACK
6
CONTINUOUS
10
42.6780100000000004
20
-12.2389739999999989
11
42.5827719999999985
21
-12.4294499999999992
0
LINE
8
BLACK
6
CONTINUOUS
10
42.5827719999999985
20
-12.4294499999999992
11
42.4875339999999966
21
-12.5246889999999986
0
LINE
8
BLACK
6
CONTINUOUS
10
42.4875339999999966
20
-12.5246889999999986
11
42.2970579999999998
21
-12.6199269999999988
0
LINE
8
BLACK
6
CONTINUOUS
10
42.2970579999999998
20
-12.6199269999999988
11
42.0113429999999966
21
-12.6199269999999988
0
LINE
8
BLACK
6
CONTINUOUS
10
43.8208669999999998
20
-12.6199269999999988
11
43.6303909999999959
21
-12.5246889999999986
0
LINE
8
BLACK
6
CONTINUOUS
10
43.6303909999999959
20
-12.5246889999999986
11
43.5351530000000011
21
-12.3342119999999991
0
LINE
8
BLACK
6
CONTINUOUS
10
43.5351530000000011
20
-12.3342119999999991
11
43.5351530000000011
21
-10.6199269999999988
0
LINE
8
BLACK
6
CONTINUOUS
10
45.3446769999999972
20
-12.5246889999999986
11
45.1542010000000005
21
-12.6199269999999988
0
LINE
8
BLACK
6
CONTINUOUS
10
45.1542010000000005
20
-12.6199269999999988
11
44.7732479999999953
21
-12.6199269999999988
0
LINE
8
BLACK
6
CONTINUOUS
10
44.7732479999999953
20
-12.6199269999999988
11
44.5827719999999985
21
-12.5246889999999986
0
LINE
8
BLACK
6
CONTINUOUS
10
44.5827719999999985
20
-12.5246889999999986
11
44.4875339999999966
21
-12.3342119999999991
0
LINE
8
BLACK
6
CONTINUOUS
10
44.4875339999999966
20
-12.3342119999999991
11
44.4875339999999966
21
-11.5723079999999996
0
LINE
8
BLACK
6
CONTINUOUS
10
44.4875339999999966
20
-11.5723079999999996
11
44.5827719999999985
21
-11.381831
0
LINE
8
BLACK
6
CONTINUOUS
10
44.5827719999999985
20
-11.381831
11
44.7732479999999953
21
-11.2865929999999999
0
LINE
8
BLACK
6
CONTINUOUS
10
44.7732479999999953
20
-11.2865929999999999
11
45.1542010000000005
21
-11.2865929999999999
0
LINE
8
BLACK
6
CONTINUOUS
10
45.1542010000000005
20
-11.2865929999999999
11
45.3446769999999972
21
-11.381831
0
LINE
8
BLACK
6
CONTINUOUS
10
45.3446769999999972
20
-11.381831
11
45.4399149999999992
21
-11.5723079999999996
0
LINE
8
BLACK
6
CONTINUOUS
10
45.4399149999999992
20
-11.5723079999999996
11
45.4399149999999992
21
-11.7627839999999999
0
LINE
8
BLACK
6
CONTINUOUS
10
45.4399149999999992
20
-11.7627839999999999
11
44.4875339999999966
21
-11.9532600000000002
0
LINE
8
BLACK
6
CONTINUOUS
10
46.2018199999999979
20
-12.5246889999999986
11
46.3922959999999946
21
-12.6199269999999988
0
LINE
8
BLACK
6
CONTINUOUS
10
46.3922959999999946
20
-12.6199269999999988
11
46.7732479999999953
21
-12.6199269999999988
0
LINE
8
BLACK
6
CONTINUOUS
10
46.7732479999999953
20
-12.6199269999999988
11
46.9637249999999966
21
-12.5246889999999986
0
LINE
8
BLACK
6
CONTINUOUS
10
46.9637249999999966
20
-12.5246889999999986
11
47.0589629999999985
21
-12.3342119999999991
0
LINE
8
BLACK
6
CONTINUOUS
10
47.0589629999999985
20
-12.3342119999999991
11
47.0589629999999985
21
-12.2389739999999989
0
LINE
8
BLACK
6
CONTINUOUS
10
47.0589629999999985
20
-12.2389739999999989
11
46.9637249999999966
21
-12.0484979999999986
0
LINE
8
BLACK
6
CONTINUOUS
10
46.9637249999999966
20
-12.0484979999999986
11
46.7732479999999953
21
-11.9532600000000002
0
LINE
8
BLACK
6
CONTINUOUS
10
46.7732479999999953
20
-11.9532600000000002
11
46.4875339999999966
21
-11.9532600000000002
0
LINE
8
BLACK
6
CONTINUOUS
10
46.4875339999999966
20
-11.9532600000000002
11
46.2970579999999998
21
-11.8580220000000001
0
LINE
8
BLACK
6
CONTINUOUS
10
46.2970579999999998
20
-11.8580220000000001
11
46.2018199999999979
21
-11.6675459999999998
0
LINE
8
BLACK
6
CONTINUOUS
10
46.2018199999999979
20
-11.6675459999999998
11
46.2018199999999979
21
-11.5723079999999996
0
LINE
8
BLACK
6
CONTINUOUS
10
46.2018199999999979
20
-11.5723079999999996
11
46.2970579999999998
21
-11.381831
0
LINE
8
BLACK
6
CONTINUOUS
10
46.2970579999999998
20
-11.381831
11
46.4875339999999966
21
-11.2865929999999999
0
LINE
8
BLACK
6
CONTINUOUS
10
46.4875339999999966
20
-11.2865929999999999
11
46.7732479999999953
21
-11.2865929999999999
0
LINE
8
BLACK
6
CONTINUOUS
10
46.7732479999999953
20
-11.2865929999999999
11
46.9637249999999966
21
-11.381831
0
LINE
8
BLACK
6
CONTINUOUS
10
47.7256299999999953
20
-13.381831
11
47.8208679999999973
21
-13.2865929999999999
0
LINE
8
BLACK
6
CONTINUOUS
10
47.8208679999999973
20
-13.2865929999999999
11
48.0113440000000011
21
-13.0008789999999994
0
LINE
8
BLACK
6
CONTINUOUS
10
48.0113440000000011
20
-13.0008789999999994
11
48.106581999999996
21
-12.8104029999999991
0
LINE
8
BLACK
6
CONTINUOUS
10
48.106581999999996
20
-12.8104029999999991
11
48.2018199999999979
21
-12.5246889999999986
0
LINE
8
BLACK
6
CONTINUOUS
10
48.2018199999999979
20
-12.5246889999999986
11
48.2970579999999998
21
-12.0484979999999986
0
LINE
8
BLACK
6
CONTINUOUS
10
48.2970579999999998
20
-12.0484979999999986
11
48.2970579999999998
21
-11.6675459999999998
0
LINE
8
BLACK
6
CONTINUOUS
10
48.2970579999999998
20
-11.6675459999999998
11
48.2018199999999979
21
-11.1913549999999997
0
LINE
8
BLACK
6
CONTINUOUS
10
48.2018199999999979
20
-11.1913549999999997
11
48.106581999999996
21
-10.9056409999999993
0
LINE
8
BLACK
6
CONTINUOUS
10
48.106581999999996
20
-10.9056409999999993
11
48.0113440000000011
21
-10.7151649999999989
0
LINE
8
BLACK
6
CONTINUOUS
10
48.0113440000000011
20
-10.7151649999999989
11
47.8208679999999973
21
-10.4294499999999992
0
LINE
8
BLACK
6
CONTINUOUS
10
47.8208679999999973
20
-10.4294499999999992
11
47.7256299999999953
21
-10.3342119999999991
0
LINE
8
BLACK
6
CONTINUOUS
10
51.3446779999999947
20
-13.381831
11
51.2494389999999953
21
-13.2865929999999999
0
LINE
8
BLACK
6
CONTINUOUS
10
51.2494389999999953
20
-13.2865929999999999
11
51.0589629999999985
21
-13.0008789999999994
0
LINE
8
BLACK
6
CONTINUOUS
10
51.0589629999999985
20
-13.0008789999999994
11
50.9637249999999966
21
-12.8104029999999991
0
LINE
8
BLACK
6
CONTINUOUS
10
50.9637249999999966
20
-12.8104029999999991
11
50.8684869999999947
21
-12.5246889999999986
0
LINE
8
BLACK
6
CONTINUOUS
10
50.8684869999999947
20
-12.5246889999999986
11
50.7732489999999999
21
-12.0484979999999986
0
LINE
8
BLACK
6
CONTINUOUS
10
50.7732489999999999
20
-12.0484979999999986
11
50.7732489999999999
21
-11.6675459999999998
0
LINE
8
BLACK
6
CONTINUOUS
10
50.7732489999999999
20
-11.6675459999999998
11
50.8684869999999947
21
-11.1913549999999997
0
LINE
8
BLACK
6
CONTINUOUS
10
50.8684869999999947
20
-11.1913549999999997
11
50.9637249999999966
21
-10.9056409999999993
0
LINE
8
BLACK
6
CONTINUOUS
10
50.9637249999999966
20
-10.9056409999999993
11
51.0589629999999985
21
-10.7151649999999989
0
LINE
8
BLACK
6
CONTINUOUS
10
51.0589629999999985
20
-10.7151649999999989
11
51.2494389999999953
21
-10.4294499999999992
0
LINE
8
BLACK
6
CONTINUOUS
10
51.2494389999999953
20
-10.4294499999999992
11
51.3446779999999947
21
-10.3342119999999991
0
LINE
8
BLACK
6
CONTINUOUS
10
52.106581999999996
20
-11.2865929999999999
11
52.106581999999996
21
-12.6199269999999988
0
LINE
8
BLACK
6
CONTINUOUS
10
52.106581999999996
20
-11.4770690000000002
11
52.2018199999999979
21
-11.381831
0
LINE
8
BLACK
6
CONTINUOUS
10
52.2018199999999979
20
-11.381831
11
52.3922959999999946
21
-11.2865929999999999
0
LINE
8
BLACK
6
CONTINUOUS
10
52.3922959999999946
20
-11.2865929999999999
11
52.6780109999999979
21
-11.2865929999999999
0
LINE
8
BLACK
6
CONTINUOUS
10
52.6780109999999979
20
-11.2865929999999999
11
52.8684869999999947
21
-11.381831
0
LINE
8
BLACK
6
CONTINUOUS
10
52.8684869999999947
20
-11.381831
11
52.9637249999999966
21
-11.5723079999999996
0
LINE
8
BLACK
6
CONTINUOUS
10
52.9637249999999966
20
-11.5723079999999996
11
52.9637249999999966
21
-12.6199269999999988
0
LINE
8
BLACK
6
CONTINUOUS
10
54.2018199999999979
20
-12.6199269999999988
11
54.011343999999994
21
-12.5246889999999986
0
LINE
8
BLACK
6
CONTINUOUS
10
54.011343999999994
20
-12.5246889999999986
11
53.9161059999999992
21
-12.4294499999999992
0
LINE
8
BLACK
6
CONTINUOUS
10
53.9161059999999992
20
-12.4294499999999992
11
53.8208679999999973
21
-12.2389739999999989
0
LINE
8
BLACK
6
CONTINUOUS
10
53.8208679999999973
20
-12.2389739999999989
11
53.8208679999999973
21
-11.6675459999999998
0
LINE
8
BLACK
6
CONTINUOUS
10
53.8208679999999973
20
-11.6675459999999998
11
53.9161059999999992
21
-11.4770690000000002
0
LINE
8
BLACK
6
CONTINUOUS
10
53.9161059999999992
20
-11.4770690000000002
11
54.011343999999994
21
-11.381831
0
LINE
8
BLACK
6
CONTINUOUS
10
54.011343999999994
20
-11.381831
11
54.2018199999999979
21
-11.2865929999999999
0
LINE
8
BLACK
6
CONTINUOUS
10
54.2018199999999979
20
-11.2865929999999999
11
54.4875349999999941
21
-11.2865929999999999
0
LINE
8
BLACK
6
CONTINUOUS
10
54.4875349999999941
20
-11.2865929999999999
11
54.6780109999999979
21
-11.381831
0
LINE
8
BLACK
6
CONTINUOUS
10
54.6780109999999979
20
-11.381831
11
54.7732489999999999
21
-11.4770690000000002
0
LINE
8
BLACK
6
CONTINUOUS
10
54.7732489999999999
20
-11.4770690000000002
11
54.8684869999999947
21
-11.6675459999999998
0
LINE
8
BLACK
6
CONTINUOUS
10
54.8684869999999947
20
-11.6675459999999998
11
54.8684869999999947
21
-12.2389739999999989
0
LINE
8
BLACK
6
CONTINUOUS
10
54.8684869999999947
20
-12.2389739999999989
11
54.7732489999999999
21
-12.4294499999999992
0
LINE
8
BLACK
6
CONTINUOUS
10
54.7732489999999999
20
-12.4294499999999992
11
54.6780109999999979
21
-12.5246889999999986
0
LINE
8
BLACK
6
CONTINUOUS
10
54.6780109999999979
20
-12.5246889999999986
11
54.4875349999999941
21
-12.6199269999999988
0
LINE
8
BLACK
6
CONTINUOUS
10
54.4875349999999941
20
-12.6199269999999988
11
54.2018199999999979
21
-12.6199269999999988
0
LINE
8
BLACK
6
CONTINUOUS
10
55.4399159999999966
20
-11.2865929999999999
11
56.2018199999999979
21
-11.2865929999999999
0
LINE
8
BLACK
6
CONTINUOUS
10
55.7256299999999953
20
-10.6199269999999988
11
55.7256299999999953
21
-12.3342119999999991
0
LINE
8
BLACK
6
CONTINUOUS
10
55.7256299999999953
20
-12.3342119999999991
11
55.8208679999999973
21
-12.5246889999999986
0
LINE
8
BLACK
6
CONTINUOUS
10
55.8208679999999973
20
-12.5246889999999986
11
56.011343999999994
21
-12.6199269999999988
0
LINE
8
BLACK
6
CONTINUOUS
10
56.011343999999994
20
-12.6199269999999988
11
56.2018199999999979
21
-12.6199269999999988
0
LINE
8
BLACK
6
CONTINUOUS
10
58.3922969999999992
20
-11.2865929999999999
11
58.3922969999999992
21
-13.2865929999999999
0
LINE
8
BLACK
6
CONTINUOUS
10
58.3922969999999992
20
-11.381831
11
58.582772999999996
21
-11.2865929999999999
0
LINE
8
BLACK
6
CONTINUOUS
10
58.582772999999996
20
-11.2865929999999999
11
58.9637259999999941
21
-11.2865929999999999
0
LINE
8
BLACK
6
CONTINUOUS
10
58.9637259999999941
20
-11.2865929999999999
11
59.154201999999998
21
-11.381831
0
LINE
8
BLACK
6
CONTINUOUS
10
59.154201999999998
20
-11.381831
11
59.2494399999999999
21
-11.4770690000000002
0
LINE
8
BLACK
6
CONTINUOUS
10
59.2494399999999999
20
-11.4770690000000002
11
59.3446779999999947
21
-11.6675459999999998
0
LINE
8
BLACK
6
CONTINUOUS
10
59.3446779999999947
20
-11.6675459999999998
11
59.3446779999999947
21
-12.2389739999999989
0
LINE
8
BLACK
6
CONTINUOUS
10
59.3446779999999947
20
-12.2389739999999989
11
59.2494399999999999
21
-12.4294499999999992
0
LINE
8
BLACK
6
CONTINUOUS
10
59.2494399999999999
20
-12.4294499999999992
11
59.154201999999998
21
-12.5246889999999986
0
LINE
8
BLACK
6
CONTINUOUS
10
59.154201999999998
20
-12.5246889999999986
11
58.9637259999999941
21
-12.6199269999999988
0
LINE
8
BLACK
6
CONTINUOUS
10
58.9637259999999941
20
-12.6199269999999988
11
58.582772999999996
21
-12.6199269999999988
0
LINE
8
BLACK
6
CONTINUOUS
10
58.582772999999996
20
-12.6199269999999988
11
58.3922969999999992
21
-12.5246889999999986
0
LINE
8
BLACK
6
CONTINUOUS
10
60.4875349999999941
20
-12.6199269999999988
11
60.2970589999999973
21
-12.5246889999999986
0
LINE
8
BLACK
6
CONTINUOUS
10
60.2970589999999973
20
-12.5246889999999986
11
60.2018209999999954
21
-12.3342119999999991
0
LINE
8
BLACK
6
CONTINUOUS
10
60.2018209999999954
20
-12.3342119999999991
11
60.2018209999999954
21
-10.6199269999999988
0
LINE
8
BLACK
6
CONTINUOUS
10
62.1065830000000005
20
-12.6199269999999988
11
62.1065830000000005
21
-11.5723079999999996
0
LINE
8
BLACK
6
CONTINUOUS
10
62.1065830000000005
20
-11.5723079999999996
11
62.0113449999999986
21
-11.381831
0
LINE
8
BLACK
6
CONTINUOUS
10
62.0113449999999986
20
-11.381831
11
61.8208689999999947
21
-11.2865929999999999
0
LINE
8
BLACK
6
CONTINUOUS
10
61.8208689999999947
20
-11.2865929999999999
11
61.4399159999999966
21
-11.2865929999999999
0
LINE
8
BLACK
6
CONTINUOUS
10
61.4399159999999966
20
-11.2865929999999999
11
61.2494399999999999
21
-11.381831
0
LINE
8
BLACK
6
CONTINUOUS
10
62.1065830000000005
20
-12.5246889999999986
11
61.9161069999999967
21
-12.6199269999999988
0
LINE
8
BLACK
6
CONTINUOUS
10
61.9161069999999967
20
-12.6199269999999988
11
61.4399159999999966
21
-12.6199269999999988
0
LINE
8
BLACK
6
CONTINUOUS
10
61.4399159999999966
20
-12.6199269999999988
11
61.2494399999999999
21
-12.5246889999999986
0
LINE
8
BLACK
6
CONTINUOUS
10
61.2494399999999999
20
-12.5246889999999986
11
61.154201999999998
21
-12.3342119999999991
0
LINE
8
BLACK
6
CONTINUOUS
10
61.154201999999998
20
-12.3342119999999991
11
61.154201999999998
21
-12.1437359999999988
0
LINE
8
BLACK
6
CONTINUOUS
10
61.154201999999998
20
-12.1437359999999988
11
61.2494399999999999
21
-11.9532600000000002
0
LINE
8
BLACK
6
CONTINUOUS
10
61.2494399999999999
20
-11.9532600000000002
11
61.4399159999999966
21
-11.8580220000000001
0
LINE
8
BLACK
6
CONTINUOUS
10
61.4399159999999966
20
-11.8580220000000001
11
61.9161069999999967
21
-11.8580220000000001
0
LINE
8
BLACK
6
CONTINUOUS
10
61.9161069999999967
20
-11.8580220000000001
11
62.1065830000000005
21
-11.7627839999999999
0
LINE
8
BLACK
6
CONTINUOUS
10
62.7732499999999973
20
-11.2865929999999999
11
63.5351539999999986
21
-11.2865929999999999
0
LINE
8
BLACK
6
CONTINUOUS
10
63.058963999999996
20
-10.6199269999999988
11
63.058963999999996
21
-12.3342119999999991
0
LINE
8
BLACK
6
CONTINUOUS
10
63.058963999999996
20
-12.3342119999999991
11
63.154201999999998
21
-12.5246889999999986
0
LINE
8
BLACK
6
CONTINUOUS
10
63.154201999999998
20
-12.5246889999999986
11
63.3446779999999947
21
-12.6199269999999988
0
LINE
8
BLACK
6
CONTINUOUS
10
63.3446779999999947
20
-12.6199269999999988
11
63.5351539999999986
21
-12.6199269999999988
0
LINE
8
BLACK
6
CONTINUOUS
10
64.9637259999999941
20
-12.5246889999999986
11
64.7732499999999902
21
-12.6199269999999988
0
LINE
8
BLACK
6
CONTINUOUS
10
64.7732499999999902
20
-12.6199269999999988
11
64.3922969999999992
21
-12.6199269999999988
0
LINE
8
BLACK
6
CONTINUOUS
10
64.3922969999999992
20
-12.6199269999999988
11
64.2018209999999954
21
-12.5246889999999986
0
LINE
8
BLACK
6
CONTINUOUS
10
64.2018209999999954
20
-12.5246889999999986
11
64.1065830000000005
21
-12.3342119999999991
0
LINE
8
BLACK
6
CONTINUOUS
10
64.1065830000000005
20
-12.3342119999999991
11
64.1065830000000005
21
-11.5723079999999996
0
LINE
8
BLACK
6
CONTINUOUS
10
64.1065830000000005
20
-11.5723079999999996
11
64.2018209999999954
21
-11.381831
0
LINE
8
BLACK
6
CONTINUOUS
10
64.2018209999999954
20
-11.381831
11
64.3922969999999992
21
-11.2865929999999999
0
LINE
8
BLACK
6
CONTINUOUS
10
64.3922969999999992
20
-11.2865929999999999
11
64.7732499999999902
21
-11.2865929999999999
0
LINE
8
BLACK
6
CONTINUOUS
10
64.7732499999999902
20
-11.2865929999999999
11
64.9637259999999941
21
-11.381831
0
LINE
8
BLACK
6
CONTINUOUS
10
64.9637259999999941
20
-11.381831
11
65.0589640000000031
21
-11.5723079999999996
0
LINE
8
BLACK
6
CONTINUOUS
10
65.0589640000000031
20
-11.5723079999999996
11
65.0589640000000031
21
-11.7627839999999999
0
LINE
8
BLACK
6
CONTINUOUS
10
65.0589640000000031
20
-11.7627839999999999
11
64.1065830000000005
21
-11.9532600000000002
0
LINE
8
BLACK
6
CONTINUOUS
10
66.7732499999999902
20
-12.6199269999999988
11
66.7732499999999902
21
-10.6199269999999988
0
LINE
8
BLACK
6
CONTINUOUS
10
66.7732499999999902
20
-12.5246889999999986
11
66.5827740000000006
21
-12.6199269999999988
0
LINE
8
BLACK
6
CONTINUOUS
10
66.5827740000000006
20
-12.6199269999999988
11
66.2018209999999954
21
-12.6199269999999988
0
LINE
8
BLACK
6
CONTINUOUS
10
66.2018209999999954
20
-12.6199269999999988
11
66.0113449999999915
21
-12.5246889999999986
0
LINE
8
BLACK
6
CONTINUOUS
10
66.0113449999999915
20
-12.5246889999999986
11
65.9161069999999967
21
-12.4294499999999992
0
LINE
8
BLACK
6
CONTINUOUS
10
65.9161069999999967
20
-12.4294499999999992
11
65.8208690000000018
21
-12.2389739999999989
0
LINE
8
BLACK
6
CONTINUOUS
10
65.8208690000000018
20
-12.2389739999999989
11
65.8208690000000018
21
-11.6675459999999998
0
LINE
8
BLACK
6
CONTINUOUS
10
65.8208690000000018
20
-11.6675459999999998
11
65.9161069999999967
21
-11.4770690000000002
0
LINE
8
BLACK
6
CONTINUOUS
10
65.9161069999999967
20
-11.4770690000000002
11
66.0113449999999915
21
-11.381831
0
LINE
8
BLACK
6
CONTINUOUS
10
66.0113449999999915
20
-11.381831
11
66.2018209999999954
21
-11.2865929999999999
0
LINE
8
BLACK
6
CONTINUOUS
10
66.2018209999999954
20
-11.2865929999999999
11
66.5827740000000006
21
-11.2865929999999999
0
LINE
8
BLACK
6
CONTINUOUS
10
66.5827740000000006
20
-11.2865929999999999
11
66.7732499999999902
21
-11.381831
0
LINE
8
BLACK
6
CONTINUOUS
10
67.5351550000000032
20
-13.381831
11
67.630392999999998
21
-13.2865929999999999
0
LINE
8
BLACK
6
CONTINUOUS
10
67.630392999999998
20
-13.2865929999999999
11
67.8208690000000018
21
-13.0008789999999994
0
LINE
8
BLACK
6
CONTINUOUS
10
67.8208690000000018
20
-13.0008789999999994
11
67.9161069999999967
21
-12.8104029999999991
0
LINE
8
BLACK
6
CONTINUOUS
10
67.9161069999999967
20
-12.8104029999999991
11
68.0113449999999915
21
-12.5246889999999986
0
LINE
8
BLACK
6
CONTINUOUS
10
68.0113449999999915
20
-12.5246889999999986
11
68.1065830000000005
21
-12.0484979999999986
0
LINE
8
BLACK
6
CONTINUOUS
10
68.1065830000000005
20
-12.0484979999999986
11
68.1065830000000005
21
-11.6675459999999998
0
LINE
8
BLACK
6
CONTINUOUS
10
68.1065830000000005
20
-11.6675459999999998
11
68.0113449999999915
21
-11.1913549999999997
0
LINE
8
BLACK
6
CONTINUOUS
10
68.0113449999999915
20
-11.1913549999999997
11
67.9161069999999967
21
-10.9056409999999993
0
LINE
8
BLACK
6
CONTINUOUS
10
67.9161069999999967
20
-10.9056409999999993
11
67.8208690000000018
21
-10.7151649999999989
0
LINE
8
BLACK
6
CONTINUOUS
10
67.8208690000000018
20
-10.7151649999999989
11
67.630392999999998
21
-10.4294499999999992
0
LINE
8
BLACK
6
CONTINUOUS
10
67.630392999999998
20
-10.4294499999999992
11
67.5351550000000032
21
-10.3342119999999991
  0
ENDSEC
  0
EOF
